<?xml version="1.0" standalone="no"?>
<!DOCTYPE svg PUBLIC "-//W3C//DTD SVG 20010904//EN"
 "http://www.w3.org/TR/2001/REC-SVG-20010904/DTD/svg10.dtd">
<svg version="1.0" xmlns="http://www.w3.org/2000/svg"
 width="1366.000000pt" height="651.000000pt" viewBox="0 0 1366.000000 651.000000"
 preserveAspectRatio="xMidYMid meet">

<g transform="translate(0.000000,651.000000) scale(0.100000,-0.100000)"
fill="#000000" stroke="none">
<path d="M0 6030 l0 -480 234 0 235 0 -5 -42 c-4 -34 -12 -50 -42 -75 -20 -18
-43 -33 -49 -33 -7 0 -13 -4 -13 -9 0 -5 -9 -12 -19 -16 -17 -5 -18 -10 -10
-34 13 -36 8 -113 -7 -118 -20 -7 -41 25 -48 72 -5 33 -14 50 -32 61 -31 21
-78 12 -106 -18 -11 -13 -17 -17 -13 -10 3 6 4 12 1 12 -2 0 -12 -15 -21 -32
-15 -29 -21 -61 -24 -130 -1 -11 -9 -18 -20 -18 -22 0 -46 58 -38 91 3 13 0
19 -10 19 -13 0 -15 -9 -9 -47 10 -72 50 -105 78 -64 7 10 22 20 32 22 11 2
21 11 24 19 3 8 1 12 -3 8 -12 -11 -35 11 -35 34 0 11 9 22 20 25 11 3 20 11
20 19 0 11 56 34 85 34 6 0 21 -20 34 -46 28 -52 55 -71 77 -53 8 6 14 18 14
26 0 10 7 14 20 10 26 -7 42 15 37 50 -4 27 -4 27 -6 -4 -1 -38 -24 -45 -41
-13 -15 28 -3 60 22 60 13 0 18 5 15 14 -3 7 7 23 23 35 37 27 90 104 90 130
0 21 2 21 421 21 255 0 418 -4 414 -9 -11 -19 -75 -34 -90 -21 -10 9 -21 7
-46 -6 -23 -12 -55 -16 -108 -15 -113 2 -66 -27 69 -44 123 -16 206 -12 285
12 44 13 94 28 112 32 17 5 45 18 61 30 19 13 45 21 71 21 39 0 53 -11 31 -25
-35 -21 23 -29 73 -10 9 4 24 2 32 -5 8 -7 15 -9 15 -6 0 4 9 2 19 -4 14 -7
21 -6 24 3 3 6 6 3 6 -8 1 -16 3 -17 11 -5 7 12 12 12 29 -4 12 -11 21 -15 21
-9 0 5 7 10 15 10 8 0 15 -5 15 -10 0 -6 3 -7 7 -4 3 4 12 2 19 -4 7 -6 34
-13 59 -16 44 -4 45 -4 45 26 0 16 -4 33 -10 36 -5 3 -10 13 -10 21 0 11 21
14 112 14 110 0 111 0 93 -20 -10 -11 -15 -20 -11 -20 4 0 -1 -11 -12 -24 -11
-14 -19 -42 -20 -67 -2 -32 -9 -49 -34 -75 -59 -60 -67 -139 -21 -212 19 -30
32 -68 36 -102 4 -33 13 -57 22 -62 27 -16 14 -118 -17 -126 -10 -2 -21 -16
-24 -31 -3 -14 -10 -37 -15 -50 -11 -27 4 -53 27 -44 9 3 14 -2 14 -16 0 -29
22 -36 59 -17 53 28 61 23 62 -41 l1 -58 13 80 c7 47 27 109 46 150 32 67 33
76 39 225 6 142 19 210 40 210 10 0 67 -194 90 -310 12 -58 32 -128 45 -156
31 -67 68 -272 62 -345 -6 -68 11 -121 52 -163 16 -17 37 -47 45 -67 20 -48
31 -56 110 -76 65 -17 68 -17 104 2 25 14 38 28 40 45 2 20 1 22 -8 10 -9 -11
-13 -12 -17 -2 -2 7 -12 19 -20 28 -23 23 -6 30 18 8 l22 -19 -18 28 c-18 28
-35 36 -35 16 0 -7 -11 -9 -30 -5 -17 3 -39 1 -49 -6 -26 -16 -54 -3 -46 22 5
16 2 20 -14 20 -12 0 -21 5 -21 10 0 6 -9 10 -20 10 -13 0 -22 9 -26 25 -3 13
-12 29 -20 36 -17 14 -19 59 -1 59 9 0 9 2 0 8 -11 7 -24 99 -27 185 0 20 -4
37 -8 37 -4 0 -5 7 -1 16 3 8 12 13 20 10 8 -3 11 -1 8 4 -3 6 -1 10 4 10 6 0
11 7 11 16 0 8 4 12 10 9 5 -3 15 3 22 15 20 32 46 25 51 -12 3 -23 4 -17 5
17 0 28 -2 44 -5 38 -11 -29 -22 -10 -18 30 l6 42 -28 -34 c-27 -31 -31 -33
-71 -26 -33 5 -42 11 -42 27 0 13 -5 18 -14 15 -13 -5 -12 -1 0 29 9 21 10 34
4 34 -7 0 -8 6 -1 19 6 10 8 30 6 44 -3 14 -1 29 5 32 5 3 10 19 10 36 0 16 4
29 9 29 16 0 33 -61 35 -127 1 -47 17 -35 21 14 2 23 8 50 13 60 9 14 6 20
-11 30 -18 10 -19 12 -4 13 18 0 18 2 21 60 1 19 6 42 11 50 5 8 11 24 12 35
6 36 13 47 28 41 11 -4 15 2 15 20 0 14 9 38 19 53 11 15 23 40 27 56 4 16 34
62 66 103 32 40 58 77 58 82 0 6 1511 10 3810 10 l3810 0 -6 -24 c-4 -19 -2
-24 12 -23 11 1 19 -6 21 -18 1 -11 0 -14 -3 -7 -10 21 -33 13 -40 -13 -6 -25
-24 -35 -24 -14 0 5 -5 7 -10 4 -6 -4 -8 -11 -5 -16 3 -5 -1 -6 -9 -3 -9 3
-16 2 -16 -4 0 -6 -3 -18 -7 -28 -4 -12 -3 -15 5 -10 7 4 12 3 12 -3 0 -10
-19 -26 -32 -26 -3 0 -10 -4 -15 -9 -4 -5 6 -5 25 -1 28 6 32 4 32 -15 0 -17
5 -21 24 -18 31 4 56 -18 56 -51 0 -20 -3 -22 -9 -11 -6 8 -8 17 -5 21 2 4 -3
9 -11 13 -26 9 -25 -10 3 -39 l26 -28 8 29 c4 16 5 37 2 47 -3 9 -1 17 5 17 6
0 11 9 11 20 0 11 5 20 11 20 7 0 9 -12 5 -34 -4 -18 -2 -46 4 -61 6 -15 8
-30 5 -34 -8 -7 -25 21 -19 31 3 4 0 8 -5 8 -6 0 -11 -11 -11 -25 0 -20 5 -25
25 -25 24 0 25 2 22 61 -4 69 1 109 14 109 5 0 6 -7 2 -15 -3 -9 3 -25 12 -35
22 -24 43 -27 24 -4 -12 15 -11 16 9 10 13 -5 22 -3 22 3 0 6 -4 11 -10 11 -5
0 -10 5 -10 10 0 6 7 10 15 10 8 0 15 -5 15 -11 0 -5 4 -8 9 -5 5 4 11 1 13
-6 2 -6 11 -12 19 -13 11 -2 14 10 15 49 1 28 0 39 -3 24 -7 -44 -20 -33 -27
22 -4 28 -11 50 -16 50 -6 0 -10 -5 -10 -10 0 -7 -13 -8 -36 -4 -34 6 -36 5
-29 -15 10 -34 -1 -24 -30 24 -29 51 -26 65 13 65 21 0 24 -2 12 -10 -11 -7
-12 -12 -3 -21 13 -13 43 -5 43 11 0 6 -4 8 -10 5 -5 -3 -10 -1 -10 4 0 17 50
13 56 -4 4 -8 11 -15 16 -15 6 0 8 6 5 13 -3 8 5 14 24 15 16 1 29 -2 29 -8 0
-5 7 -10 15 -10 8 0 15 5 15 10 0 6 108 10 304 10 261 0 305 -2 310 -15 6 -17
32 -20 41 -5 3 5 0 7 -8 4 -8 -3 -18 -1 -21 4 -4 7 35 11 104 11 94 1 110 -1
110 -15 0 -13 2 -13 14 -2 20 20 400 26 423 6 14 -11 15 -11 9 0 -6 10 -2 13
15 10 18 -2 25 -10 27 -30 3 -23 -1 -28 -25 -34 -15 -4 -271 -88 -568 -186
-297 -99 -567 -188 -600 -198 -94 -29 -247 -81 -280 -95 l-29 -14 27 -12 c31
-14 34 -13 297 81 80 29 174 63 210 75 36 13 164 57 285 100 121 42 227 78
235 80 34 9 483 165 488 170 4 3 1 19 -5 35 l-11 30 594 0 594 0 0 480 0 480
-6745 0 -6745 0 0 -480z m1226 303 c5 -20 0 -40 -20 -76 -24 -44 -25 -47 -6
-37 12 6 35 10 53 8 29 -3 32 -6 30 -37 l-1 -34 23 40 c28 46 78 76 120 71 22
-2 31 -9 33 -25 2 -13 8 -23 13 -23 12 0 12 -37 -1 -61 -8 -15 -7 -19 4 -19 8
0 18 5 21 10 7 12 55 14 55 2 0 -35 -85 -95 -129 -90 -18 1 -37 -4 -49 -16
-11 -10 -38 -19 -59 -19 -21 -1 -50 -10 -64 -20 -40 -27 -82 -27 -94 1 -13 30
-22 28 -35 -12 -15 -48 -38 -66 -55 -43 -11 15 -14 15 -35 -8 -29 -31 -54 -39
-78 -26 -16 9 -26 4 -57 -24 -44 -42 -89 -48 -99 -12 -8 32 13 139 35 176 12
20 30 34 49 37 34 7 30 24 -6 24 -29 0 -41 24 -23 46 8 10 25 14 48 12 31 -3
36 -7 39 -31 2 -16 -3 -36 -10 -45 -17 -21 -52 -121 -45 -128 12 -12 48 69 71
159 28 108 35 124 64 150 25 23 66 19 70 -7 2 -10 -13 -54 -33 -97 -20 -44
-39 -98 -42 -121 l-4 -43 19 23 c11 12 32 55 47 95 53 143 68 178 87 202 26
34 56 32 64 -2z m-387 -92 c8 -14 1 -45 -30 -132 -43 -120 -51 -189 -35 -280
8 -44 7 -46 -22 -58 -39 -16 -66 -3 -81 40 -16 48 -14 80 15 170 14 46 28 90
31 98 3 10 -3 7 -16 -7 -21 -25 -43 -91 -60 -187 -13 -68 -38 -101 -70 -90
-27 8 -28 52 -1 130 11 32 20 70 20 84 0 54 -29 -3 -49 -98 -26 -119 -47 -156
-87 -156 -41 0 -42 28 -4 150 34 111 46 175 36 201 -6 15 -8 15 -27 -2 -28
-25 -48 -64 -79 -154 -22 -67 -28 -75 -52 -78 -39 -5 -45 29 -18 109 73 218
251 353 275 210 6 -38 8 -39 30 -29 18 8 28 8 38 0 11 -9 20 -4 45 26 50 63
122 90 141 53z m11688 -57 c48 -31 57 -106 18 -153 -25 -29 -25 -31 -10 -60
18 -37 19 -51 2 -51 -7 0 -21 16 -30 35 -14 28 -22 35 -46 35 -67 0 -111 44
-111 112 0 86 101 133 177 82z m493 -24 c36 -26 50 -56 50 -108 0 -106 -122
-169 -211 -109 -42 28 -59 60 -59 112 0 112 126 172 220 105z m-5879 -58 c46
-38 16 -122 -45 -122 -12 0 -32 7 -44 16 -33 23 -28 93 8 111 34 17 54 16 81
-5z m443 -3 c16 -15 -3 -23 -28 -11 -51 23 -89 -40 -44 -72 20 -14 24 -14 46
0 26 17 38 13 29 -10 -9 -23 -64 -30 -92 -12 -65 43 -22 136 55 120 14 -3 29
-10 34 -15z m1450 15 c26 -10 18 -27 -9 -20 -19 5 -25 2 -25 -9 0 -8 11 -21
25 -27 32 -14 35 -63 5 -73 -27 -9 -60 3 -60 22 0 10 5 13 18 8 28 -11 34 -11
39 2 2 6 -10 19 -26 28 -57 29 -27 92 33 69z m460 -15 c17 -13 26 -30 26 -49
0 -31 -39 -70 -70 -70 -31 0 -70 39 -70 70 0 31 39 70 70 70 10 0 29 -9 44
-21z m1522 7 c26 -19 10 -32 -21 -18 -21 10 -28 9 -45 -8 -25 -25 -25 -35 1
-61 19 -19 22 -20 46 -4 27 18 39 14 30 -8 -8 -22 -54 -29 -85 -15 -23 12 -27
19 -27 58 0 37 4 46 25 57 33 17 52 16 76 -1z m788 8 c26 -10 18 -27 -9 -20
-34 9 -33 -16 1 -38 28 -19 30 -52 2 -69 -22 -15 -77 8 -60 25 8 8 15 8 25 0
8 -7 17 -9 20 -5 14 13 6 30 -18 41 -53 25 -16 87 39 66z m-4929 -39 c0 -23
-5 -31 -22 -33 -17 -3 -23 -10 -23 -28 0 -15 -6 -24 -15 -24 -12 0 -15 13 -15
61 l0 60 38 -3 c34 -3 37 -6 37 -33z m115 20 c11 -13 11 -20 0 -40 -12 -22
-11 -27 5 -45 17 -19 17 -20 1 -20 -10 0 -26 10 -37 23 l-18 22 -1 -22 c0 -13
-4 -23 -10 -23 -6 0 -10 27 -10 60 0 59 0 60 29 60 16 0 34 -7 41 -15z m294
-1 c39 -38 7 -104 -51 -104 l-33 0 0 60 0 60 34 0 c19 0 42 -7 50 -16z m78
-31 c2 -36 7 -49 21 -51 14 -3 17 4 17 47 0 39 4 51 15 51 11 0 15 -12 15 -49
0 -73 -39 -103 -82 -64 -23 21 -26 113 -4 113 11 0 16 -14 18 -47z m338 37 c0
-5 -7 -10 -15 -10 -11 0 -15 -12 -15 -50 0 -38 -4 -50 -15 -50 -11 0 -15 12
-15 50 0 38 -4 50 -15 50 -8 0 -15 5 -15 10 0 6 20 10 45 10 25 0 45 -4 45
-10z m110 0 c0 -5 -11 -10 -25 -10 -16 0 -25 -6 -25 -15 0 -9 9 -15 25 -15 14
0 25 -4 25 -10 0 -5 -11 -10 -25 -10 -16 0 -25 -6 -25 -15 0 -9 9 -15 25 -15
14 0 25 -4 25 -10 0 -5 -18 -10 -40 -10 l-40 0 0 60 0 60 40 0 c22 0 40 -4 40
-10z m93 -27 l27 -38 0 38 c0 26 4 37 15 37 12 0 15 -13 15 -60 0 -70 -12 -76
-52 -28 l-27 33 -1 -32 c0 -23 -5 -33 -15 -33 -12 0 -15 13 -15 60 0 72 14 78
53 23z m450 0 l27 -38 0 38 c0 26 4 37 15 37 12 0 15 -13 15 -60 0 -70 -12
-76 -52 -28 l-27 33 -1 -32 c0 -23 -5 -33 -15 -33 -12 0 -15 13 -15 60 0 72
14 78 53 23z m127 -23 c0 -47 -3 -60 -15 -60 -12 0 -15 13 -15 60 0 47 3 60
15 60 12 0 15 -13 15 -60z m115 50 c-3 -5 -15 -10 -26 -10 -10 0 -19 -7 -19
-15 0 -9 9 -15 25 -15 14 0 25 -4 25 -10 0 -5 -11 -10 -25 -10 -16 0 -25 -6
-25 -15 0 -9 9 -15 25 -15 14 0 25 -4 25 -10 0 -5 -18 -10 -40 -10 l-40 0 0
60 0 60 41 0 c24 0 38 -4 34 -10z m65 -34 c0 -52 22 -79 39 -47 6 11 11 36 11
55 0 20 5 36 10 36 6 0 10 -25 10 -55 0 -43 -4 -56 -19 -65 -28 -14 -38 -13
-61 10 -25 25 -29 110 -5 110 11 0 15 -12 15 -44z m142 8 l12 -35 12 33 c14
44 40 49 49 9 8 -39 22 -40 30 -1 4 17 13 30 21 30 18 0 18 -2 -3 -67 -20 -62
-40 -67 -58 -13 l-12 35 -12 -37 c-7 -21 -18 -38 -25 -38 -7 0 -23 25 -35 56
-25 66 -25 64 -7 64 8 0 21 -16 28 -36z m779 -1 l12 -38 12 35 c6 19 19 36 28
38 14 3 14 -4 -5 -58 -23 -70 -44 -76 -63 -20 -26 77 -27 80 -11 80 8 0 20
-16 27 -37z m169 27 c0 -5 -11 -10 -25 -10 -16 0 -25 -6 -25 -15 0 -9 9 -15
25 -15 14 0 25 -4 25 -10 0 -5 -11 -10 -25 -10 -16 0 -25 -6 -25 -15 0 -9 9
-15 25 -15 14 0 25 -4 25 -10 0 -5 -18 -10 -40 -10 l-40 0 0 60 0 60 40 0 c22
0 40 -4 40 -10z m115 -10 c4 -12 1 -27 -5 -35 -10 -12 -9 -20 4 -40 19 -29 3
-35 -26 -8 -17 15 -18 15 -18 0 0 -10 -7 -17 -15 -17 -12 0 -15 13 -15 60 l0
60 34 0 c26 0 36 -5 41 -20z m166 -21 l20 -41 21 41 c30 61 48 54 48 -19 0
-47 -3 -60 -15 -60 -10 0 -15 10 -15 28 l-1 27 -15 -27 c-8 -16 -19 -28 -24
-28 -5 0 -16 12 -24 28 l-15 27 -1 -27 c0 -18 -5 -28 -15 -28 -12 0 -15 13
-15 60 0 73 19 81 51 19z m159 -19 c0 -47 -3 -60 -15 -60 -12 0 -15 13 -15 60
0 47 3 60 15 60 12 0 15 -13 15 -60z m70 10 c0 -47 2 -50 25 -50 14 0 25 -4
25 -10 0 -5 -18 -10 -40 -10 l-40 0 0 60 c0 47 3 60 15 60 11 0 15 -12 15 -50z
m110 33 c0 -15 1 -15 18 0 19 17 42 23 42 10 0 -4 -10 -17 -22 -30 l-22 -23
29 -30 c25 -26 26 -30 10 -30 -10 0 -27 7 -37 17 -17 15 -18 15 -18 0 0 -10
-7 -17 -15 -17 -12 0 -15 13 -15 60 0 47 3 60 15 60 8 0 15 -7 15 -17z m192
-43 c20 -45 23 -60 13 -60 -8 0 -19 9 -25 20 -6 11 -19 20 -30 20 -11 0 -24
-9 -30 -20 -6 -11 -17 -20 -25 -20 -10 0 -7 15 13 60 16 36 33 60 42 60 9 0
26 -24 42 -60z m594 5 c28 -65 28 -65 10 -65 -8 0 -18 9 -21 20 -4 12 -15 20
-30 20 -14 0 -25 -7 -28 -20 -4 -17 -37 -30 -37 -15 0 18 57 115 68 115 7 0
24 -25 38 -55z m142 43 c7 -7 12 -28 12 -48 0 -46 -15 -60 -62 -60 l-38 0 0
60 0 60 38 0 c21 0 43 -5 50 -12z m122 2 c0 -5 -9 -10 -20 -10 -11 0 -20 -7
-20 -15 0 -9 10 -15 26 -15 14 0 23 -4 19 -10 -3 -5 -15 -10 -26 -10 -10 0
-19 -7 -19 -15 0 -9 9 -15 25 -15 14 0 25 -4 25 -10 0 -5 -18 -10 -40 -10
l-40 0 0 60 0 60 35 0 c19 0 35 -4 35 -10z m136 -45 c28 -65 28 -65 10 -65 -8
0 -18 9 -21 20 -4 12 -15 20 -30 20 -14 0 -25 -7 -28 -20 -4 -17 -37 -30 -37
-15 0 18 57 115 68 115 7 0 24 -25 38 -55z m74 12 c0 -24 5 -48 12 -55 20 -20
38 6 38 54 0 24 5 44 10 44 6 0 10 -25 10 -55 0 -43 -4 -56 -19 -65 -28 -14
-38 -13 -61 10 -25 25 -29 110 -5 110 11 0 15 -11 15 -43z m-8900 -527 c0 -6
10 -5 25 2 21 9 27 8 38 -6 12 -16 14 -16 26 -2 11 13 34 16 108 16 l94 0 -83
-85 c-46 -46 -105 -109 -132 -140 -65 -75 -93 -88 -170 -82 -33 3 -77 10 -96
16 -30 9 -37 9 -47 -6 -7 -9 -13 -24 -13 -32 -1 -14 -2 -14 -10 1 -10 17 1 96
21 148 5 14 10 45 10 70 1 63 7 80 28 80 10 0 24 7 31 15 14 17 170 22 170 5z
m8018 -75 c7 -14 12 -32 12 -40 0 -22 -18 -18 -25 4 -3 11 -13 22 -22 25 -12
5 -13 9 -3 21 17 21 25 19 38 -10z m-58 -26 c5 -1 15 -2 22 -3 6 0 13 -7 16
-15 3 -10 0 -12 -13 -8 -9 4 -28 10 -42 13 -16 4 -22 11 -19 21 3 8 6 20 7 26
0 7 4 2 9 -10 5 -13 14 -24 20 -24z m-10 -35 c0 -2 -9 -4 -20 -4 -11 0 -20 4
-20 9 0 5 9 7 20 4 11 -3 20 -7 20 -9z m15 -71 c-4 -5 -10 -2 -13 6 -4 11 -6
11 -13 0 -6 -11 -11 -11 -20 -2 -9 9 -9 15 0 27 11 13 15 13 34 -4 11 -11 17
-23 12 -27z"/>
<path d="M1374 6172 c-27 -22 -47 -59 -35 -66 10 -7 22 7 45 52 19 37 18 38
-10 14z"/>
<path d="M1179 6149 c-11 -11 -18 -23 -16 -26 9 -9 47 17 47 32 0 20 -6 19
-31 -6z"/>
<path d="M1241 6116 c-18 -19 -30 -39 -26 -45 3 -6 11 -9 16 -5 9 5 52 84 46
84 -2 0 -18 -15 -36 -34z"/>
<path d="M12406 6155 c-32 -30 -34 -72 -5 -109 36 -45 106 -33 129 24 10 24
10 36 0 60 -23 55 -79 66 -124 25z"/>
<path d="M12912 6135 c-11 -24 -10 -25 18 -25 31 0 39 17 18 38 -17 17 -23 15
-36 -13z"/>
<path d="M12860 6125 c-7 -9 -8 -15 -2 -15 5 0 12 7 16 15 3 8 4 15 2 15 -2 0
-9 -7 -16 -15z"/>
<path d="M12990 6132 c0 -12 19 -26 26 -19 2 2 -2 10 -11 17 -9 8 -15 8 -15 2z"/>
<path d="M12830 6050 c0 -22 5 -30 18 -30 15 0 18 6 14 30 -2 17 -10 30 -18
30 -9 0 -14 -11 -14 -30z"/>
<path d="M12900 6050 c0 -28 3 -30 35 -30 32 0 35 2 35 30 0 28 -3 30 -35 30
-32 0 -35 -2 -35 -30z"/>
<path d="M13000 6049 c0 -24 4 -30 18 -27 10 2 18 14 20 31 3 22 -1 27 -17 27
-17 0 -21 -6 -21 -31z"/>
<path d="M12850 5991 c0 -5 6 -14 14 -20 12 -10 13 -8 9 8 -5 21 -23 30 -23
12z"/>
<path d="M12912 5975 c13 -28 33 -33 42 -9 11 28 7 34 -24 34 -28 0 -29 -1
-18 -25z"/>
<path d="M12996 5985 c-3 -8 -1 -15 3 -15 5 0 11 7 15 15 3 8 1 15 -3 15 -5 0
-11 -7 -15 -15z"/>
<path d="M7071 6081 c-12 -12 -21 -25 -21 -31 0 -5 9 -19 21 -31 18 -18 23
-19 42 -6 12 8 22 25 22 37 0 12 -10 29 -22 37 -19 13 -24 12 -42 -6z"/>
<path d="M9427 6082 c-22 -24 -21 -45 2 -66 15 -14 24 -15 40 -6 26 13 27 51
3 73 -23 21 -25 21 -45 -1z"/>
<path d="M6830 6075 c0 -9 5 -15 11 -13 6 2 11 8 11 13 0 5 -5 11 -11 13 -6 2
-11 -4 -11 -13z"/>
<path d="M6940 6075 c0 -9 5 -15 11 -13 6 2 11 8 11 13 0 5 -5 11 -11 13 -6 2
-11 -4 -11 -13z"/>
<path d="M7230 6050 c0 -28 4 -40 14 -40 18 0 30 33 21 60 -12 37 -35 23 -35
-20z"/>
<path d="M9820 6075 c0 -8 5 -15 10 -15 6 0 10 7 10 15 0 8 -4 15 -10 15 -5 0
-10 -7 -10 -15z"/>
<path d="M11240 6050 c0 -28 4 -40 15 -40 22 0 38 36 25 60 -19 35 -40 24 -40
-20z"/>
<path d="M2630 5515 c0 -8 5 -15 10 -15 6 0 10 7 10 15 0 8 -4 15 -10 15 -5 0
-10 -7 -10 -15z"/>
<path d="M2593 5487 c-14 -6 -29 -28 -39 -56 -8 -25 -22 -61 -30 -79 -8 -18
-14 -36 -14 -40 0 -4 38 -8 85 -10 77 -3 85 -1 84 15 0 11 -3 13 -6 5 -4 -10
-8 -10 -19 -1 -8 6 -11 15 -8 20 3 5 1 9 -5 9 -5 0 -12 9 -16 19 -4 12 -12 18
-21 14 -16 -6 -19 13 -3 23 6 3 9 21 7 40 -3 24 0 34 12 36 8 2 11 6 5 9 -5 4
-20 2 -32 -4z"/>
<path d="M13555 6460 c-18 -20 -17 -20 20 -20 37 0 38 0 20 20 -10 11 -19 20
-20 20 -1 0 -10 -9 -20 -20z"/>
<path d="M10518 5528 c7 -7 12 -20 12 -30 0 -15 5 -17 28 -12 36 9 40 14 11
15 -22 0 -23 1 -4 9 11 5 18 9 15 9 -3 1 -21 5 -39 11 -27 7 -32 7 -23 -2z"/>
<path d="M12197 5529 c7 -7 15 -10 18 -7 3 3 -2 9 -12 12 -14 6 -15 5 -6 -5z"/>
<path d="M12140 5515 c0 -8 5 -15 10 -15 6 0 10 7 10 15 0 8 -4 15 -10 15 -5
0 -10 -7 -10 -15z"/>
<path d="M12170 5520 c0 -5 5 -10 11 -10 5 0 7 5 4 10 -3 6 -8 10 -11 10 -2 0
-4 -4 -4 -10z"/>
<path d="M12115 5510 c3 -5 8 -10 11 -10 2 0 4 5 4 10 0 6 -5 10 -11 10 -5 0
-7 -4 -4 -10z"/>
<path d="M12082 5501 c4 -13 18 -16 19 -4 0 4 -5 9 -11 12 -7 2 -11 -2 -8 -8z"/>
<path d="M12050 5490 c0 -5 -7 -7 -15 -4 -8 4 -15 1 -15 -5 0 -6 -7 -8 -15 -5
-8 4 -15 1 -15 -6 0 -8 9 -10 28 -5 15 4 33 8 40 8 14 0 17 27 2 27 -5 0 -10
-4 -10 -10z"/>
<path d="M10975 5480 c3 -5 8 -10 11 -10 2 0 4 5 4 10 0 6 -5 10 -11 10 -5 0
-7 -4 -4 -10z"/>
<path d="M11960 5460 c0 -5 -5 -9 -11 -7 -6 1 -14 -4 -16 -11 -4 -11 -1 -12
15 -3 10 6 22 7 26 4 3 -3 6 1 6 10 0 10 -4 17 -10 17 -5 0 -10 -4 -10 -10z"/>
<path d="M11880 5430 c0 -5 7 -10 16 -10 8 0 12 5 9 10 -3 6 -10 10 -16 10 -5
0 -9 -4 -9 -10z"/>
<path d="M10927 5423 c-4 -3 -7 -11 -7 -17 0 -6 5 -5 12 2 6 6 9 14 7 17 -3 3
-9 2 -12 -2z"/>
<path d="M11850 5420 c0 -5 5 -10 10 -10 6 0 10 5 10 10 0 6 -4 10 -10 10 -5
0 -10 -4 -10 -10z"/>
<path d="M10950 5410 c0 -5 4 -10 9 -10 6 0 13 5 16 10 3 6 -1 10 -9 10 -9 0
-16 -4 -16 -10z"/>
<path d="M11820 5410 c0 -5 5 -10 10 -10 6 0 10 5 10 10 0 6 -4 10 -10 10 -5
0 -10 -4 -10 -10z"/>
<path d="M11795 5400 c-3 -5 -1 -10 4 -10 6 0 11 5 11 10 0 6 -2 10 -4 10 -3
0 -8 -4 -11 -10z"/>
<path d="M11760 5390 c0 -5 5 -10 11 -10 5 0 7 5 4 10 -3 6 -8 10 -11 10 -2 0
-4 -4 -4 -10z"/>
<path d="M11700 5364 c0 -8 5 -12 10 -9 6 3 10 10 10 16 0 5 -4 9 -10 9 -5 0
-10 -7 -10 -16z"/>
<path d="M10950 5360 c-8 -5 -11 -12 -7 -16 4 -4 13 -2 19 4 15 15 7 24 -12
12z"/>
<path d="M11670 5360 c0 -5 5 -10 10 -10 6 0 10 5 10 10 0 6 -4 10 -10 10 -5
0 -10 -4 -10 -10z"/>
<path d="M11645 5350 c3 -5 8 -10 11 -10 2 0 4 5 4 10 0 6 -5 10 -11 10 -5 0
-7 -4 -4 -10z"/>
<path d="M11595 5339 c-4 -6 -5 -13 -2 -16 7 -7 27 6 27 18 0 12 -17 12 -25
-2z"/>
<path d="M11560 5326 c0 -9 5 -16 10 -16 6 0 10 4 10 9 0 6 -4 13 -10 16 -5 3
-10 -1 -10 -9z"/>
<path d="M6503 5313 c-34 -17 -40 -27 -23 -38 6 -4 10 -77 10 -185 0 -108 -4
-181 -10 -185 -24 -15 -6 -25 45 -25 51 0 69 10 45 25 -6 4 -10 87 -10 216 0
227 2 221 -57 192z"/>
<path d="M6653 5313 c-34 -17 -40 -27 -23 -38 6 -4 10 -77 10 -185 0 -108 -4
-181 -10 -185 -24 -15 -6 -25 45 -25 51 0 69 10 45 25 -18 11 -11 81 10 100
12 11 24 15 28 9 50 -58 73 -96 67 -114 -6 -18 -2 -20 49 -20 57 0 68 8 41 30
-8 7 -38 44 -67 83 l-52 70 52 47 c29 26 52 50 52 53 0 4 -20 7 -45 7 -48 0
-50 -2 -35 -29 7 -15 -1 -26 -45 -64 -29 -26 -56 -47 -59 -47 -3 0 -6 68 -6
150 0 163 1 162 -57 133z"/>
<path d="M10777 5309 c7 -7 15 -10 18 -7 3 3 -2 9 -12 12 -14 6 -15 5 -6 -5z"/>
<path d="M10870 5310 c0 -5 5 -10 10 -10 6 0 10 5 10 10 0 6 -4 10 -10 10 -5
0 -10 -4 -10 -10z"/>
<path d="M11507 5313 c-10 -9 -9 -23 1 -23 5 0 9 7 9 15 0 17 -1 18 -10 8z"/>
<path d="M11530 5310 c0 -5 5 -10 10 -10 6 0 10 5 10 10 0 6 -4 10 -10 10 -5
0 -10 -4 -10 -10z"/>
<path d="M6348 5303 c-23 -6 -34 -49 -18 -68 27 -33 80 -11 80 32 0 18 -29 47
-42 42 -2 -1 -11 -3 -20 -6z"/>
<path d="M5831 5282 c10 -16 7 -52 -15 -188 -15 -93 -32 -173 -37 -178 -20
-21 -9 -36 27 -36 31 0 35 3 28 18 -4 9 -7 26 -7 37 1 41 36 250 43 258 4 4
31 -57 60 -137 29 -80 58 -153 65 -163 11 -15 13 -15 23 4 6 11 32 78 58 149
25 71 50 133 54 137 11 12 45 -174 45 -245 l0 -58 48 0 c48 0 55 7 37 38 -19
33 -72 344 -61 355 20 20 12 27 -28 27 -28 0 -41 -5 -46 -17 -3 -10 -26 -76
-50 -146 -25 -70 -48 -135 -53 -143 -6 -12 -24 29 -63 143 l-54 158 -43 3
c-40 3 -42 2 -31 -16z"/>
<path d="M11475 5290 c-3 -5 -1 -10 4 -10 6 0 11 5 11 10 0 6 -2 10 -4 10 -3
0 -8 -4 -11 -10z"/>
<path d="M10570 5274 c0 -8 5 -12 10 -9 6 4 8 11 5 16 -9 14 -15 11 -15 -7z"/>
<path d="M10807 5271 c-4 -17 -3 -21 5 -13 5 5 8 16 6 23 -3 8 -7 3 -11 -10z"/>
<path d="M11420 5281 c0 -6 5 -13 10 -16 6 -3 10 1 10 9 0 9 -4 16 -10 16 -5
0 -10 -4 -10 -9z"/>
<path d="M10760 5262 c0 -15 4 -20 16 -15 9 3 12 9 7 12 -4 3 -11 10 -15 15
-5 5 -8 0 -8 -12z"/>
<path d="M10592 5254 c-17 -31 6 -72 23 -43 4 6 13 8 21 5 22 -8 17 32 -5 44
-26 13 -28 13 -39 -6z"/>
<path d="M11370 5266 c0 -2 7 -6 15 -10 8 -3 15 -1 15 4 0 6 -7 10 -15 10 -8
0 -15 -2 -15 -4z"/>
<path d="M10827 5246 c-14 -36 66 -48 104 -17 l24 20 -22 -6 c-13 -3 -23 -9
-23 -14 0 -14 -37 -5 -58 14 -17 16 -20 16 -25 3z"/>
<path d="M11340 5252 c0 -7 -7 -9 -17 -5 -15 5 -16 3 -5 -8 9 -10 15 -10 24
-1 6 6 9 15 5 19 -4 3 -7 1 -7 -5z"/>
<path d="M10876 5242 c-3 -5 1 -9 9 -9 8 0 15 4 15 9 0 4 -4 8 -9 8 -6 0 -12
-4 -15 -8z"/>
<path d="M11280 5230 c0 -5 7 -10 16 -10 8 0 12 5 9 10 -3 6 -10 10 -16 10 -5
0 -9 -4 -9 -10z"/>
<path d="M10750 5210 c-21 -7 -21 -8 -5 -9 11 0 27 4 35 9 18 11 5 11 -30 0z"/>
<path d="M4650 5156 c0 -8 5 -18 10 -21 6 -4 37 -63 70 -132 78 -164 85 -164
152 1 26 66 55 127 63 136 23 25 19 30 -25 30 -44 0 -45 -2 -28 -29 9 -15 4
-36 -26 -115 -21 -54 -39 -96 -41 -94 -2 2 -19 44 -39 93 -25 62 -35 98 -30
118 6 27 5 27 -50 27 -42 0 -56 -4 -56 -14z"/>
<path d="M5023 5160 c-26 -10 -47 -46 -39 -66 9 -24 33 -15 55 21 16 27 27 35
49 35 37 0 52 -18 59 -68 l5 -38 -60 4 c-55 4 -63 2 -86 -21 -35 -35 -35 -89
-1 -122 19 -20 34 -25 76 -25 35 0 59 6 71 16 16 16 18 16 24 0 4 -11 18 -16
45 -16 41 0 49 9 25 29 -8 6 -17 42 -21 83 -12 129 -50 179 -134 177 -25 0
-56 -4 -68 -9z m121 -146 c20 -19 21 -87 2 -103 -8 -7 -29 -11 -47 -9 -28 2
-36 9 -47 40 -13 33 -13 40 2 63 19 29 66 34 90 9z"/>
<path d="M5323 5154 c-36 -16 -40 -25 -18 -44 11 -9 15 -34 15 -100 0 -66 -4
-91 -15 -100 -27 -23 -16 -30 46 -30 l61 0 -17 26 c-14 21 -16 44 -13 116 3
80 6 92 27 109 31 25 47 24 75 -4 20 -20 25 -38 31 -116 5 -64 4 -96 -4 -104
-20 -20 -11 -27 37 -27 58 0 66 6 47 34 -9 12 -15 44 -15 81 0 116 -36 175
-106 175 -36 0 -84 -18 -84 -32 0 -4 -4 -8 -10 -8 -5 0 -10 9 -10 20 0 23 -4
23 -47 4z"/>
<path d="M6347 5154 c-23 -13 -27 -20 -21 -37 4 -12 9 -57 11 -100 4 -60 1
-84 -11 -102 -9 -13 -16 -27 -16 -30 0 -3 25 -5 55 -5 41 0 55 4 55 14 0 8 -4
18 -10 21 -6 4 -10 58 -10 131 0 134 -1 136 -53 108z"/>
<path d="M6977 5154 c-22 -12 -28 -21 -25 -42 4 -38 29 -37 53 1 15 23 29 33
52 35 35 4 47 -10 58 -69 l7 -35 -61 4 c-56 4 -62 2 -91 -26 -43 -44 -36 -107
17 -131 34 -16 105 -14 130 4 19 13 22 13 27 0 3 -10 19 -15 46 -15 43 0 49 6
25 24 -10 7 -19 42 -26 95 -12 98 -28 135 -69 156 -37 19 -107 19 -143 -1z
m137 -146 c34 -48 8 -108 -45 -108 -50 0 -80 78 -43 114 23 24 70 20 88 -6z"/>
<path d="M10635 5160 c-3 -5 -2 -10 4 -10 5 0 13 5 16 10 3 6 2 10 -4 10 -5 0
-13 -4 -16 -10z"/>
<path d="M2862 4645 c0 -22 4 -51 8 -65 l8 -25 0 25 c1 14 -3 43 -7 65 l-9 40
0 -40z"/>
<path d="M5800 4539 c0 -26 -3 -29 -20 -24 -22 7 -50 -9 -50 -28 0 -6 6 -2 14
9 12 15 18 17 33 8 10 -6 18 -21 18 -32 0 -11 3 -24 8 -28 4 -4 7 23 7 59 0
37 -2 67 -5 67 -3 0 -5 -14 -5 -31z"/>
<path d="M6293 4505 c0 -38 2 -53 4 -32 2 20 2 52 0 70 -2 17 -4 1 -4 -38z"/>
<path d="M6333 4505 c0 -38 2 -53 4 -32 2 20 2 52 0 70 -2 17 -4 1 -4 -38z"/>
<path d="M6771 4556 c-18 -22 -10 -97 12 -110 36 -22 63 56 37 105 -13 23 -33
25 -49 5z m37 -8 c14 -14 16 -67 3 -87 -18 -28 -41 -4 -41 42 0 56 12 71 38
45z"/>
<path d="M6870 4555 c-6 -8 -10 -20 -7 -27 4 -8 6 -7 6 4 1 23 19 32 36 18 9
-7 15 -8 15 -2 0 5 -7 13 -16 16 -21 8 -20 8 -34 -9z"/>
<path d="M6960 4554 c-11 -12 -10 -18 3 -32 16 -15 18 -15 34 0 13 14 14 20 3
32 -7 9 -16 16 -20 16 -4 0 -13 -7 -20 -16z m36 -5 c10 -17 -13 -36 -27 -22
-12 12 -4 33 11 33 5 0 12 -5 16 -11z"/>
<path d="M7273 4505 c0 -38 2 -53 4 -32 2 20 2 52 0 70 -2 17 -4 1 -4 -38z"/>
<path d="M7873 4505 c0 -38 1 -62 4 -52 5 18 5 18 26 0 l22 -18 -19 22 c-16
20 -17 25 -5 40 13 16 12 17 -3 5 -15 -12 -17 -9 -21 30 -2 27 -4 17 -4 -27z"/>
<path d="M2363 4495 c0 -38 2 -53 4 -32 2 20 2 52 0 70 -2 17 -4 1 -4 -38z"/>
<path d="M6713 4500 c0 -36 2 -50 4 -32 2 17 2 47 0 65 -2 17 -4 3 -4 -33z"/>
<path d="M6081 4538 c-1 -10 -7 -18 -13 -18 -10 0 -10 -2 -1 -8 6 -4 13 -23
16 -42 l4 -35 1 38 c1 22 7 37 15 37 8 0 9 3 1 8 -6 4 -14 14 -17 22 -4 12 -6
11 -6 -2z"/>
<path d="M6921 4508 c-3 -57 -28 -77 -51 -40 -11 16 -11 16 -6 -1 3 -10 6 -21
6 -23 0 -2 9 -4 20 -4 24 0 42 33 37 68 l-4 27 -2 -27z"/>
<path d="M41 4509 c-1 -9 7 -25 17 -36 9 -10 14 -14 10 -8 -4 6 -12 22 -17 36
-6 15 -10 18 -10 8z"/>
<path d="M4890 4507 c24 -11 24 -11 -12 -15 -39 -3 -48 -18 -26 -40 14 -14 44
-16 52 -4 2 4 -7 8 -21 7 -14 0 -28 6 -30 13 -3 8 7 12 31 12 20 0 36 4 36 8
0 14 -23 32 -39 31 -10 0 -6 -5 9 -12z"/>
<path d="M4953 4513 c-8 -2 -12 -20 -12 -41 l2 -37 6 35 c4 22 12 35 21 35 9
0 18 -13 22 -35 l6 -35 -1 40 c-2 40 -15 51 -44 38z"/>
<path d="M5093 4513 c-8 -2 -12 -20 -12 -41 l2 -37 6 35 c4 22 12 35 21 35 9
0 18 -13 22 -35 l6 -35 -1 40 c-2 40 -15 51 -44 38z"/>
<path d="M5180 4510 c-11 -7 -7 -9 15 -7 26 2 30 -1 30 -23 0 -35 -41 -41 -55
-8 -7 17 -9 18 -7 4 1 -10 10 -24 20 -30 34 -22 73 27 47 59 -14 17 -29 19
-50 5z"/>
<path d="M5272 4508 c-24 -24 -6 -69 28 -67 9 0 6 4 -7 9 -26 11 -31 48 -8 56
24 10 43 -14 43 -52 0 -41 -20 -54 -52 -34 -19 12 -20 12 -7 -3 32 -39 71 -12
71 49 0 35 -4 43 -22 48 -31 8 -32 8 -46 -6z"/>
<path d="M5423 4504 c-4 -10 0 -20 10 -26 22 -12 22 -25 0 -31 -16 -4 -16 -5
-1 -6 26 -2 32 18 12 40 -16 17 -16 22 -4 29 11 7 11 10 2 10 -7 0 -15 -7 -19
-16z"/>
<path d="M5488 4508 c9 -9 15 -9 24 0 9 9 7 12 -12 12 -19 0 -21 -3 -12 -12z"/>
<path d="M5552 4508 c-25 -25 -6 -68 29 -68 10 0 20 4 23 8 2 4 -7 8 -21 7
-14 0 -28 6 -30 13 -3 8 6 12 26 12 33 0 43 23 15 34 -22 8 -28 8 -42 -6z m43
-8 c4 -6 -5 -10 -20 -10 -15 0 -24 4 -20 10 3 6 12 10 20 10 8 0 17 -4 20 -10z"/>
<path d="M5646 4504 c-19 -18 -19 -20 -6 -45 11 -19 44 -26 54 -10 3 4 -5 6
-18 4 -15 -3 -25 1 -29 11 -5 13 1 16 28 16 37 0 43 8 23 28 -16 16 -33 15
-52 -4z m49 -4 c4 -6 -5 -10 -20 -10 -15 0 -24 4 -20 10 3 6 12 10 20 10 8 0
17 -4 20 -10z"/>
<path d="M5834 4508 c-4 -6 2 -19 14 -29 27 -21 27 -26 5 -32 -16 -4 -16 -5
-1 -6 27 -2 34 21 10 37 -27 17 -28 29 -4 35 15 4 15 5 0 6 -9 0 -20 -4 -24
-11z"/>
<path d="M5968 4511 l24 -6 -21 -27 c-27 -34 -26 -38 7 -37 16 1 20 3 10 6
-22 5 -22 12 -3 37 21 28 19 36 -12 35 -27 -1 -27 -1 -5 -8z"/>
<path d="M6192 4508 c-29 -29 -4 -70 42 -66 22 2 26 7 26 34 0 24 -5 33 -22
38 -31 8 -32 8 -46 -6z m48 -13 c17 -20 5 -45 -20 -45 -23 0 -35 22 -26 45 7
19 30 19 46 0z"/>
<path d="M6376 4504 c-19 -18 -19 -20 -6 -45 11 -19 44 -26 54 -10 3 4 -5 6
-18 4 -15 -3 -25 1 -29 11 -5 13 1 16 28 16 37 0 43 8 23 28 -16 16 -33 15
-52 -4z m49 -4 c4 -6 -5 -10 -20 -10 -15 0 -24 4 -20 10 3 6 12 10 20 10 8 0
17 -4 20 -10z"/>
<path d="M6472 4508 c-25 -25 -6 -68 29 -68 10 0 20 4 23 8 2 4 -7 8 -21 7
-14 0 -28 6 -30 13 -3 8 6 12 26 12 33 0 43 23 15 34 -22 8 -28 8 -42 -6z m43
-8 c4 -6 -5 -10 -20 -10 -15 0 -24 4 -20 10 3 6 12 10 20 10 8 0 17 -4 20 -10z"/>
<path d="M6573 4513 c-8 -3 -12 -20 -12 -41 l2 -37 6 35 c4 22 12 35 21 35 9
0 17 -13 21 -35 5 -29 7 -31 8 -8 2 50 -12 65 -46 51z"/>
<path d="M7208 4509 c33 -13 27 -54 -8 -54 -21 0 -25 4 -23 30 1 28 1 29 -9 8
-15 -30 6 -54 43 -51 25 2 29 6 29 34 0 30 -14 45 -43 43 -7 0 -2 -4 11 -10z"/>
<path d="M7359 4503 c30 -24 23 -56 -11 -51 -18 2 -23 9 -23 31 1 15 -3 27 -7
27 -4 0 -7 -26 -7 -57 1 -38 4 -49 8 -33 4 18 13 25 30 25 49 0 54 64 5 74
-16 3 -15 0 5 -16z"/>
<path d="M7422 4508 c-22 -22 -14 -57 14 -64 14 -4 30 -2 35 3 5 5 -2 9 -18 8
-14 0 -28 6 -30 13 -3 8 6 12 26 12 17 0 31 4 31 8 0 12 -22 32 -35 32 -6 0
-16 -5 -23 -12z m43 -8 c4 -6 -5 -10 -20 -10 -15 0 -24 4 -20 10 3 6 12 10 20
10 8 0 17 -4 20 -10z"/>
<path d="M7523 4513 c-8 -3 -12 -20 -12 -41 l2 -37 6 35 c4 22 12 35 21 35 9
0 17 -13 21 -35 5 -29 7 -31 8 -8 2 50 -12 65 -46 51z"/>
<path d="M7612 4512 c-6 -2 -12 -8 -12 -14 0 -6 6 -6 15 2 12 10 18 10 29 1
10 -9 16 -9 21 -1 4 6 14 9 23 5 9 -3 13 -3 9 2 -9 8 -65 12 -85 5z"/>
<path d="M7736 4504 c-25 -24 -19 -30 24 -26 42 4 48 10 28 30 -16 16 -33 15
-52 -4z m49 -4 c4 -6 -5 -10 -20 -10 -15 0 -24 4 -20 10 3 6 12 10 20 10 8 0
17 -4 20 -10z"/>
<path d="M8067 4513 c6 -4 13 -24 16 -43 4 -34 4 -33 3 4 -1 26 -6 41 -16 43
-10 3 -11 2 -3 -4z"/>
<path d="M8182 4508 c-25 -25 -6 -68 29 -68 10 0 20 4 23 8 2 4 -8 8 -22 7
-21 0 -28 5 -30 23 -5 33 26 41 50 13 10 -13 18 -19 18 -13 0 14 -29 42 -44
42 -6 0 -17 -5 -24 -12z"/>
<path d="M8283 4513 c-8 -2 -12 -20 -12 -41 l2 -37 6 35 c4 22 12 35 21 35 9
0 18 -13 22 -35 l6 -35 -1 40 c-2 40 -15 51 -44 38z"/>
<path d="M8368 4513 c25 -5 28 -13 10 -32 -10 -11 -10 -12 -1 -7 7 4 18 16 23
27 10 17 7 19 -22 18 -24 -1 -27 -3 -10 -6z"/>
<path d="M8470 4507 c24 -11 24 -11 -12 -15 -39 -3 -48 -18 -26 -40 14 -14 44
-16 52 -4 2 4 -7 8 -21 7 -14 0 -28 6 -30 13 -3 8 7 12 31 12 20 0 36 4 36 8
0 14 -23 32 -39 31 -10 0 -6 -5 9 -12z"/>
<path d="M8030 4475 c0 -19 2 -35 4 -35 2 0 6 16 8 35 2 19 0 35 -4 35 -4 0
-8 -16 -8 -35z"/>
<path d="M7033 4474 c-8 -20 10 -37 33 -31 15 4 14 5 -5 6 -18 1 -22 5 -18 21
6 24 -1 27 -10 4z"/>
<path d="M7076 4477 c3 -10 9 -15 12 -12 3 3 0 11 -7 18 -10 9 -11 8 -5 -6z"/>
<path d="M5730 4459 c0 -11 25 -22 39 -17 6 1 -1 8 -14 15 -14 6 -25 7 -25 2z"/>
<path d="M7737 4448 c2 -5 13 -8 23 -8 10 0 21 3 23 8 3 4 -8 7 -23 7 -15 0
-26 -3 -23 -7z"/>
<path d="M8354 4449 c-3 -5 9 -9 25 -9 17 0 31 2 31 4 0 8 -51 13 -56 5z"/>
<path d="M83 4427 c4 -10 7 -32 7 -48 0 -18 9 -37 25 -50 13 -12 27 -35 30
-50 4 -16 11 -29 16 -29 5 0 16 -12 26 -26 16 -25 16 -27 -2 -40 -10 -8 -32
-14 -48 -14 -32 0 -90 36 -82 51 4 5 -8 9 -25 9 l-31 0 3 -72 3 -71 40 -14
c61 -21 155 -27 185 -11 28 16 31 41 10 98 -7 19 -17 47 -23 62 -5 15 -31 55
-58 90 -27 35 -49 73 -49 84 0 12 -8 28 -17 35 -15 12 -16 12 -10 -4z m145
-272 c14 -30 15 -45 4 -45 -11 0 -43 56 -35 64 12 11 20 6 31 -19z m-34 -57
c-9 -15 -21 -8 -32 17 -19 42 -13 52 13 21 13 -17 22 -33 19 -38z"/>
<path d="M2370 4415 c0 -5 5 -17 10 -25 5 -8 10 -10 10 -5 0 6 -5 17 -10 25
-5 8 -10 11 -10 5z"/>
<path d="M2921 4395 c9 -24 72 -116 76 -111 2 2 -12 28 -33 58 -40 57 -49 69
-43 53z"/>
<path d="M4880 4361 c0 -26 -3 -30 -26 -28 -16 1 -31 -5 -38 -15 -16 -27 4
-53 43 -54 l31 -1 0 64 c0 34 -2 63 -5 63 -3 0 -5 -13 -5 -29z m-10 -46 c17
-20 5 -45 -20 -45 -23 0 -35 22 -26 45 7 19 30 19 46 0z"/>
<path d="M6143 4325 c0 -38 2 -53 4 -32 2 20 2 52 0 70 -2 17 -4 1 -4 -38z"/>
<path d="M6350 4360 c0 -27 -3 -30 -23 -25 -29 8 -50 -15 -45 -47 2 -16 10
-24 28 -25 25 -3 25 -3 3 7 -26 11 -31 48 -8 56 21 9 47 -15 40 -37 -3 -9 -1
-20 5 -24 6 -4 10 17 10 59 0 36 -2 66 -5 66 -3 0 -5 -14 -5 -30z"/>
<path d="M5222 4323 l1 -58 6 45 6 45 26 -49 c20 -37 27 -45 32 -32 4 9 3 15
-2 12 -4 -3 -18 17 -31 44 -13 28 -27 50 -32 50 -4 0 -7 -26 -6 -57z"/>
<path d="M5329 4359 c-7 -14 -7 -19 -1 -15 7 4 12 -11 15 -41 3 -44 4 -42 5
15 1 34 0 62 -3 62 -2 0 -9 -10 -16 -21z"/>
<path d="M4671 4358 c-1 -10 -7 -18 -13 -18 -10 0 -10 -2 -1 -8 6 -4 13 -23
16 -42 l4 -35 1 38 c1 22 7 37 15 37 8 0 9 3 1 8 -6 4 -14 14 -17 22 -4 12 -6
11 -6 -2z"/>
<path d="M2405 4328 c3 -15 16 -44 30 -64 36 -52 31 -121 -7 -98 -11 7 -27 9
-120 18 -25 2 -51 7 -57 10 -6 4 -11 29 -11 56 0 43 -2 48 -26 54 -36 9 -39 3
-11 -30 17 -20 26 -47 30 -87 3 -32 11 -65 18 -73 14 -17 97 -43 165 -50 37
-4 60 -1 83 10 17 9 31 18 31 20 0 2 -8 23 -19 47 -10 24 -21 51 -24 59 -4 8
-18 33 -32 55 -14 22 -32 54 -41 70 l-15 30 6 -27z m90 -188 c14 -27 14 -30
-4 -40 -23 -12 -26 -7 -30 38 -3 40 14 41 34 2z"/>
<path d="M4732 4328 c-22 -22 -14 -57 14 -64 14 -4 30 -2 35 3 5 5 -2 9 -18 8
-14 0 -28 6 -30 13 -3 8 6 12 26 12 17 0 31 4 31 8 0 12 -22 32 -35 32 -6 0
-16 -5 -23 -12z m43 -8 c4 -6 -5 -10 -20 -10 -15 0 -24 4 -20 10 3 6 12 10 20
10 8 0 17 -4 20 -10z"/>
<path d="M4960 4327 c24 -11 24 -11 -12 -15 -39 -3 -48 -18 -26 -40 14 -14 44
-16 52 -4 2 4 -7 8 -21 7 -14 0 -28 6 -30 13 -3 8 7 12 31 12 20 0 36 4 36 8
0 14 -23 32 -39 31 -10 0 -6 -5 9 -12z"/>
<path d="M5023 4333 c-8 -3 -12 -20 -12 -41 2 -34 2 -34 6 -7 2 17 12 36 21
43 16 12 8 15 -15 5z"/>
<path d="M5082 4328 c-22 -22 -14 -57 14 -64 14 -4 30 -2 35 3 5 5 -2 9 -18 8
-14 0 -28 6 -30 13 -3 8 6 12 26 12 17 0 31 4 31 8 0 12 -22 32 -35 32 -6 0
-16 -5 -23 -12z m43 -8 c4 -6 -5 -10 -20 -10 -15 0 -24 4 -20 10 3 6 12 10 20
10 8 0 17 -4 20 -10z"/>
<path d="M5540 4326 c-20 -25 -8 -61 20 -63 25 -3 25 -3 3 7 -26 11 -31 48 -8
56 21 9 47 -15 40 -37 -3 -9 -1 -20 5 -24 6 -4 10 7 10 28 0 27 -5 36 -22 41
-32 8 -34 8 -48 -8z"/>
<path d="M5696 4324 c-9 -8 -16 -21 -16 -27 0 -6 7 -1 16 12 11 15 23 21 35
18 11 -3 17 -1 13 4 -8 14 -31 11 -48 -7z"/>
<path d="M5812 4326 c7 -8 15 -12 17 -11 5 6 -10 25 -20 25 -5 0 -4 -6 3 -14z"/>
<path d="M5872 4328 c-21 -21 -14 -57 12 -64 28 -7 46 1 46 19 0 8 -3 8 -9 -1
-13 -21 -46 -10 -49 16 -4 27 22 40 43 22 9 -7 15 -8 15 -2 0 9 -22 22 -39 22
-4 0 -12 -5 -19 -12z"/>
<path d="M5980 4336 c0 -2 9 -6 20 -9 11 -3 18 -1 14 4 -5 9 -34 13 -34 5z"/>
<path d="M6052 4328 c-17 -17 -15 -55 4 -62 28 -11 43 -6 54 17 10 20 10 21
-4 4 -19 -24 -50 -18 -54 11 -4 27 22 40 43 22 9 -7 15 -8 15 -2 0 9 -22 22
-39 22 -4 0 -12 -5 -19 -12z"/>
<path d="M6193 4333 c-7 -2 -13 -9 -13 -15 0 -6 6 -6 15 2 21 18 47 5 43 -22
-2 -18 -9 -23 -30 -23 -17 1 -24 -3 -19 -8 5 -5 21 -7 35 -3 20 5 26 13 26 35
0 34 -23 48 -57 34z"/>
<path d="M6392 4328 c-25 -25 -6 -68 29 -68 10 0 20 4 23 8 2 4 -7 8 -21 7
-14 0 -28 6 -30 13 -3 8 6 12 26 12 33 0 43 23 15 34 -22 8 -28 8 -42 -6z m43
-8 c4 -6 -5 -10 -20 -10 -15 0 -24 4 -20 10 3 6 12 10 20 10 8 0 17 -4 20 -10z"/>
<path d="M5305 4319 c-4 -6 -5 -12 -2 -15 2 -3 7 2 10 11 7 17 1 20 -8 4z"/>
<path d="M5383 4295 c0 -22 2 -30 4 -17 2 12 2 30 0 40 -3 9 -5 -1 -4 -23z"/>
<path d="M5487 4315 c-18 -13 -18 -14 2 -34 12 -12 21 -17 21 -13 0 4 -5 13
-12 20 -8 8 -8 15 2 27 15 18 11 19 -13 0z"/>
<path d="M5775 4320 c-3 -5 -1 -10 4 -10 6 0 11 5 11 10 0 6 -2 10 -4 10 -3 0
-8 -4 -11 -10z"/>
<path d="M5955 4310 c-4 -12 -1 -27 5 -35 13 -16 46 -20 54 -7 2 4 -8 8 -22 7
-23 0 -27 4 -25 28 2 32 -3 35 -12 7z"/>
<path d="M5697 4268 c2 -5 13 -8 23 -8 10 0 21 3 23 8 3 4 -8 7 -23 7 -15 0
-26 -3 -23 -7z"/>
<path d="M5465 4111 c-149 -67 -152 -281 -6 -358 l44 -23 1241 0 1242 0 44 23
c60 30 99 88 109 163 5 32 6 61 2 64 -3 3 -15 23 -26 45 -11 21 -40 53 -63 70
l-44 30 -1251 2 c-1198 3 -1254 2 -1292 -16z m331 -159 l22 -37 18 38 c20 42
34 48 34 15 0 -13 3 -40 6 -60 5 -31 4 -38 -10 -38 -11 0 -16 9 -17 28 0 27
-1 27 -11 5 -6 -13 -16 -23 -23 -23 -7 0 -17 10 -23 23 -10 22 -11 22 -11 -5
-1 -19 -6 -28 -17 -28 -12 0 -15 6 -10 23 3 12 6 39 6 60 0 47 9 47 36 -1z
m144 -22 c0 -47 -3 -60 -15 -60 -11 0 -15 13 -15 53 0 30 3 57 7 60 17 17 23
2 23 -53z m60 10 c0 -47 2 -50 25 -50 14 0 25 -4 25 -10 0 -5 -16 -10 -35 -10
l-35 0 0 60 c0 33 4 60 10 60 6 0 10 -22 10 -50z m107 35 c5 -14 8 -14 24 1
26 24 35 10 14 -22 -16 -25 -16 -27 4 -55 24 -32 10 -40 -21 -12 -17 15 -18
15 -18 0 0 -10 -7 -17 -15 -17 -12 0 -15 13 -15 60 0 57 13 79 27 45z m169
-40 c13 -31 24 -58 24 -60 0 -12 -28 -3 -34 10 -7 20 -36 19 -51 -1 -6 -9 -16
-15 -22 -13 -12 5 35 119 49 119 5 0 20 -25 34 -55z m208 49 c26 -10 18 -27
-9 -22 -37 7 -59 -13 -51 -45 5 -20 13 -27 31 -27 14 0 25 5 25 10 0 6 -11 10
-25 10 -14 0 -25 5 -25 10 0 6 20 10 45 10 53 0 59 -17 18 -49 -61 -49 -138
34 -83 89 20 20 45 25 74 14z m136 -5 c0 -6 -9 -13 -20 -16 -11 -3 -20 -9 -20
-14 0 -5 9 -9 20 -9 11 0 20 -4 20 -10 0 -5 -9 -10 -20 -10 -11 0 -20 -7 -20
-15 0 -8 9 -15 20 -15 11 0 20 -4 20 -10 0 -5 -16 -10 -35 -10 l-35 0 0 60 0
60 35 0 c19 0 35 -5 35 -11z m98 -8 c3 -9 -2 -11 -17 -6 -29 9 -27 -11 4 -31
14 -9 25 -25 25 -35 0 -26 -34 -43 -60 -29 -28 15 -25 32 5 24 14 -3 25 -2 25
4 0 5 -11 17 -25 26 -28 18 -32 35 -13 54 16 16 50 12 56 -7z m137 6 c23 -18
4 -32 -23 -18 -29 16 -57 -9 -48 -42 7 -29 42 -37 63 -16 7 7 13 7 17 1 9 -14
-20 -34 -49 -34 -14 0 -35 8 -45 17 -57 51 23 137 85 92z m65 -12 c0 -20 5
-25 24 -25 18 0 26 6 28 22 2 12 9 23 16 26 9 3 12 -13 12 -57 0 -48 -3 -61
-15 -61 -9 0 -15 9 -15 25 0 20 -5 25 -25 25 -20 0 -25 -5 -25 -25 0 -14 -4
-25 -10 -25 -6 0 -10 27 -10 60 0 33 4 60 10 60 6 0 10 -11 10 -25z m148 -38
c2 -46 0 -57 -13 -57 -12 0 -15 13 -15 61 0 81 24 77 28 -4z m107 48 c0 -5
-10 -11 -22 -13 -31 -5 -29 -22 2 -22 14 0 25 -4 25 -10 0 -5 -11 -10 -25 -10
-16 0 -25 -6 -25 -15 0 -9 9 -15 25 -15 14 0 25 -4 25 -10 0 -5 -16 -10 -35
-10 l-35 0 0 61 0 60 33 -3 c17 -2 32 -7 32 -13z m110 -10 c29 -28 31 -42 9
-73 -11 -15 -25 -22 -50 -22 l-34 0 0 60 c0 58 1 60 25 60 14 0 37 -11 50 -25z
m115 10 c0 -8 -9 -15 -20 -15 -11 0 -20 -4 -20 -10 0 -5 11 -10 25 -10 14 0
25 -4 25 -10 0 -5 -11 -10 -25 -10 -16 0 -25 -6 -25 -15 0 -9 9 -15 25 -15 14
0 25 -4 25 -10 0 -5 -18 -10 -40 -10 l-40 0 0 53 c0 30 3 57 7 60 13 14 63 7
63 -8z m87 -22 l32 -38 1 38 c0 20 5 37 10 37 6 0 10 -27 10 -60 0 -33 -4 -60
-9 -60 -5 0 -21 15 -35 33 l-26 32 0 -32 c0 -23 -5 -33 -15 -33 -12 0 -15 13
-15 60 0 33 3 60 8 60 4 0 21 -17 39 -37z m121 -26 c2 -46 0 -57 -13 -57 -12
0 -15 13 -15 61 0 81 24 77 28 -4z m101 54 c17 -11 -1 -23 -23 -15 -25 10 -19
-12 9 -30 14 -9 25 -25 25 -36 0 -27 -34 -44 -60 -30 -25 13 -18 30 10 23 28
-7 25 11 -5 31 -27 18 -32 35 -13 54 14 14 37 15 57 3z"/>
<path d="M7240 3925 c0 -37 10 -44 30 -20 14 17 4 55 -16 55 -9 0 -14 -11 -14
-35z"/>
<path d="M10216 3554 c-19 -14 -19 -14 1 -14 21 0 33 -18 33 -46 0 -9 -4 -13
-9 -10 -5 4 -7 -3 -4 -14 6 -22 -7 -26 -25 -8 -9 9 -12 8 -12 -6 0 -9 -5 -14
-10 -11 -7 4 -7 13 0 26 9 15 7 19 -5 19 -8 0 -15 -4 -15 -10 0 -5 -7 -6 -17
-3 -12 5 -14 3 -8 -8 8 -12 6 -12 -8 0 -18 14 -22 22 -9 20 21 -4 32 3 32 19
0 13 -2 14 -9 3 -7 -11 -11 -10 -20 6 -5 11 -7 24 -3 29 4 5 0 3 -10 -4 -13
-10 -17 -10 -21 0 -4 10 -6 10 -6 -1 -1 -11 -4 -11 -18 0 -10 8 -14 9 -10 2 4
-6 3 -14 -3 -18 -17 -10 -12 -20 20 -38 17 -11 30 -27 30 -38 0 -12 -4 -17
-11 -14 -6 4 -8 14 -4 24 5 12 4 13 -6 4 -9 -9 -8 -18 5 -37 20 -32 11 -34
-13 -4 -17 20 -61 33 -61 18 0 -4 -7 -7 -15 -7 -8 0 -15 4 -15 9 0 4 -5 8 -11
8 -5 0 -8 -4 -5 -9 3 -4 -3 -19 -14 -31 -11 -13 -20 -27 -20 -32 0 -4 -4 -8
-10 -8 -5 0 -10 9 -10 20 0 24 -18 26 -35 3 -12 -15 -15 -15 -49 1 -20 9 -36
24 -36 32 0 9 5 12 12 8 6 -4 8 -3 4 4 -3 6 -2 13 4 17 5 3 10 12 10 18 -1 7
-10 1 -21 -13 -12 -14 -26 -25 -32 -25 -6 0 -12 -6 -15 -14 -3 -8 0 -11 7 -7
6 4 11 4 11 -1 0 -12 -54 -35 -58 -24 -2 5 -15 6 -33 1 -16 -5 -29 -7 -29 -5
0 2 -18 -2 -40 -10 -22 -8 -40 -12 -40 -8 0 3 -6 1 -13 -6 -10 -8 -17 -7 -25
1 -9 9 -12 9 -12 -1 0 -9 -10 -12 -30 -9 -25 4 -29 1 -32 -21 -2 -16 -8 -25
-17 -23 -8 2 -18 -3 -23 -10 -7 -10 -11 -9 -22 5 -12 16 -23 18 -63 12 -47 -6
-71 -15 -41 -15 9 0 18 -6 21 -14 4 -10 -3 -14 -29 -13 -22 1 -34 6 -34 15 0
8 -8 12 -17 10 -11 -2 -17 -11 -15 -21 2 -10 -4 -17 -13 -17 -8 0 -15 7 -15
15 0 17 -9 19 -30 5 -13 -8 -12 -10 3 -10 10 0 16 -4 12 -10 -3 -5 -13 -6 -23
-3 -15 6 -16 5 -2 -12 13 -16 13 -18 0 -13 -8 3 -14 15 -13 26 3 21 -1 22 -44
5 -23 -8 -43 -13 -68 -17 -11 -2 -23 -4 -27 -5 -5 0 -8 -13 -8 -28 0 -16 -4
-23 -8 -18 -11 15 -52 14 -52 0 0 -8 -18 -16 -40 -20 -27 -5 -41 -13 -45 -27
-4 -12 -12 -17 -21 -14 -17 7 -49 -10 -79 -41 -12 -13 -25 -20 -28 -17 -3 4
-19 -3 -35 -15 -16 -11 -32 -18 -36 -14 -3 3 -6 -8 -6 -25 0 -36 -7 -40 -26
-14 -12 15 -13 14 -14 -10 0 -16 -4 -28 -10 -28 -5 0 -10 5 -10 11 0 5 -5 7
-11 3 -6 -3 -14 -3 -18 2 -11 15 -72 44 -82 39 -5 -3 -18 -1 -29 5 -16 9 -19
8 -13 -6 5 -14 3 -15 -15 -5 -40 21 -40 20 5 -149 17 -63 35 -104 51 -122 35
-38 52 -36 52 5 0 49 20 78 75 107 70 38 138 34 178 -11 24 -26 28 -39 25 -70
-2 -27 0 -39 9 -39 18 0 37 51 23 60 -12 7 -3 38 17 58 6 7 10 20 7 30 -5 16
-5 16 5 0 12 -18 43 -14 62 8 14 17 87 8 112 -14 9 -8 17 -13 18 -11 0 2 2 15
3 28 3 26 58 77 94 87 25 7 25 6 12 36 -5 13 -14 42 -20 65 -8 34 -14 40 -30
36 -14 -4 -20 0 -20 12 0 13 6 16 23 11 12 -3 28 -6 36 -6 7 0 11 -6 8 -14 -3
-8 4 -41 17 -73 16 -42 28 -59 43 -61 11 -2 31 -14 43 -27 19 -20 21 -27 11
-39 -7 -8 -19 -12 -27 -9 -25 9 -15 -11 18 -40 18 -15 25 -24 16 -21 -23 8
-23 8 7 -54 14 -29 25 -59 25 -67 0 -9 12 -33 26 -55 21 -31 24 -43 15 -54
-12 -14 -5 -46 10 -46 5 0 9 9 9 20 0 11 5 29 12 39 9 15 9 25 0 46 -7 14 -12
34 -12 43 0 14 4 13 18 -6 22 -29 34 -18 51 44 11 43 8 67 -14 94 -7 8 -15 28
-17 43 -9 47 22 21 46 -38 5 -14 33 16 41 45 l6 25 -18 -23 c-10 -13 -22 -20
-26 -16 -4 4 -2 13 4 20 7 8 8 25 4 41 -6 24 -8 26 -16 10 -12 -21 -32 -12
-25 11 3 10 10 60 16 112 6 52 14 98 19 103 6 6 16 -89 12 -118 -7 -40 -4 -89
4 -91 6 -2 30 37 54 87 24 50 47 85 51 79 4 -6 18 14 34 47 14 32 38 78 51
103 14 24 22 53 19 62 -7 22 9 24 26 3 21 -25 21 -65 1 -65 -11 0 -25 -17 -38
-47 -11 -27 -44 -99 -72 -162 -68 -152 -67 -148 -39 -171 13 -11 27 -19 31
-20 5 0 22 -9 39 -21 16 -12 31 -20 33 -18 1 2 6 38 10 79 8 85 23 137 24 83
1 -17 5 -34 11 -38 5 -3 6 -15 1 -28 -4 -12 -6 -29 -4 -37 13 -43 13 -43 28
-30 12 10 16 9 21 -4 5 -13 9 -14 20 -5 8 6 14 8 15 3 1 -5 4 2 8 16 4 14 2
40 -4 57 -13 37 -31 60 -21 26 10 -31 -8 -29 -22 2 -15 33 -15 33 6 31 14 -1
16 6 14 34 -5 42 -9 47 -24 32 -14 -14 -32 3 -43 43 -4 17 -9 35 -11 40 -2 6
-6 21 -10 34 -5 17 -4 22 4 17 7 -4 12 -12 12 -17 0 -6 6 -17 14 -24 12 -12
15 -12 20 0 7 19 26 20 26 1 0 -16 40 -117 51 -130 5 -5 18 -3 31 6 14 9 37
13 61 10 23 -3 37 0 37 7 0 6 -9 11 -20 11 -11 0 -20 5 -20 11 0 6 9 9 19 6
14 -3 21 2 25 18 7 26 -1 55 -15 55 -5 0 -9 4 -9 9 0 5 16 9 35 8 34 -1 35 -2
35 -39 0 -41 27 -118 41 -118 5 0 5 10 0 23 -10 25 6 44 52 64 18 8 26 17 22
25 -4 7 0 5 9 -5 12 -15 22 -18 55 -12 23 4 41 10 41 13 0 11 -25 76 -34 90
-5 8 -4 18 1 23 7 7 16 1 27 -15 9 -15 26 -26 37 -26 19 0 21 -4 15 -31 -6
-31 -5 -31 25 -25 18 3 37 1 44 -4 7 -6 44 -12 83 -14 39 -2 78 -8 86 -15 32
-26 24 11 -22 100 -44 88 -49 94 -77 93 -16 0 -38 -4 -47 -8 -13 -6 -18 -4
-18 8 0 18 37 36 58 29 21 -9 14 45 -8 57 -27 15 -27 60 0 67 16 4 18 8 9 19
-15 19 -4 30 14 15 15 -12 47 -5 47 9 0 5 -5 12 -10 15 -6 4 -9 14 -8 22 2 9
-3 18 -11 21 -8 3 -11 0 -7 -7 4 -6 2 -9 -6 -6 -7 2 -25 7 -40 9 -25 4 -28 2
-28 -25 0 -32 -3 -34 -31 -19 -16 9 -19 7 -19 -9 0 -10 -7 -21 -15 -25 -8 -3
-15 -1 -15 3 0 5 -3 17 -7 27 -4 12 -3 15 5 10 11 -7 30 20 21 28 -15 12 -57
13 -73 0z m-126 -44 c0 -5 -5 -10 -11 -10 -5 0 -7 5 -4 10 3 6 8 10 11 10 2 0
4 -4 4 -10z m90 -143 c0 -5 -4 -5 -10 -2 -5 3 -10 14 -10 23 0 15 2 15 10 2 5
-8 10 -19 10 -23z m-201 -53 c-10 -12 -9 -17 3 -27 12 -10 12 -16 -3 -45 -10
-19 -20 -29 -24 -22 -12 20 -9 95 5 128 l15 32 8 -25 c6 -17 5 -31 -4 -41z
m-299 46 c0 -5 -2 -10 -4 -10 -3 0 -8 5 -11 10 -3 6 -1 10 4 10 6 0 11 -4 11
-10z m-9 -26 c12 -14 11 -16 -5 -13 -11 2 -21 10 -24 17 -5 17 13 15 29 -4z
m109 0 c0 -8 -5 -12 -10 -9 -6 4 -8 11 -5 16 9 14 15 11 15 -7z m260 6 c0 -5
-2 -10 -4 -10 -3 0 -8 5 -11 10 -3 6 -1 10 4 10 6 0 11 -4 11 -10z m180 -6 c0
-17 -22 -14 -28 4 -2 7 3 12 12 12 9 0 16 -7 16 -16z m-680 -14 c0 -4 -13 -7
-30 -6 -29 1 -36 6 -25 18 8 7 55 -3 55 -12z m76 -7 c17 -27 17 -28 -1 -13
-17 13 -18 13 -13 -1 8 -19 -28 -63 -43 -53 -6 4 -4 13 7 25 16 17 16 19 1 19
-10 0 -17 7 -17 15 0 8 9 15 20 15 11 0 20 5 20 10 0 16 7 12 26 -17z m482
-56 c2 -10 -3 -17 -12 -17 -10 0 -16 9 -16 21 0 24 23 21 28 -4z m-978 -13 c0
-8 -4 -12 -10 -9 -5 3 -10 10 -10 16 0 5 5 9 10 9 6 0 10 -7 10 -16z m115 -4
c3 -5 1 -10 -4 -10 -6 0 -11 5 -11 10 0 6 2 10 4 10 3 0 8 -4 11 -10z m155
-15 c10 -9 26 -15 34 -12 9 4 18 2 21 -3 4 -6 -1 -10 -9 -10 -9 0 -16 -5 -16
-11 0 -8 -4 -9 -13 0 -8 6 -17 8 -20 4 -4 -3 -9 2 -13 11 -4 10 -17 16 -35 16
-17 0 -29 5 -29 13 0 18 57 13 80 -8z m900 5 c0 -5 -4 -10 -10 -10 -5 0 -10 5
-10 10 0 6 5 10 10 10 6 0 10 -4 10 -10z m111 -41 c11 -11 19 -25 17 -30 -5
-15 -23 -10 -20 6 3 15 -29 15 -40 0 -4 -5 -8 -1 -8 11 0 39 20 44 51 13z
m-1121 1 c0 -5 -6 -10 -12 -10 -7 0 -5 -5 5 -11 9 -5 17 -14 17 -19 0 -5 -8
-6 -17 -3 -36 13 -45 53 -13 53 11 0 20 -4 20 -10z m-200 -4 c0 -11 -19 -15
-25 -6 -3 5 1 10 9 10 9 0 16 -2 16 -4z m130 -16 c-8 -5 -19 -10 -25 -10 -5 0
-3 5 5 10 8 5 20 10 25 10 6 0 3 -5 -5 -10z m-50 -10 c0 -5 -4 -10 -10 -10 -5
0 -10 5 -10 10 0 6 5 10 10 10 6 0 10 -4 10 -10z m184 -49 c4 -5 -3 -7 -14 -4
-23 6 -26 13 -6 13 8 0 17 -4 20 -9z m-54 -27 c0 -2 -7 -4 -15 -4 -8 0 -15 4
-15 10 0 5 7 7 15 4 8 -4 15 -8 15 -10z m55 -183 c-4 -18 1 -47 13 -79 18 -47
19 -62 2 -62 -4 0 -12 19 -19 43 -7 23 -19 52 -27 65 -19 29 -9 62 17 62 17 0
20 -5 14 -29z"/>
<path d="M10160 3546 c0 -9 5 -16 10 -16 6 0 10 4 10 9 0 6 -4 13 -10 16 -5 3
-10 -1 -10 -9z"/>
<path d="M9986 3534 c-4 -9 -13 -14 -21 -10 -8 3 -25 1 -37 -4 -18 -7 -19 -9
-5 -9 21 -1 22 -9 3 -30 -12 -13 -12 -20 -1 -40 l13 -24 12 22 c6 12 9 28 7
35 -3 7 -1 19 4 27 7 12 9 12 10 -1 1 -8 1 -19 0 -23 -1 -5 3 -6 9 -2 6 4 8
15 5 26 -5 14 -2 17 8 13 20 -7 28 8 12 23 -10 10 -14 9 -19 -3z"/>
<path d="M10033 3535 c-3 -9 -3 -18 -1 -21 3 -3 8 4 11 16 6 23 -1 27 -10 5z"/>
<path d="M10190 3515 c-10 -12 -10 -15 3 -15 19 0 31 16 18 24 -5 3 -14 -1
-21 -9z"/>
<path d="M10493 3520 c-26 -10 -31 -40 -8 -40 23 0 18 -16 -9 -28 -22 -10 -24
-16 -19 -49 3 -21 10 -43 15 -49 4 -6 5 -19 2 -28 -7 -18 48 -134 79 -167 20
-22 60 -20 65 3 4 22 -44 118 -66 134 -22 15 -34 60 -25 93 5 20 7 19 32 -16
19 -29 26 -34 29 -21 5 25 -35 160 -50 170 -16 9 -17 9 -45 -2z"/>
<path d="M9864 3495 c-10 -8 -14 -14 -9 -15 15 0 40 18 34 24 -3 3 -14 -1 -25
-9z"/>
<path d="M10010 3486 c0 -8 5 -18 10 -21 6 -3 10 3 10 14 0 12 -4 21 -10 21
-5 0 -10 -6 -10 -14z"/>
<path d="M9735 3420 c-3 -5 -1 -10 4 -10 6 0 11 5 11 10 0 6 -2 10 -4 10 -3 0
-8 -4 -11 -10z"/>
<path d="M9403 3337 c-3 -5 0 -14 7 -20 10 -9 14 -9 17 1 3 6 11 12 19 12 8 0
14 4 14 9 0 11 -50 9 -57 -2z"/>
<path d="M10590 3298 c0 -7 5 -20 10 -28 8 -12 10 -11 10 7 0 12 -4 25 -10 28
-5 3 -10 0 -10 -7z"/>
<path d="M10630 3151 c0 -6 4 -13 10 -16 6 -3 7 1 4 9 -7 18 -14 21 -14 7z"/>
<path d="M9740 3106 c0 -9 5 -16 10 -16 6 0 10 4 10 9 0 6 -4 13 -10 16 -5 3
-10 -1 -10 -9z"/>
<path d="M9970 3089 c0 -21 7 -42 15 -49 26 -22 29 -3 6 42 l-21 43 0 -36z"/>
<path d="M10515 3090 c-4 -7 0 -19 9 -28 13 -14 16 -14 16 -2 0 25 -16 44 -25
30z"/>
<path d="M10458 3083 c7 -3 16 -2 19 1 4 3 -2 6 -13 5 -11 0 -14 -3 -6 -6z"/>
<path d="M9546 3045 c-9 -26 -7 -32 5 -12 6 10 9 21 6 23 -2 3 -7 -2 -11 -11z"/>
<path d="M10608 3053 c-20 -5 -23 -18 -8 -28 6 -3 10 -1 10 4 0 6 9 11 21 11
11 0 17 5 14 10 -6 10 -9 11 -37 3z"/>
<path d="M10430 3030 c0 -5 5 -10 10 -10 6 0 10 5 10 10 0 6 -4 10 -10 10 -5
0 -10 -4 -10 -10z"/>
<path d="M10460 3022 c0 -19 26 -49 35 -40 3 2 6 15 7 29 2 18 -2 25 -19 27
-17 3 -23 -2 -23 -16z"/>
<path d="M9526 2995 c-9 -26 -7 -32 5 -12 6 10 9 21 6 23 -2 3 -7 -2 -11 -11z"/>
<path d="M10321 2966 c-9 -10 -7 -16 5 -27 13 -10 17 -10 24 1 9 14 3 40 -10
40 -4 0 -13 -6 -19 -14z"/>
<path d="M10196 2949 c-54 -9 -99 -39 -58 -39 26 0 26 -1 8 -45 -16 -37 -42
-46 -53 -19 -8 22 -63 74 -77 74 -6 0 -24 7 -41 16 -16 8 -39 13 -50 9 -29 -8
-64 -67 -58 -99 6 -32 23 -45 23 -18 0 10 3 22 7 26 4 4 7 19 8 34 0 23 4 27
25 24 14 -1 34 -13 45 -27 12 -14 28 -25 38 -25 9 0 31 -7 50 -16 29 -14 35
-23 44 -68 6 -30 7 -60 2 -73 -10 -26 -29 -31 -29 -8 0 14 -66 65 -85 65 -12
0 -55 -64 -55 -82 0 -6 10 -22 22 -35 18 -19 20 -27 11 -41 -6 -9 -21 -16 -32
-15 -35 4 -69 -23 -64 -51 6 -31 51 -42 69 -18 11 14 15 15 26 4 11 -11 10
-16 -4 -26 -23 -17 -23 -28 0 -24 24 4 52 -19 52 -43 0 -20 -15 -25 -25 -9 -9
14 -27 12 -23 -2 3 -7 16 -15 31 -19 20 -5 29 -2 44 17 10 13 21 24 25 24 16
0 8 -53 -9 -66 -21 -14 -15 -24 16 -27 11 -1 21 -6 21 -11 0 -6 17 -27 37 -48
27 -28 33 -38 20 -38 -9 0 -17 -5 -17 -11 0 -8 12 -9 37 -4 46 8 53 12 53 31
0 8 7 14 15 14 12 0 14 7 9 26 -6 25 -5 26 25 19 29 -6 31 -5 31 21 0 42 -22
93 -42 100 -10 3 -18 12 -18 20 0 8 -12 20 -27 27 -16 6 -31 16 -35 22 -5 6
-11 6 -20 -3 -15 -15 -49 -15 -83 0 -19 8 -25 19 -25 43 0 17 -5 36 -11 42
-19 19 -6 58 20 61 19 3 22 0 17 -13 -6 -18 28 -54 52 -55 9 0 11 -7 7 -20 -7
-22 18 -29 31 -9 3 6 14 9 25 6 26 -7 51 25 44 56 -5 18 -17 30 -41 37 -31 11
-41 27 -35 62 0 4 -8 12 -19 18 -21 11 -27 44 -10 55 19 12 49 -6 71 -43 l22
-37 10 30 c5 17 18 39 28 51 11 11 19 25 19 32 0 6 7 15 16 20 19 11 10 32
-12 32 -12 0 -14 7 -9 29 5 23 2 32 -14 40 -11 6 -21 10 -23 10 -2 -1 -25 -5
-52 -10z m-51 -309 c3 -5 -1 -10 -9 -10 -9 0 -16 5 -16 10 0 6 4 10 9 10 6 0
13 -4 16 -10z m39 -201 c31 -15 36 -26 29 -78 -7 -55 -30 -54 -71 3 -31 43
-42 73 -22 61 6 -3 13 1 16 9 7 19 15 20 48 5z"/>
<path d="M10175 2380 c3 -5 11 -10 16 -10 6 0 7 5 4 10 -3 6 -11 10 -16 10 -6
0 -7 -4 -4 -10z"/>
<path d="M9143 2895 c-18 -8 -33 -18 -33 -23 0 -16 29 -34 45 -28 21 8 82 -54
90 -91 12 -53 19 -58 23 -15 4 49 -25 109 -50 104 -13 -2 -15 4 -8 33 7 32 6
35 -14 35 -11 -1 -36 -7 -53 -15z"/>
<path d="M9527 2888 c-4 -12 -1 -25 5 -29 6 -4 7 -12 4 -18 -4 -6 -3 -11 2
-11 4 0 18 -9 30 -20 12 -11 24 -16 27 -10 7 12 -22 70 -35 70 -6 0 -10 9 -10
20 0 27 -16 25 -23 -2z"/>
<path d="M9600 2862 c0 -29 29 -79 49 -85 11 -3 21 -1 21 4 0 5 -6 9 -12 9
-10 0 -10 2 -1 8 9 6 3 18 -22 42 -19 19 -35 28 -35 22z"/>
<path d="M10590 2828 c-30 -15 -67 -35 -83 -44 l-27 -15 18 -27 c10 -15 22
-35 25 -44 4 -10 13 -18 21 -18 16 0 26 -52 14 -74 -13 -23 -35 -19 -54 10
-26 39 -63 30 -81 -20 -11 -33 -11 -42 1 -55 7 -9 16 -33 20 -53 9 -48 -17
-54 -33 -8 -5 17 -17 30 -26 30 -13 0 -15 10 -9 68 4 37 8 74 8 82 1 10 -9 15
-29 15 -24 0 -31 -5 -33 -25 -2 -14 -8 -29 -12 -35 -14 -17 1 -63 35 -102 17
-21 45 -58 60 -83 28 -43 29 -44 35 -20 l6 25 18 -21 c16 -18 24 -20 50 -13
35 10 69 46 62 65 -3 7 11 24 30 39 28 21 43 26 86 24 62 -2 78 -12 78 -48 0
-33 9 -47 38 -55 18 -6 22 -4 22 14 0 21 -37 167 -46 182 -3 4 -25 8 -49 8
-34 0 -47 5 -55 19 -15 29 -12 71 6 78 18 7 11 58 -12 84 -8 8 -14 21 -14 27
0 21 -15 19 -70 -10z"/>
<path d="M9790 2830 c-9 -6 -10 -10 -3 -10 6 0 15 5 18 10 8 12 4 12 -15 0z"/>
<path d="M10720 2801 c0 -11 5 -23 10 -26 6 -3 10 3 10 14 0 11 -4 23 -10 26
-5 3 -10 -3 -10 -14z"/>
<path d="M8626 2787 c-38 -31 -30 -53 23 -62 23 -4 41 -11 41 -16 0 -5 4 -9 9
-9 13 0 23 62 12 73 -5 5 -7 16 -4 23 9 23 -49 17 -81 -9z"/>
<path d="M9490 2790 c0 -11 2 -20 4 -20 2 0 6 9 9 20 3 11 1 20 -4 20 -5 0 -9
-9 -9 -20z"/>
<path d="M9550 2761 c0 -24 29 -34 61 -23 l24 9 -23 7 c-12 4 -22 12 -22 17 0
5 -9 9 -20 9 -13 0 -20 -7 -20 -19z"/>
<path d="M9470 2736 c0 -6 -7 -23 -14 -38 -13 -24 -13 -28 0 -28 8 0 14 -9 14
-19 0 -11 5 -23 10 -26 6 -4 10 7 10 24 0 26 4 31 25 31 18 0 25 5 25 20 0 11
-6 19 -12 18 -7 -2 -12 4 -10 13 2 12 -5 17 -23 17 -14 0 -25 -6 -25 -12z"/>
<path d="M10715 2730 c3 -5 10 -10 16 -10 5 0 9 5 9 10 0 6 -7 10 -16 10 -8 0
-12 -4 -9 -10z"/>
<path d="M9290 2675 l0 -55 31 2 c28 2 54 18 29 18 -6 0 -20 20 -31 45 -11 25
-22 45 -24 45 -3 0 -5 -25 -5 -55z"/>
<path d="M9665 2720 c3 -5 11 -10 16 -10 6 0 7 5 4 10 -3 6 -11 10 -16 10 -6
0 -7 -4 -4 -10z"/>
<path d="M8774 2694 c3 -9 6 -18 6 -20 0 -2 5 -4 10 -4 6 0 10 9 10 20 0 12
-7 20 -16 20 -11 0 -14 -5 -10 -16z"/>
<path d="M8582 2623 c35 -43 73 -88 86 -100 27 -27 56 -21 46 10 -5 17 -3 19
15 14 12 -3 19 -1 15 4 -6 10 -9 25 -19 79 l-6 35 17 -30 18 -30 6 25 c12 43
-32 92 -45 50 -3 -11 -10 -18 -15 -15 -18 11 -20 -15 -5 -45 23 -44 12 -63
-11 -21 -11 18 -28 45 -40 59 -17 21 -23 23 -41 13 -30 -15 -51 -15 -35 1 20
20 14 28 -19 28 l-30 0 63 -77z"/>
<path d="M8480 2673 c0 -25 28 -63 46 -63 13 0 12 5 -3 31 -25 43 -43 57 -43
32z"/>
<path d="M9608 2670 c36 -22 52 -25 52 -10 0 11 -8 15 -55 25 l-30 6 33 -21z"/>
<path d="M8962 2583 c3 -31 32 -43 41 -18 9 23 -3 45 -25 45 -15 0 -19 -6 -16
-27z"/>
<path d="M9510 2596 c0 -8 11 -18 25 -22 25 -6 35 -24 14 -24 -6 0 -9 -6 -6
-12 2 -7 11 -12 21 -10 9 2 16 -2 16 -8 0 -5 7 -10 16 -10 13 0 14 3 4 15 -6
8 -9 19 -5 24 11 19 -13 48 -37 46 -13 -1 -29 2 -35 8 -9 7 -13 5 -13 -7z"/>
<path d="M9620 2601 c0 -19 23 -71 31 -71 13 0 11 54 -3 68 -14 14 -28 16 -28
3z"/>
<path d="M8772 2559 c2 -26 8 -35 26 -37 31 -5 29 28 -4 52 l-25 18 3 -33z"/>
<path d="M8514 2554 c4 -15 10 -39 13 -55 5 -25 8 -27 35 -22 28 6 30 5 19
-16 -18 -32 2 -25 28 10 23 31 23 31 3 51 -11 11 -39 29 -62 39 l-42 19 6 -26z"/>
<path d="M9330 2534 c0 -8 5 -12 10 -9 6 3 10 10 10 16 0 5 -4 9 -10 9 -5 0
-10 -7 -10 -16z"/>
<path d="M9740 2520 c0 -17 7 -45 16 -62 13 -24 14 -36 5 -56 -14 -29 -6 -42
12 -19 6 9 21 15 32 12 11 -2 23 -4 27 -4 3 -1 4 -10 1 -21 -6 -23 0 -25 28
-10 33 18 23 -19 -11 -38 -32 -18 -39 -32 -16 -32 17 0 46 -43 46 -68 0 -10 8
-26 18 -35 25 -23 54 -22 50 1 -2 12 5 18 25 20 33 4 33 9 -2 97 -23 55 -33
70 -50 71 -12 1 -23 3 -24 5 -30 53 -30 52 -13 64 9 7 16 15 16 19 0 14 -21 4
-53 -24 -30 -26 -36 -28 -47 -15 -7 8 -10 22 -6 30 3 8 1 15 -5 15 -14 0 -28
43 -18 56 6 8 4 14 -7 18 -23 9 -24 8 -24 -24z m190 -230 c0 -5 -4 -10 -9 -10
-6 0 -13 5 -16 10 -3 6 1 10 9 10 9 0 16 -4 16 -10z"/>
<path d="M10200 2541 c0 -6 5 -13 10 -16 6 -3 10 1 10 9 0 9 -4 16 -10 16 -5
0 -10 -4 -10 -9z"/>
<path d="M9673 2506 c4 -10 7 -26 7 -37 0 -10 4 -19 8 -19 12 0 2 59 -11 67
-7 4 -8 0 -4 -11z"/>
<path d="M9325 2500 c-7 -11 34 -80 48 -80 4 0 7 11 7 25 0 18 -4 23 -15 19
-10 -4 -15 0 -15 14 0 24 -16 37 -25 22z"/>
<path d="M9590 2485 c0 -8 5 -15 10 -15 6 0 10 -15 10 -34 0 -19 5 -38 10 -41
17 -10 12 72 -6 89 -19 20 -24 20 -24 1z"/>
<path d="M9410 2470 c0 -5 5 -10 10 -10 6 0 10 5 10 10 0 6 -4 10 -10 10 -5 0
-10 -4 -10 -10z"/>
<path d="M9052 2420 c10 -31 25 -46 35 -37 9 9 -21 67 -34 67 -9 0 -9 -7 -1
-30z"/>
<path d="M10677 2443 c-14 -13 -6 -33 13 -33 22 0 23 1 14 24 -7 17 -16 20
-27 9z"/>
<path d="M9440 2409 c0 -18 -2 -19 -15 -9 -13 11 -14 8 -9 -21 4 -19 13 -49
22 -67 14 -31 16 -32 31 -17 13 13 13 17 3 24 -9 5 -11 17 -6 34 7 31 -2 77
-16 77 -6 0 -10 -10 -10 -21z"/>
<path d="M9530 2391 c16 -31 32 -36 18 -7 -6 14 -15 26 -20 26 -5 0 -4 -9 2
-19z"/>
<path d="M9073 2363 c-20 -7 -15 -31 8 -38 11 -4 23 -4 26 -2 9 10 -21 44 -34
40z"/>
<path d="M9171 2329 c-7 -23 -15 -47 -18 -55 -3 -9 1 -14 12 -14 11 0 15 6 11
18 -3 9 -2 23 3 31 7 11 13 7 25 -18 9 -17 19 -31 21 -31 8 0 -6 53 -16 65 -5
5 -9 17 -9 27 0 32 -17 19 -29 -23z"/>
<path d="M8698 2343 c-24 -6 -23 -20 2 -28 24 -8 40 1 40 21 0 14 -10 16 -42
7z"/>
<path d="M8984 2327 c-10 -28 0 -52 22 -50 30 3 89 -89 74 -117 -14 -25 6 -59
31 -53 11 3 19 -2 24 -16 7 -24 27 -27 45 -6 19 23 3 54 -28 52 -21 -2 -26 2
-24 16 2 9 -4 27 -13 39 -8 13 -15 29 -15 38 -1 28 -37 64 -67 66 -18 0 -28 6
-28 17 0 23 -14 32 -21 14z"/>
<path d="M9309 2323 c-1 -10 0 -26 1 -36 1 -10 -7 -25 -17 -32 -17 -13 -17
-14 0 -20 44 -18 79 38 51 80 -19 29 -34 32 -35 8z"/>
<path d="M9496 2331 c-4 -7 -5 -15 -2 -18 9 -9 19 4 14 18 -4 11 -6 11 -12 0z"/>
<path d="M10010 2323 c0 -21 46 -123 56 -123 3 0 3 7 0 16 -4 9 -1 32 6 50 13
38 3 56 -39 69 -18 5 -23 2 -23 -12z"/>
<path d="M8590 2302 c0 -12 19 -26 26 -19 2 2 -2 10 -11 17 -9 8 -15 8 -15 2z"/>
<path d="M9650 2271 c0 -12 5 -21 10 -21 6 0 10 6 10 14 0 8 -4 18 -10 21 -5
3 -10 -3 -10 -14z"/>
<path d="M9115 2270 c-3 -5 -3 -15 1 -21 6 -11 23 6 24 24 0 10 -18 9 -25 -3z"/>
<path d="M8748 2263 c-12 -21 -17 -62 -8 -68 18 -11 32 5 19 22 -10 12 -10 16
2 23 10 7 11 12 3 20 -7 7 -14 8 -16 3z"/>
<path d="M9390 2240 c0 -17 37 -53 50 -48 7 2 1 14 -14 31 -27 29 -36 33 -36
17z"/>
<path d="M9162 2221 c-10 -6 -7 -12 11 -24 19 -12 28 -13 47 -4 28 14 38 37
17 37 -9 0 -18 -6 -21 -12 -5 -10 -7 -10 -12 0 -7 14 -23 15 -42 3z"/>
<path d="M8704 2145 c-4 -16 -2 -31 6 -38 10 -10 11 -6 8 15 -3 15 0 29 5 31
7 2 7 6 -1 11 -7 4 -14 -3 -18 -19z"/>
<path d="M8975 2123 c0 -28 5 -48 13 -51 6 -2 12 3 12 12 0 9 5 16 10 16 17 0
11 36 -8 53 -10 10 -21 17 -23 17 -3 0 -4 -21 -4 -47z"/>
<path d="M8865 2146 c-17 -12 -18 -17 -7 -40 7 -15 10 -38 7 -52 -3 -13 -7
-35 -10 -49 -3 -14 -10 -24 -16 -22 -6 1 -13 -15 -15 -36 l-5 -38 26 17 c14 9
26 26 26 38 1 17 2 17 6 4 2 -10 11 -18 19 -18 22 0 17 -16 -12 -39 -26 -20
-26 -21 -5 -21 12 0 31 5 42 10 27 15 26 80 -1 105 -24 21 -25 38 -5 55 14 12
17 90 3 90 -3 0 -12 2 -20 5 -7 3 -22 -1 -33 -9z"/>
<path d="M9346 2141 c-12 -5 -15 -10 -9 -14 6 -4 16 0 23 8 14 17 13 17 -14 6z"/>
<path d="M8747 2056 c-6 -58 0 -96 14 -96 11 0 12 121 0 138 -5 9 -10 -7 -14
-42z"/>
<path d="M9224 2090 c-24 -10 -38 -36 -23 -46 5 -3 21 6 35 21 34 37 31 43
-12 25z"/>
<path d="M9035 2041 c-10 -17 11 -21 31 -6 18 14 18 14 -3 15 -12 0 -24 -4
-28 -9z"/>
<path d="M9002 2000 c-18 -30 2 -68 34 -62 13 2 24 7 24 9 0 6 -40 73 -43 73
-1 0 -8 -9 -15 -20z"/>
<path d="M9124 1985 c-1 -16 3 -24 10 -22 16 5 20 47 4 47 -7 0 -14 -11 -14
-25z"/>
<path d="M8706 1891 c-8 -13 4 -43 16 -39 5 2 9 7 9 11 -1 4 -1 14 -1 22 0 17
-16 20 -24 6z"/>
<path d="M8800 1879 c0 -5 5 -7 10 -4 6 3 10 8 10 11 0 2 -4 4 -10 4 -5 0 -10
-5 -10 -11z"/>
<path d="M12941 1033 c-46 -9 -98 -51 -120 -96 -60 -123 22 -260 156 -260 141
0 221 163 139 282 -38 55 -112 86 -175 74z m120 -36 c51 -33 82 -100 75 -161
-10 -89 -74 -146 -164 -146 -122 0 -198 129 -140 240 32 61 77 90 143 90 37 0
62 -6 86 -23z"/>
<path d="M12940 870 c-18 -23 -30 -43 -27 -46 3 -3 15 10 28 28 12 18 24 35
26 37 2 2 19 -13 39 -35 l36 -39 -33 48 c-18 26 -33 47 -35 47 -1 0 -17 -18
-34 -40z"/>
<path d="M2422 950 c-45 -27 -85 -105 -138 -265 -91 -273 -142 -369 -192 -363
-56 6 -38 105 54 299 76 160 85 198 56 227 -63 63 -156 -76 -209 -313 -45
-206 -103 -315 -167 -315 -25 0 -19 48 14 118 49 104 34 154 -33 114 -36 -21
-79 -100 -102 -186 -16 -66 -22 -178 -11 -213 9 -28 43 -30 92 -7 34 16 144
127 144 145 0 19 18 8 24 -14 6 -27 40 -44 76 -39 13 2 52 32 87 68 52 53 64
61 69 47 30 -92 43 -81 118 90 31 71 51 74 60 10 6 -49 29 -83 54 -83 39 0 96
27 139 65 40 36 49 40 61 29 31 -32 114 -9 179 50 39 34 40 35 56 16 9 -11 24
-20 34 -20 31 0 103 42 157 91 85 78 79 119 -9 64 -41 -25 -80 -32 -90 -16 -3
6 4 36 15 68 22 64 19 93 -11 93 -18 0 -20 4 -14 30 20 92 -120 77 -216 -23
-46 -48 -56 -64 -114 -192 -57 -126 -101 -156 -143 -98 l-20 27 68 63 c107 99
129 191 51 208 -36 8 -112 -23 -155 -63 l-29 -27 7 29 c4 16 28 65 53 109 55
94 69 168 36 185 -15 8 -27 6 -51 -8z m438 -287 c0 -5 -11 -29 -24 -54 -12
-26 -26 -55 -30 -65 -17 -50 -36 -66 -81 -68 -16 -1 -21 6 -23 39 -2 32 3 47
29 78 40 49 129 97 129 70z m-363 -60 c9 -22 -54 -79 -103 -92 -21 -6 -40 -8
-43 -5 -3 2 3 19 12 37 34 61 119 100 134 60z"/>
<path d="M3928 933 c7 -3 16 -2 19 1 4 3 -2 6 -13 5 -11 0 -14 -3 -6 -6z"/>
<path d="M3889 913 c-13 -16 -12 -17 4 -4 16 13 21 21 13 21 -2 0 -10 -8 -17
-17z"/>
<path d="M4032 873 c-2 -60 -1 -63 21 -62 16 1 17 3 5 6 -13 3 -18 18 -21 61
l-3 57 -2 -62z"/>
<path d="M4080 926 c0 -2 8 -10 18 -17 15 -13 16 -12 3 4 -13 16 -21 21 -21
13z"/>
<path d="M4423 875 c0 -33 2 -45 4 -27 2 18 2 45 0 60 -2 15 -4 0 -4 -33z"/>
<path d="M4491 873 l-1 -63 33 1 c30 2 30 2 5 6 -22 3 -28 10 -28 28 0 18 6
25 28 28 l27 4 -27 2 c-21 1 -28 7 -31 29 -2 15 -5 -1 -6 -35z"/>
<path d="M4671 914 c0 -11 3 -14 6 -6 3 7 2 16 -1 19 -3 4 -6 -2 -5 -13z"/>
<path d="M5842 868 l2 -63 3 53 c3 37 7 50 16 45 7 -4 6 0 -2 10 -7 9 -15 17
-17 17 -2 0 -3 -28 -2 -62z"/>
<path d="M6022 910 c0 -14 2 -19 5 -12 2 6 2 18 0 25 -3 6 -5 1 -5 -13z"/>
<path d="M6193 880 c0 -30 2 -43 4 -27 2 15 2 39 0 55 -2 15 -4 2 -4 -28z"/>
<path d="M8070 926 c0 -2 8 -10 18 -17 15 -13 16 -12 3 4 -13 16 -21 21 -21
13z"/>
<path d="M8590 910 c-6 -11 -8 -20 -6 -20 3 0 10 9 16 20 6 11 8 20 6 20 -3 0
-10 -9 -16 -20z"/>
<path d="M8653 875 c0 -33 2 -45 4 -27 2 18 2 45 0 60 -2 15 -4 0 -4 -33z"/>
<path d="M4220 873 c-3 -29 -1 -48 3 -44 5 5 7 28 5 52 l-3 44 -5 -52z"/>
<path d="M6420 906 c0 -8 4 -17 9 -20 5 -4 7 3 4 14 -6 23 -13 26 -13 6z"/>
<path d="M4671 866 c-1 -25 -3 -27 -18 -15 -13 11 -13 8 2 -13 18 -23 20 -24
23 -7 2 10 1 29 -1 42 -4 18 -5 17 -6 -7z"/>
<path d="M7982 870 c0 -14 2 -19 5 -12 2 6 2 18 0 25 -3 6 -5 1 -5 -13z"/>
<path d="M6033 873 c9 -2 25 -2 35 0 9 3 1 5 -18 5 -19 0 -27 -2 -17 -5z"/>
<path d="M8253 873 c9 -2 25 -2 35 0 9 3 1 5 -18 5 -19 0 -27 -2 -17 -5z"/>
<path d="M8332 845 c0 -16 2 -22 5 -12 2 9 2 23 0 30 -3 6 -5 -1 -5 -18z"/>
<path d="M4260 853 c0 -6 8 -17 18 -24 16 -13 16 -13 2 6 -8 11 -16 22 -17 24
-2 2 -3 0 -3 -6z"/>
<path d="M6250 853 c0 -15 18 -35 23 -27 3 5 -1 15 -9 22 -8 7 -14 9 -14 5z"/>
<path d="M8157 842 c1 -8 3 -16 3 -18 0 -3 5 -2 10 1 6 3 10 11 10 16 0 6 -4
8 -9 5 -5 -4 -11 -3 -14 1 -2 5 -2 2 0 -5z"/>
<path d="M3880 846 c0 -2 8 -10 18 -17 15 -13 16 -12 3 4 -13 16 -21 21 -21
13z"/>
<path d="M8370 846 c0 -2 8 -10 18 -17 15 -13 16 -12 3 4 -13 16 -21 21 -21
13z"/>
<path d="M3830 836 c0 -2 8 -10 18 -17 15 -13 16 -12 3 4 -13 16 -21 21 -21
13z"/>
<path d="M4162 824 c9 -9 21 -15 27 -13 6 2 -2 10 -17 17 -25 11 -25 11 -10
-4z"/>
<path d="M5915 830 c3 -5 8 -10 11 -10 2 0 4 5 4 10 0 6 -5 10 -11 10 -5 0 -7
-4 -4 -10z"/>
<path d="M6132 824 c9 -9 21 -15 27 -13 6 2 -2 10 -17 17 -25 11 -25 11 -10
-4z"/>
<path d="M6340 829 c0 -5 5 -7 10 -4 6 3 10 8 10 11 0 2 -4 4 -10 4 -5 0 -10
-5 -10 -11z"/>
<path d="M6029 817 c5 -5 21 -7 37 -5 27 3 26 4 -8 9 -22 3 -34 1 -29 -4z"/>
<path d="M6427 818 c2 -5 13 -8 23 -8 10 0 21 3 23 8 3 4 -8 7 -23 7 -15 0
-26 -3 -23 -7z"/>
<path d="M3928 813 c6 -2 18 -2 25 0 6 3 1 5 -13 5 -14 0 -19 -2 -12 -5z"/>
<path d="M4308 813 c6 -2 18 -2 25 0 6 3 1 5 -13 5 -14 0 -19 -2 -12 -5z"/>
<path d="M8028 813 c6 -2 18 -2 25 0 6 3 1 5 -13 5 -14 0 -19 -2 -12 -5z"/>
<path d="M8253 813 c9 -2 25 -2 35 0 9 3 1 5 -18 5 -19 0 -27 -2 -17 -5z"/>
<path d="M8708 813 c7 -3 16 -2 19 1 4 3 -2 6 -13 5 -11 0 -14 -3 -6 -6z"/>
<path d="M1669 770 c-65 -18 -137 -74 -195 -152 -23 -32 -44 -64 -47 -70 -3
-9 -12 -3 -26 15 -30 37 -70 36 -114 -3 l-34 -30 -7 71 c-12 129 -45 169 -122
147 -123 -33 -281 -238 -370 -478 -40 -106 -48 -157 -31 -190 32 -63 84 -22
118 94 61 212 146 356 210 356 18 0 32 -7 39 -19 23 -45 2 -180 -60 -376 -18
-55 -34 -108 -37 -117 -5 -16 3 -18 65 -18 59 0 72 3 76 18 3 9 17 73 32 142
27 130 51 184 86 195 51 17 54 -51 9 -189 -16 -50 -34 -108 -40 -128 l-9 -38
63 0 c71 0 69 -2 80 85 11 82 55 246 82 307 27 60 61 92 87 82 23 -9 21 -22
-35 -186 -32 -95 -52 -175 -56 -219 l-6 -69 86 0 85 0 -5 93 c-7 114 11 213
68 370 94 259 93 255 82 280 -13 28 -37 37 -74 27z"/>
<path d="M1800 610 c-39 -39 -16 -80 44 -80 14 0 35 -9 45 -19 21 -21 31 -15
44 21 9 24 -11 76 -33 88 -31 16 -79 11 -100 -10z"/>
<path d="M3690 461 c0 -25 6 -27 13 -6 4 8 2 17 -3 20 -6 4 -10 -3 -10 -14z"/>
<path d="M6510 425 c0 -27 2 -46 5 -43 8 8 9 77 2 85 -4 3 -7 -15 -7 -42z"/>
<path d="M9287 447 c-3 -8 -1 -20 4 -28 6 -10 9 -7 9 14 0 29 -5 35 -13 14z"/>
<path d="M6012 426 c7 -8 15 -12 17 -11 5 6 -10 25 -20 25 -5 0 -4 -6 3 -14z"/>
<path d="M6130 430 c8 -5 20 -10 25 -10 6 0 3 5 -5 10 -8 5 -19 10 -25 10 -5
0 -3 -5 5 -10z"/>
<path d="M6838 433 c7 -3 16 -2 19 1 4 3 -2 6 -13 5 -11 0 -14 -3 -6 -6z"/>
<path d="M8370 436 c0 -2 9 -6 20 -9 11 -3 18 -1 14 4 -5 9 -34 13 -34 5z"/>
<path d="M9422 426 c7 -8 15 -12 17 -11 5 6 -10 25 -20 25 -5 0 -4 -6 3 -14z"/>
<path d="M9516 431 c-4 -5 3 -7 14 -4 23 6 26 13 6 13 -8 0 -17 -4 -20 -9z"/>
<path d="M3692 405 c0 -16 2 -22 5 -12 2 9 2 23 0 30 -3 6 -5 -1 -5 -18z"/>
<path d="M8718 400 c2 -16 6 -30 8 -30 2 0 4 14 4 30 0 17 -4 30 -8 30 -5 0
-7 -13 -4 -30z"/>
<path d="M6325 411 c-3 -5 -2 -12 3 -15 5 -3 9 1 9 9 0 17 -3 19 -12 6z"/>
<path d="M8351 404 c0 -11 3 -14 6 -6 3 7 2 16 -1 19 -3 4 -6 -2 -5 -13z"/>
<path d="M6908 403 c7 -3 16 -2 19 1 4 3 -2 6 -13 5 -11 0 -14 -3 -6 -6z"/>
<path d="M8610 384 l-25 -14 28 2 c15 1 27 8 27 15 0 7 -1 13 -2 12 -2 -1 -14
-7 -28 -15z"/>
<path d="M6228 378 c5 -5 16 -8 23 -6 8 3 3 7 -10 11 -17 4 -21 3 -13 -5z"/>
<path d="M6618 378 c5 -5 16 -8 23 -6 8 3 3 7 -10 11 -17 4 -21 3 -13 -5z"/>
<path d="M9518 378 c5 -5 16 -8 23 -6 8 3 3 7 -10 11 -17 4 -21 3 -13 -5z"/>
<path d="M8128 373 c7 -3 16 -2 19 1 4 3 -2 6 -13 5 -11 0 -14 -3 -6 -6z"/>
<path d="M5831 174 c0 -11 3 -14 6 -6 3 7 2 16 -1 19 -3 4 -6 -2 -5 -13z"/>
<path d="M6270 186 c0 -2 9 -6 20 -9 11 -3 18 -1 14 4 -5 9 -34 13 -34 5z"/>
<path d="M6358 183 c7 -3 16 -2 19 1 4 3 -2 6 -13 5 -11 0 -14 -3 -6 -6z"/>
<path d="M6588 183 c7 -3 16 -2 19 1 4 3 -2 6 -13 5 -11 0 -14 -3 -6 -6z"/>
<path d="M3690 166 c0 -2 7 -6 15 -10 8 -3 15 -1 15 4 0 6 -7 10 -15 10 -8 0
-15 -2 -15 -4z"/>
<path d="M6250 154 c0 -8 5 -12 10 -9 6 4 8 11 5 16 -9 14 -15 11 -15 -7z"/>
<path d="M6560 159 c0 -5 9 -9 20 -9 11 0 20 2 20 4 0 2 -9 6 -20 9 -11 3 -20
1 -20 -4z"/>
<path d="M4122 130 c0 -19 2 -27 5 -17 2 9 2 25 0 35 -3 9 -5 1 -5 -18z"/>
<path d="M6510 156 c0 -2 8 -10 18 -17 15 -13 16 -12 3 4 -13 16 -21 21 -21
13z"/>
<path d="M3870 126 c0 -2 9 -6 20 -9 11 -3 18 -1 14 4 -5 9 -34 13 -34 5z"/>
<path d="M3998 123 c7 -3 16 -2 19 1 4 3 -2 6 -13 5 -11 0 -14 -3 -6 -6z"/>
<path d="M5878 123 c6 -2 18 -2 25 0 6 3 1 5 -13 5 -14 0 -19 -2 -12 -5z"/>
<path d="M6138 123 c7 -3 16 -2 19 1 4 3 -2 6 -13 5 -11 0 -14 -3 -6 -6z"/>
<path d="M8385 120 c-3 -6 1 -7 9 -4 18 7 21 14 7 14 -6 0 -13 -4 -16 -10z"/>
<path d="M8522 116 c7 -8 15 -12 17 -11 5 6 -10 25 -20 25 -5 0 -4 -6 3 -14z"/>
<path d="M8595 121 c11 -4 23 -21 26 -37 l7 -29 1 31 c1 31 -13 45 -42 43 -7
0 -3 -4 8 -8z"/>
<path d="M3712 95 c0 -16 2 -22 5 -12 2 9 2 23 0 30 -3 6 -5 -1 -5 -18z"/>
<path d="M3812 90 c0 -19 2 -27 5 -17 2 9 2 25 0 35 -3 9 -5 1 -5 -18z"/>
<path d="M8708 90 c6 -39 12 -39 12 0 0 17 -4 30 -8 30 -5 0 -7 -13 -4 -30z"/>
<path d="M3970 100 c0 -5 5 -10 11 -10 5 0 7 5 4 10 -3 6 -8 10 -11 10 -2 0
-4 -4 -4 -10z"/>
<path d="M13555 70 c17 -19 19 -19 37 -4 24 23 24 24 -19 24 -36 0 -36 0 -18
-20z"/>
<path d="M3998 63 c7 -3 16 -2 19 1 4 3 -2 6 -13 5 -11 0 -14 -3 -6 -6z"/>
<path d="M8023 63 c9 -2 23 -2 30 0 6 3 -1 5 -18 5 -16 0 -22 -2 -12 -5z"/>
<path d="M8198 63 c6 -2 18 -2 25 0 6 3 1 5 -13 5 -14 0 -19 -2 -12 -5z"/>
</g>
</svg>
