<?xml version="1.0" standalone="no"?>
<!DOCTYPE svg PUBLIC "-//W3C//DTD SVG 20010904//EN"
 "http://www.w3.org/TR/2001/REC-SVG-20010904/DTD/svg10.dtd">
<svg version="1.0" xmlns="http://www.w3.org/2000/svg"
 width="1366.000000pt" height="645.000000pt" viewBox="0 0 1366.000000 645.000000"
 preserveAspectRatio="xMidYMid meet">

<g transform="translate(0.000000,645.000000) scale(0.100000,-0.100000)"
fill="#000000" stroke="none">
<path d="M0 4020 l0 -2430 6745 0 6745 0 0 515 0 515 -22 1 c-13 1 -25 1 -29
1 -8 -1 -370 -15 -399 -15 -14 -1 -51 0 -82 1 l-58 2 0 45 c0 42 2 45 22 41
13 -3 100 -8 194 -11 94 -3 184 -9 201 -14 16 -5 62 -6 101 -3 l72 5 0 1888 0
1889 -6745 0 -6745 0 0 -2430z m1226 2253 c5 -20 0 -40 -20 -76 -24 -44 -25
-47 -6 -37 12 6 35 10 53 8 29 -3 32 -6 30 -37 l-1 -34 23 40 c28 46 78 76
120 71 22 -2 31 -9 33 -25 2 -13 8 -23 13 -23 12 0 12 -37 -1 -61 -8 -15 -7
-19 4 -19 8 0 18 5 21 10 7 12 55 14 55 2 0 -35 -85 -95 -129 -90 -18 1 -37
-4 -49 -16 -11 -10 -38 -19 -59 -19 -21 -1 -50 -10 -64 -20 -40 -27 -82 -27
-94 1 -13 30 -22 28 -35 -12 -15 -48 -38 -66 -55 -43 -11 15 -14 15 -35 -8
-29 -31 -54 -39 -78 -26 -16 9 -26 4 -57 -24 -44 -42 -89 -48 -99 -12 -8 32
13 139 35 176 12 20 30 34 49 37 34 7 30 24 -6 24 -29 0 -41 24 -23 46 8 10
25 14 48 12 31 -3 36 -7 39 -31 2 -16 -3 -36 -10 -45 -17 -21 -52 -121 -45
-128 12 -12 48 69 71 159 28 108 35 124 64 150 25 23 66 19 70 -7 2 -10 -13
-54 -33 -97 -20 -44 -39 -98 -42 -121 l-4 -43 19 23 c11 12 32 55 47 95 53
143 68 178 87 202 26 34 56 32 64 -2z m-387 -92 c8 -14 1 -45 -30 -132 -43
-120 -51 -189 -35 -280 8 -44 7 -46 -22 -58 -39 -16 -66 -3 -81 40 -16 48 -14
80 15 170 14 46 28 90 31 98 3 10 -3 7 -16 -7 -21 -25 -43 -91 -60 -187 -13
-68 -38 -101 -70 -90 -27 8 -28 52 -1 130 11 32 20 70 20 84 0 54 -29 -3 -49
-98 -26 -119 -47 -156 -87 -156 -41 0 -42 28 -4 150 34 111 46 175 36 201 -6
15 -8 15 -27 -2 -28 -25 -48 -64 -79 -154 -22 -67 -28 -75 -52 -78 -39 -5 -45
29 -18 109 73 218 251 353 275 210 6 -38 8 -39 30 -29 18 8 28 8 38 0 11 -9
20 -4 45 26 50 63 122 90 141 53z m11688 -57 c48 -31 57 -106 18 -153 -25 -29
-25 -31 -10 -60 18 -37 19 -51 2 -51 -7 0 -21 16 -30 35 -14 28 -22 35 -46 35
-67 0 -111 44 -111 112 0 86 101 133 177 82z m493 -24 c36 -26 50 -56 50 -108
0 -106 -122 -169 -211 -109 -42 28 -59 60 -59 112 0 112 126 172 220 105z
m-5879 -58 c46 -38 16 -122 -45 -122 -12 0 -32 7 -44 16 -33 23 -28 93 8 111
34 17 54 16 81 -5z m443 -3 c16 -15 -3 -23 -28 -11 -51 23 -89 -40 -44 -72 20
-14 24 -14 46 0 26 17 38 13 29 -10 -9 -23 -64 -30 -92 -12 -65 43 -22 136 55
120 14 -3 29 -10 34 -15z m1450 15 c26 -10 18 -27 -9 -20 -19 5 -25 2 -25 -9
0 -8 11 -21 25 -27 32 -14 35 -63 5 -73 -27 -9 -60 3 -60 22 0 10 5 13 18 8
28 -11 34 -11 39 2 2 6 -10 19 -26 28 -57 29 -27 92 33 69z m460 -15 c17 -13
26 -30 26 -49 0 -31 -39 -70 -70 -70 -31 0 -70 39 -70 70 0 31 39 70 70 70 10
0 29 -9 44 -21z m1522 7 c26 -19 10 -32 -21 -18 -21 10 -28 9 -45 -8 -25 -25
-25 -35 1 -61 19 -19 22 -20 46 -4 27 18 39 14 30 -8 -8 -22 -54 -29 -85 -15
-23 12 -27 19 -27 58 0 37 4 46 25 57 33 17 52 16 76 -1z m788 8 c26 -10 18
-27 -9 -20 -34 9 -33 -16 1 -38 28 -19 30 -52 2 -69 -22 -15 -77 8 -60 25 8 8
15 8 25 0 8 -7 17 -9 20 -5 14 13 6 30 -18 41 -53 25 -16 87 39 66z m-4929
-39 c0 -23 -5 -31 -22 -33 -17 -3 -23 -10 -23 -28 0 -15 -6 -24 -15 -24 -12 0
-15 13 -15 61 l0 60 38 -3 c34 -3 37 -6 37 -33z m115 20 c11 -13 11 -20 0 -40
-12 -22 -11 -27 5 -45 17 -19 17 -20 1 -20 -10 0 -26 10 -37 23 l-18 22 -1
-22 c0 -13 -4 -23 -10 -23 -6 0 -10 27 -10 60 0 59 0 60 29 60 16 0 34 -7 41
-15z m294 -1 c39 -38 7 -104 -51 -104 l-33 0 0 60 0 60 34 0 c19 0 42 -7 50
-16z m78 -31 c2 -36 7 -49 21 -51 14 -3 17 4 17 47 0 39 4 51 15 51 11 0 15
-12 15 -49 0 -73 -39 -103 -82 -64 -23 21 -26 113 -4 113 11 0 16 -14 18 -47z
m338 37 c0 -5 -7 -10 -15 -10 -11 0 -15 -12 -15 -50 0 -38 -4 -50 -15 -50 -11
0 -15 12 -15 50 0 38 -4 50 -15 50 -8 0 -15 5 -15 10 0 6 20 10 45 10 25 0 45
-4 45 -10z m110 0 c0 -5 -11 -10 -25 -10 -16 0 -25 -6 -25 -15 0 -9 9 -15 25
-15 14 0 25 -4 25 -10 0 -5 -11 -10 -25 -10 -16 0 -25 -6 -25 -15 0 -9 9 -15
25 -15 14 0 25 -4 25 -10 0 -5 -18 -10 -40 -10 l-40 0 0 60 0 60 40 0 c22 0
40 -4 40 -10z m93 -27 l27 -38 0 38 c0 26 4 37 15 37 12 0 15 -13 15 -60 0
-70 -12 -76 -52 -28 l-27 33 -1 -32 c0 -23 -5 -33 -15 -33 -12 0 -15 13 -15
60 0 72 14 78 53 23z m450 0 l27 -38 0 38 c0 26 4 37 15 37 12 0 15 -13 15
-60 0 -70 -12 -76 -52 -28 l-27 33 -1 -32 c0 -23 -5 -33 -15 -33 -12 0 -15 13
-15 60 0 72 14 78 53 23z m127 -23 c0 -47 -3 -60 -15 -60 -12 0 -15 13 -15 60
0 47 3 60 15 60 12 0 15 -13 15 -60z m115 50 c-3 -5 -15 -10 -26 -10 -10 0
-19 -7 -19 -15 0 -9 9 -15 25 -15 14 0 25 -4 25 -10 0 -5 -11 -10 -25 -10 -16
0 -25 -6 -25 -15 0 -9 9 -15 25 -15 14 0 25 -4 25 -10 0 -5 -18 -10 -40 -10
l-40 0 0 60 0 60 41 0 c24 0 38 -4 34 -10z m65 -34 c0 -52 22 -79 39 -47 6 11
11 36 11 55 0 20 5 36 10 36 6 0 10 -25 10 -55 0 -43 -4 -56 -19 -65 -28 -14
-38 -13 -61 10 -25 25 -29 110 -5 110 11 0 15 -12 15 -44z m142 8 l12 -35 12
33 c14 44 40 49 49 9 8 -39 22 -40 30 -1 4 17 13 30 21 30 18 0 18 -2 -3 -67
-20 -62 -40 -67 -58 -13 l-12 35 -12 -37 c-7 -21 -18 -38 -25 -38 -7 0 -23 25
-35 56 -25 66 -25 64 -7 64 8 0 21 -16 28 -36z m779 -1 l12 -38 12 35 c6 19
19 36 28 38 14 3 14 -4 -5 -58 -23 -70 -44 -76 -63 -20 -26 77 -27 80 -11 80
8 0 20 -16 27 -37z m169 27 c0 -5 -11 -10 -25 -10 -16 0 -25 -6 -25 -15 0 -9
9 -15 25 -15 14 0 25 -4 25 -10 0 -5 -11 -10 -25 -10 -16 0 -25 -6 -25 -15 0
-9 9 -15 25 -15 14 0 25 -4 25 -10 0 -5 -18 -10 -40 -10 l-40 0 0 60 0 60 40
0 c22 0 40 -4 40 -10z m115 -10 c4 -12 1 -27 -5 -35 -10 -12 -9 -20 4 -40 19
-29 3 -35 -26 -8 -17 15 -18 15 -18 0 0 -10 -7 -17 -15 -17 -12 0 -15 13 -15
60 l0 60 34 0 c26 0 36 -5 41 -20z m166 -21 l20 -41 21 41 c30 61 48 54 48
-19 0 -47 -3 -60 -15 -60 -10 0 -15 10 -15 28 l-1 27 -15 -27 c-8 -16 -19 -28
-24 -28 -5 0 -16 12 -24 28 l-15 27 -1 -27 c0 -18 -5 -28 -15 -28 -12 0 -15
13 -15 60 0 73 19 81 51 19z m159 -19 c0 -47 -3 -60 -15 -60 -12 0 -15 13 -15
60 0 47 3 60 15 60 12 0 15 -13 15 -60z m70 10 c0 -47 2 -50 25 -50 14 0 25
-4 25 -10 0 -5 -18 -10 -40 -10 l-40 0 0 60 c0 47 3 60 15 60 11 0 15 -12 15
-50z m110 33 c0 -15 1 -15 18 0 19 17 42 23 42 10 0 -4 -10 -17 -22 -30 l-22
-23 29 -30 c25 -26 26 -30 10 -30 -10 0 -27 7 -37 17 -17 15 -18 15 -18 0 0
-10 -7 -17 -15 -17 -12 0 -15 13 -15 60 0 47 3 60 15 60 8 0 15 -7 15 -17z
m192 -43 c20 -45 23 -60 13 -60 -8 0 -19 9 -25 20 -6 11 -19 20 -30 20 -11 0
-24 -9 -30 -20 -6 -11 -17 -20 -25 -20 -10 0 -7 15 13 60 16 36 33 60 42 60 9
0 26 -24 42 -60z m594 5 c28 -65 28 -65 10 -65 -8 0 -18 9 -21 20 -4 12 -15
20 -30 20 -14 0 -25 -7 -28 -20 -4 -17 -37 -30 -37 -15 0 18 57 115 68 115 7
0 24 -25 38 -55z m142 43 c7 -7 12 -28 12 -48 0 -46 -15 -60 -62 -60 l-38 0 0
60 0 60 38 0 c21 0 43 -5 50 -12z m122 2 c0 -5 -9 -10 -20 -10 -11 0 -20 -7
-20 -15 0 -9 10 -15 26 -15 14 0 23 -4 19 -10 -3 -5 -15 -10 -26 -10 -10 0
-19 -7 -19 -15 0 -9 9 -15 25 -15 14 0 25 -4 25 -10 0 -5 -18 -10 -40 -10
l-40 0 0 60 0 60 35 0 c19 0 35 -4 35 -10z m136 -45 c28 -65 28 -65 10 -65 -8
0 -18 9 -21 20 -4 12 -15 20 -30 20 -14 0 -25 -7 -28 -20 -4 -17 -37 -30 -37
-15 0 18 57 115 68 115 7 0 24 -25 38 -55z m74 12 c0 -24 5 -48 12 -55 20 -20
38 6 38 54 0 24 5 44 10 44 6 0 10 -25 10 -55 0 -43 -4 -56 -19 -65 -28 -14
-38 -13 -61 10 -25 25 -29 110 -5 110 11 0 15 -11 15 -43z m-8776 -679 c-24
-92 -54 -259 -69 -388 -23 -197 -17 -516 12 -614 5 -17 -1 -18 -128 -11 -74 4
-141 9 -149 10 -8 2 -75 6 -147 10 -73 4 -131 10 -129 14 2 3 -26 5 -64 3 -57
-3 -69 -7 -73 -23 -6 -22 -3 -22 -272 -9 -104 6 -206 14 -225 19 -19 5 -29 9
-22 10 6 1 12 5 12 11 0 5 -13 7 -30 4 -17 -4 -30 -2 -30 3 0 6 -22 8 -52 6
-45 -3 -50 -2 -30 8 12 7 22 15 22 19 0 14 -33 21 -40 9 -5 -7 -31 -9 -84 -4
-64 6 -76 10 -76 25 0 10 8 20 18 22 9 3 -19 2 -62 0 -71 -4 -79 -3 -73 12 8
19 -33 41 -44 24 -4 -6 -18 -4 -37 6 -17 9 -39 16 -50 16 -10 0 -27 6 -37 14
-12 8 -32 12 -50 9 -23 -4 -42 2 -69 21 -21 14 -46 28 -57 31 -10 4 -19 13
-19 21 0 9 -18 23 -40 32 -25 11 -40 24 -40 35 0 9 -5 17 -11 17 -14 0 -69 55
-69 69 0 6 -5 11 -11 11 -14 0 -69 55 -69 69 0 6 -8 11 -18 11 -11 0 -22 12
-30 33 -7 19 -30 53 -52 77 -34 37 -40 50 -40 87 0 39 -2 43 -25 43 -22 0 -25
4 -25 40 0 22 -4 40 -10 40 -5 0 -10 18 -10 39 0 22 -4 41 -9 43 -5 2 -11 28
-12 58 l-3 55 -55 6 c-31 3 541 6 1271 7 l1326 2 -14 -52z m2349 -2 c225 -196
522 -378 833 -511 130 -56 448 -162 603 -202 l111 -28 0 -62 c0 -35 -2 -63 -4
-63 -2 0 -32 13 -68 29 -111 51 -124 50 -192 -9 -32 -28 -74 -59 -94 -70 -21
-11 -46 -27 -58 -35 -19 -14 -28 -10 -133 50 -62 36 -145 89 -185 118 -39 30
-91 65 -116 80 -49 28 -223 97 -245 97 -8 0 -47 -28 -87 -61 -40 -34 -118 -92
-173 -130 -55 -38 -119 -82 -142 -99 l-43 -31 -82 20 c-46 11 -114 32 -153 45
-63 23 -71 24 -82 10 -6 -9 -9 -22 -7 -29 3 -7 -4 -36 -16 -63 -20 -47 -26
-52 -86 -76 -35 -14 -70 -26 -77 -26 -7 0 -23 -9 -35 -20 -12 -12 -42 -29 -67
-40 -36 -15 -45 -24 -45 -44 0 -14 -4 -28 -10 -31 -5 -3 -10 -14 -10 -24 0
-24 -78 -181 -90 -181 -6 0 -4 -13 5 -30 16 -31 9 -38 -24 -21 -13 7 -31 3
-65 -14 -26 -13 -48 -23 -49 -23 -1 0 -19 -7 -41 -16 -21 -9 -44 -16 -52 -16
-7 0 -16 -5 -19 -10 -7 -12 -57 -2 -67 14 -5 7 -8 6 -8 -3 0 -8 -3 -11 -7 -7
-5 4 -20 -18 -36 -51 -15 -32 -25 -49 -23 -38 3 11 7 39 11 62 7 46 3 49 -71
59 -22 2 -41 9 -42 15 -3 6 -9 6 -18 -2 -25 -21 -15 2 40 90 165 263 248 555
266 941 8 161 -1 405 -16 466 l-6 24 457 0 457 0 61 -54z m4916 -241 c-2 -292
-2 -295 20 -312 26 -21 47 -132 27 -145 -28 -19 -40 -3 -38 52 2 52 -9 93 -21
74 -2 -5 -1 -54 4 -109 10 -122 11 -261 3 -304 l-6 -31 -172 0 c-94 0 -228 -3
-299 -7 l-127 -6 6 -92 c6 -81 3 -105 -24 -215 -17 -69 -34 -150 -39 -180 l-8
-55 -55 -1 c-30 -1 -65 3 -77 9 -23 10 -86 -10 -77 -25 3 -4 -4 -8 -15 -8 -10
0 -21 5 -23 10 -2 7 -15 6 -36 -2 -20 -8 -30 -18 -27 -26 7 -20 -16 -39 -48
-38 -15 1 -27 -4 -27 -10 0 -15 -23 -24 -65 -24 -36 0 -50 -12 -60 -52 -8 -31
-61 -50 -75 -28 -6 9 -27 11 -74 8 -58 -5 -66 -4 -66 12 0 10 9 20 20 23 22 6
24 14 11 36 -8 12 -21 12 -80 3 -38 -7 -85 -21 -105 -33 -19 -11 -45 -19 -58
-18 -47 4 -67 -2 -97 -30 -19 -17 -31 -39 -31 -54 0 -13 -7 -31 -16 -38 -14
-11 -18 -10 -30 6 -10 13 -11 21 -3 26 6 3 10 10 9 15 -4 23 -25 32 -83 36
-48 4 -71 1 -99 -13 -47 -24 -62 -24 -53 -1 21 51 21 51 -46 45 -56 -5 -62 -4
-56 11 4 9 0 28 -9 41 -14 21 -19 23 -42 12 -15 -6 -40 -20 -56 -31 -33 -22
-107 -37 -148 -29 -43 8 -42 30 2 61 50 35 56 50 29 79 -27 28 -40 29 -62 3
-25 -30 -80 -27 -101 5 -9 14 -22 25 -29 23 -7 -1 -30 2 -52 6 -22 4 -54 9
-71 11 -28 2 -31 0 -29 -24 1 -14 3 -36 3 -49 1 -13 7 -20 12 -17 6 3 10 -3
10 -14 0 -25 22 -36 74 -40 42 -3 120 -33 130 -50 4 -6 18 -11 32 -11 13 0 43
-11 65 -25 22 -14 51 -30 66 -36 21 -8 23 -12 13 -24 -7 -8 -28 -15 -46 -15
-19 0 -34 -3 -34 -7 0 -5 -3 -18 -6 -31 -5 -17 -3 -21 8 -17 9 4 24 -10 41
-36 25 -38 26 -43 12 -59 -22 -25 -73 -15 -81 16 -12 46 -65 26 -68 -26 -1 -8
-14 -21 -30 -28 -15 -8 -37 -23 -47 -33 -18 -18 -34 -19 -189 -18 -94 1 -170
2 -171 3 -7 11 -23 341 -18 365 7 33 31 59 37 41 5 -13 32 0 32 16 0 15 -30
54 -42 54 -5 0 -8 -13 -8 -30 0 -16 -5 -30 -10 -30 -6 0 -10 61 -9 168 2 203
5 212 81 212 54 0 65 -2 193 -44 44 -14 116 -32 159 -41 44 -9 83 -18 87 -20
3 -3 48 2 98 11 77 13 101 14 144 3 61 -14 221 -15 259 0 34 13 154 -10 171
-33 22 -28 67 -37 145 -30 67 6 80 11 111 40 l36 33 -32 1 c-18 0 -33 5 -33
10 0 6 -10 10 -23 10 -13 0 -34 11 -47 25 -13 14 -28 25 -32 25 -5 0 -24 11
-42 25 -18 14 -47 28 -65 31 -38 8 -47 20 -31 39 8 10 9 15 2 15 -6 0 -9 7 -5
16 6 16 -32 64 -52 64 -7 0 -20 8 -29 19 -15 16 -15 19 -2 24 11 4 13 1 9 -11
-5 -14 -3 -15 8 -4 7 6 21 12 32 12 10 0 15 5 12 10 -3 6 -1 10 4 10 6 0 11 4
11 10 0 5 -13 7 -29 4 -22 -5 -34 0 -54 21 l-25 27 5 -25 c4 -19 -2 -33 -20
-51 -35 -34 -80 -34 -114 0 -23 23 -25 31 -20 80 4 36 2 54 -5 54 -6 0 -20 8
-30 17 -33 30 -40 -3 -13 -61 42 -94 59 -126 67 -126 17 0 7 -17 -17 -28 -33
-15 -35 -15 -35 3 0 13 -25 71 -35 83 -3 3 -84 -35 -94 -44 -2 -1 8 -23 22
-48 25 -44 25 -46 7 -56 -26 -14 -40 -12 -40 4 0 20 -70 170 -83 179 -9 5 -6
12 7 22 30 23 43 18 50 -17 11 -59 18 -63 70 -42 51 21 55 34 25 83 -11 18
-19 34 -17 36 2 1 14 8 28 15 23 12 23 14 5 20 -11 4 -35 3 -54 -1 -22 -5 -42
-3 -55 4 -12 6 -43 14 -70 17 -56 6 -71 25 -31 40 32 12 28 31 -9 45 -19 6
-33 6 -47 -4 -27 -16 -76 -5 -90 20 -13 26 -4 39 29 40 23 1 22 3 -8 8 -22 4
-36 13 -40 26 -10 39 -27 57 -55 61 -27 2 -47 23 -51 52 -3 18 -14 28 -14 13
0 -7 -4 -9 -10 -6 -5 3 -10 1 -10 -4 0 -6 -6 -11 -14 -11 -24 0 -29 -20 -10
-35 16 -11 17 -15 4 -30 -13 -16 -12 -19 9 -34 13 -9 38 -21 55 -27 25 -8 32
-17 34 -42 3 -31 2 -32 -37 -32 -31 0 -41 -4 -41 -16 0 -11 6 -13 19 -9 15 5
21 0 26 -24 7 -33 1 -51 -18 -51 -7 0 -23 -7 -35 -16 -17 -12 -20 -19 -12 -34
7 -13 5 -21 -6 -31 -15 -13 -69 -17 -80 -6 -8 8 17 74 36 95 26 29 52 73 46
80 -3 3 -6 1 -6 -5 0 -6 -20 -14 -45 -17 -42 -7 -45 -9 -45 -37 0 -28 -7 -33
-47 -32 -21 1 -15 -18 12 -39 32 -25 33 -58 2 -58 -32 0 -47 18 -47 57 0 26
-5 36 -22 42 -23 8 -48 -7 -48 -29 0 -23 -25 -2 -31 26 -10 45 -10 203 0 222
5 10 5 56 1 107 -5 50 -11 210 -15 358 l-7 267 1461 0 1462 0 -2 -295z m1741
281 c0 -17 -19 -33 -44 -37 -11 -2 -31 -25 -45 -51 -14 -25 -33 -54 -43 -65
-9 -10 -23 -35 -31 -55 -9 -22 -23 -38 -32 -38 -9 0 -29 -10 -45 -22 l-30 -22
-24 23 -24 22 -16 -22 c-9 -13 -16 -33 -16 -44 0 -26 -46 -95 -64 -95 -7 0
-23 11 -36 25 -13 14 -29 25 -36 25 -7 0 -22 -25 -33 -56 -22 -57 -101 -149
-136 -155 -10 -2 -23 -13 -29 -24 -5 -11 -19 -33 -29 -49 l-19 -28 28 -23 c18
-14 25 -27 21 -38 -9 -25 -26 -21 -37 8 -18 48 -70 25 -70 -32 0 -42 37 -71
70 -53 28 15 36 7 15 -14 -18 -18 -67 -21 -95 -6 -23 12 -43 70 -33 96 6 17 5
18 -12 4 -37 -30 -70 -65 -67 -73 1 -5 -1 -6 -6 -3 -5 3 -18 -1 -28 -10 -18
-15 -18 -15 3 -9 12 3 24 1 28 -4 3 -7 0 -8 -9 -5 -19 7 -76 -49 -76 -75 0
-38 -36 -114 -55 -117 -11 -2 -21 -8 -23 -13 -2 -6 -13 -11 -24 -11 -19 0 -19
6 -16 135 l3 135 -30 0 c-50 0 -75 24 -75 74 0 59 34 91 86 83 l36 -6 -7 32
c-4 18 -10 161 -12 320 l-4 287 561 0 c469 0 560 -2 560 -14z m-5966 -146 l21
-55 5 55 c5 51 7 55 33 58 l27 3 0 -120 0 -121 -30 0 c-27 0 -33 6 -54 53
l-24 52 -1 -52 c-1 -52 -2 -53 -31 -53 l-30 0 0 113 c0 63 3 117 7 121 4 4 18
6 32 4 19 -2 28 -14 45 -58z m176 -60 l0 -120 -29 0 -30 0 0 113 c1 61 3 115
6 120 2 4 15 7 29 7 l24 0 0 -120z m158 98 c-2 -17 -11 -24 -30 -26 -20 -2
-28 -9 -28 -22 0 -13 8 -20 28 -22 19 -2 28 -9 30 -25 3 -20 -1 -23 -27 -23
-26 0 -31 -4 -31 -25 0 -18 5 -25 19 -25 33 0 51 -11 51 -31 0 -17 -8 -19 -65
-19 l-65 0 0 120 0 120 61 0 c57 0 60 -1 57 -22z m94 -75 c2 -79 6 -98 18 -98
12 0 16 19 18 98 l3 97 29 0 30 0 0 -90 c0 -106 -15 -145 -58 -155 -39 -8 -80
10 -92 40 -6 15 -10 67 -10 116 l0 89 30 0 29 0 3 -97z m184 37 c8 -70 15 -69
29 3 9 46 14 52 37 55 25 3 27 0 33 -52 7 -55 25 -78 25 -32 0 13 3 38 6 55 6
26 11 31 35 31 16 0 29 -1 29 -3 0 -3 -36 -173 -45 -214 -4 -18 -12 -23 -35
-23 -26 0 -30 4 -36 38 -8 43 -23 77 -24 52 0 -8 -5 -32 -11 -52 -8 -32 -14
-38 -38 -38 -28 0 -28 1 -50 108 -27 135 -27 132 9 132 28 0 29 -2 36 -60z
m6424 -53 c0 -12 -9 -37 -20 -55 l-20 -33 31 17 c28 14 33 14 46 1 13 -13 13
-18 -1 -45 -9 -17 -23 -35 -32 -40 -17 -9 -12 -32 7 -32 6 0 21 24 34 54 39
89 107 124 132 70 8 -17 9 -33 3 -44 -12 -23 -2 -32 22 -19 35 19 34 -2 -1
-33 -23 -20 -40 -28 -55 -24 -11 2 -30 -2 -40 -10 -11 -8 -30 -14 -42 -14 -12
0 -35 -8 -52 -17 -35 -20 -62 -12 -62 19 -1 19 -5 16 -22 -17 -26 -51 -26 -51
-39 -38 -8 8 -17 5 -31 -9 -15 -15 -28 -19 -49 -14 -18 3 -31 1 -36 -7 -13
-22 -55 -46 -69 -40 -28 10 -8 119 28 155 31 31 46 8 24 -38 -9 -20 -14 -39
-11 -43 11 -11 44 39 55 82 24 96 32 118 55 144 19 23 26 26 36 15 11 -10 11
-18 0 -45 -37 -90 -55 -147 -47 -154 14 -14 40 30 70 118 38 110 86 164 86 96z
m-480 -66 c5 -11 10 -28 10 -38 0 -33 60 -21 102 20 23 24 45 37 62 37 33 0
33 -13 -1 -104 -20 -54 -26 -90 -27 -154 -1 -66 -4 -85 -17 -92 -12 -7 -21 -4
-34 10 -23 26 -22 93 5 161 24 64 23 59 6 59 -15 0 -40 -65 -52 -135 -9 -55
-21 -75 -44 -75 -24 0 -25 18 -5 84 8 27 15 58 15 70 0 45 -29 -10 -44 -84
-16 -74 -43 -119 -65 -106 -17 11 -13 43 14 131 39 125 31 174 -19 115 -14
-17 -32 -54 -41 -82 -22 -74 -47 -99 -60 -59 -14 44 74 209 129 242 39 24 53
24 66 0z m268 -63 c4 -32 2 -32 -33 -16 -38 17 -31 52 10 46 13 -2 21 -12 23
-30z m-9209 -90 c5 -18 23 -73 41 -123 44 -126 61 -221 61 -355 0 -132 -24
-274 -71 -416 -32 -96 -41 -110 -75 -116 -46 -8 -152 262 -162 412 -7 110 7
194 59 334 36 101 125 296 133 296 2 0 8 -15 14 -32z m9657 -39 c12 -21 13
-109 0 -109 -21 0 -36 23 -36 56 0 54 18 81 36 53z m-55 -6 c0 -5 3 -34 6 -67
4 -46 2 -57 -8 -54 -19 6 -25 88 -7 88 8 0 6 5 -5 11 -9 6 -15 14 -12 20 7 11
25 12 26 2z m133 -39 c4 -10 2 -13 -6 -8 -6 4 -4 -3 5 -16 13 -19 14 -25 2
-36 -7 -8 -20 -14 -29 -14 -19 0 -34 22 -18 28 8 2 7 10 -4 27 -12 18 -12 24
-2 28 25 10 46 7 52 -9z m-214 -19 c0 -14 5 -25 10 -25 6 0 10 11 10 25 0 41
18 28 22 -16 3 -35 1 -40 -14 -36 -10 3 -16 1 -12 -4 9 -15 -8 -10 -28 8 -22
20 -25 73 -3 73 9 0 15 -9 15 -25z m-2802 -8 c4 -20 -23 -67 -38 -67 -6 0 -5
9 2 20 11 17 10 22 -1 29 -19 12 -6 43 16 39 10 -2 19 -11 21 -21z m2596 -5
c0 -12 3 -22 8 -22 4 0 8 4 8 9 0 15 29 21 55 11 16 -6 25 -6 25 0 0 14 37 31
54 24 34 -13 13 -41 -26 -35 -4 0 -5 -6 -1 -15 3 -8 15 -14 26 -12 30 4 35
-28 7 -37 -16 -5 -29 0 -50 20 l-28 27 1 -34 c2 -30 0 -33 -28 -33 -26 0 -30
4 -30 27 0 34 -15 49 -16 17 -1 -13 -1 -28 0 -32 1 -5 -9 -7 -21 -5 -14 2 -23
-2 -23 -10 0 -28 -71 -45 -79 -19 -3 6 -7 38 -10 70 l-6 57 40 0 c27 0 43 -5
46 -15 9 -22 26 -7 18 17 -5 16 -2 19 13 16 11 -2 18 -12 17 -26z m-2456 -5
c4 -20 -25 -34 -40 -19 -15 15 -1 44 19 40 10 -2 19 -11 21 -21z m-6 -150 c3
-55 2 -57 -22 -57 -24 0 -25 2 -25 67 0 57 3 70 20 80 22 13 22 14 27 -90z
m150 87 c21 -6 38 -55 38 -110 0 -43 -1 -44 -32 -44 -25 0 -29 3 -20 12 18 18
15 103 -4 122 -8 9 -17 16 -19 16 -2 0 -11 -7 -19 -16 -11 -10 -16 -34 -16
-75 0 -32 -3 -59 -7 -59 -5 0 -18 3 -31 6 -17 5 -20 9 -11 20 6 7 9 37 7 69
-1 31 1 57 7 59 15 5 88 5 107 0z m754 -31 c-2 -10 -7 -32 -11 -49 -6 -29 -4
-31 26 -31 47 0 60 -24 57 -106 -3 -67 -3 -68 -28 -62 -32 8 -32 7 -19 42 6
17 9 48 7 70 -2 30 -7 38 -23 38 -24 0 -44 -38 -47 -89 -3 -32 -6 -36 -32 -36
-23 0 -27 3 -21 18 15 33 46 185 41 198 -5 12 11 20 42 23 8 1 11 -6 8 -16z
m193 -124 c37 -13 65 -60 55 -92 -10 -34 -45 -67 -71 -67 -52 0 -92 37 -93 86
0 33 14 55 45 72 25 14 26 14 64 1z m197 -62 c16 -14 24 -29 20 -35 -12 -20
-25 -14 -41 19 -10 19 -22 29 -33 27 -25 -5 -46 -50 -38 -82 8 -32 50 -56 68
-38 19 19 30 14 18 -8 -16 -30 -74 -27 -105 5 -74 73 32 180 111 112z m284 -7
c0 -5 -16 -52 -35 -106 -19 -53 -32 -100 -29 -105 7 -12 -27 -11 -45 0 -11 7
-12 13 -4 23 17 20 70 171 66 186 -3 7 5 12 21 12 14 0 26 -4 26 -10z m-156
-24 c57 -24 68 -105 18 -142 -28 -22 -80 -17 -107 11 -49 48 -19 128 53 144 1
1 18 -5 36 -13z m242 -91 c10 -8 27 -15 36 -15 27 0 29 -14 7 -59 -11 -22 -22
-55 -26 -71 -5 -29 -6 -30 -29 -15 -13 8 -32 15 -44 15 -32 0 -60 35 -60 75 0
66 68 107 116 70z m262 -20 c2 -1 -17 -47 -41 -101 -24 -55 -42 -105 -39 -112
5 -17 -13 -15 -32 3 -8 8 -25 15 -39 15 -53 0 -78 71 -44 124 23 34 63 44 99
23 26 -15 28 -15 38 3 5 10 10 28 10 40 0 18 4 20 23 14 12 -3 23 -8 25 -9z
m-10978 -39 c0 -3 -4 -8 -10 -11 -5 -3 -10 -1 -10 4 0 6 5 11 10 11 6 0 10 -2
10 -4z m207 -12 c-3 -3 -12 -4 -19 -1 -8 3 -5 6 6 6 11 1 17 -2 13 -5z m2148
-163 c-26 -115 -77 -245 -187 -471 -111 -227 -133 -297 -150 -472 -11 -113 -7
-180 18 -343 8 -48 -9 -38 -25 15 -10 31 -10 26 -7 -35 5 -79 16 -121 80 -319
25 -77 44 -141 42 -143 -2 -2 -23 48 -46 112 -23 63 -45 117 -49 119 -4 3 -38
-4 -76 -15 -39 -11 -91 -24 -117 -29 -26 -5 -66 -18 -88 -29 -77 -37 -40 -1
82 80 56 37 91 53 123 57 25 2 48 9 51 13 3 5 -4 47 -16 92 -45 182 -45 387 0
607 30 145 67 239 154 399 101 183 139 269 183 414 38 121 38 122 41 73 2 -27
-4 -84 -13 -125z m-2198 153 c-3 -3 -12 -4 -19 -1 -8 3 -5 6 6 6 11 1 17 -2
13 -5z m-194 -21 c-13 -2 -35 -2 -50 0 -16 2 -5 4 22 4 28 0 40 -2 28 -4z
m11095 -49 c48 -33 17 -80 -48 -71 -27 3 -40 1 -40 -6 0 -25 19 -40 49 -40 24
0 28 -3 20 -14 -17 -19 -53 -16 -83 8 -33 26 -36 84 -6 117 25 26 75 29 108 6z
m-4859 -3 c20 -13 -23 -34 -51 -25 -21 6 -21 7 3 20 29 16 30 16 48 5z m-4759
-19 l64 -7 36 -105 c20 -58 41 -115 48 -127 15 -28 4 -30 -39 -7 -17 8 -37 13
-45 10 -8 -3 -13 -2 -10 3 3 5 -9 14 -27 22 -17 7 -66 31 -107 55 l-75 42
-207 6 c-184 6 -208 5 -208 -9 0 -19 -9 -19 -34 0 -17 13 -18 15 -3 15 14 0
16 7 10 45 l-6 46 149 -6 c82 -3 161 -8 177 -10 24 -4 26 -3 17 15 -5 10 -10
20 -10 22 0 5 193 -2 270 -10z m4665 -2 c3 -5 -1 -10 -9 -10 -9 0 -16 5 -16
10 0 6 4 10 9 10 6 0 13 -4 16 -10z m-6560 -31 c28 -5 122 -12 210 -14 88 -2
168 -5 178 -5 12 -1 17 -9 17 -28 0 -39 -12 -51 -45 -47 -17 1 -35 -1 -41 -6
-8 -6 -18 -4 -28 6 -9 9 -16 11 -16 5 0 -12 -108 -12 -116 1 -2 4 -50 8 -107
8 -56 0 -164 3 -239 7 -125 6 -138 5 -138 -10 0 -14 -3 -15 -22 -5 -19 10 -19
12 -5 21 15 8 15 12 3 37 -25 47 -10 51 153 45 80 -2 169 -9 196 -15z m829
-10 c32 -18 147 -24 157 -8 8 12 11 12 19 -1 6 -10 10 -11 10 -3 0 8 9 11 23
9 12 -3 48 -5 80 -5 47 -1 57 -4 58 -18 1 -17 2 -17 6 0 2 9 9 17 14 17 5 0 9
-8 10 -17 0 -15 2 -15 8 2 7 17 9 16 13 -11 5 -39 -13 -69 -30 -52 -9 9 -12 9
-12 -2 -1 -12 -4 -11 -14 3 -12 15 -14 16 -20 2 -7 -20 -26 -19 -43 3 -10 13
-13 13 -11 2 2 -10 -4 -14 -17 -12 -11 2 -37 3 -57 4 -21 1 -38 5 -38 9 0 4
-42 7 -92 6 -51 -1 -160 0 -243 2 -133 3 -150 1 -155 -14 -6 -16 -7 -16 -20 0
-12 14 -12 18 1 25 11 7 11 12 1 22 -6 6 -12 22 -12 34 0 17 7 23 28 26 50 6
317 -13 336 -23z m5871 -30 c18 -17 -10 -44 -50 -47 -43 -4 -59 7 -49 32 13
33 70 41 99 15z m3385 -78 l0 -29 -247 4 c-137 2 -274 4 -306 4 -34 -1 -65 4
-75 12 -9 7 -13 8 -9 2 4 -7 -3 -10 -21 -8 -15 1 -29 3 -32 4 -3 1 -9 2 -14 1
-15 -3 -108 11 -103 15 2 2 84 7 183 10 98 4 181 8 183 10 2 2 103 4 223 4
l218 0 0 -29z m-853 3 c-3 -3 -12 -4 -19 -1 -8 3 -5 6 6 6 11 1 17 -2 13 -5z
m-9085 -88 c-9 -21 -9 -24 3 -19 8 3 12 10 8 17 -4 7 -1 7 7 -1 9 -8 29 -10
58 -6 30 4 43 3 39 -4 -4 -6 0 -14 9 -17 8 -3 12 -11 8 -17 -4 -8 -3 -9 4 -5
7 4 20 -1 30 -11 26 -25 73 -113 66 -124 -3 -5 0 -9 5 -9 6 0 11 -5 11 -10 0
-6 -17 1 -37 15 -21 14 -42 25 -48 25 -6 0 -27 -14 -47 -31 -31 -24 -44 -29
-70 -24 -28 5 -38 0 -70 -30 -21 -20 -38 -43 -38 -51 0 -23 -64 -46 -93 -35
-14 6 -27 16 -29 23 -4 10 -20 9 -80 -5 -42 -10 -105 -19 -142 -20 l-66 -2 0
-58 c0 -36 -4 -56 -10 -52 -5 3 -10 21 -10 39 0 18 -3 36 -7 39 -17 18 -18 98
-2 165 16 63 29 68 29 10 0 -41 1 -42 13 -18 8 16 20 24 31 22 22 -4 36 14 36
44 0 82 110 198 127 134 7 -26 27 -25 62 1 30 22 51 19 51 -7 0 -8 5 -14 11
-14 5 0 7 6 3 13 -5 9 -4 9 6 0 11 -10 19 -7 40 19 29 34 58 32 40 -3 -19 -34
-3 -20 20 17 15 27 24 34 32 26 9 -9 8 -18 0 -36z m1658 24 c7 -14 7 -20 0
-20 -5 0 -10 -5 -10 -11 0 -6 7 -9 15 -6 8 4 17 1 21 -4 4 -7 10 -7 17 0 16
16 44 13 51 -5 3 -9 12 -14 20 -11 8 3 13 -1 12 -10 -1 -10 11 -16 43 -18 24
-2 48 -10 52 -17 5 -7 9 -9 9 -4 0 5 7 3 15 -4 8 -6 18 -9 22 -7 9 6 46 -43
58 -75 5 -12 0 -17 -17 -20 -15 -2 -23 -10 -23 -22 0 -32 -24 -30 -72 8 -42
33 -83 47 -83 29 0 -5 -16 -19 -35 -32 -24 -16 -42 -21 -60 -17 -20 5 -35 -1
-65 -26 -22 -18 -40 -38 -40 -45 0 -37 -94 -57 -124 -27 -15 14 -23 14 -93 -2
-42 -9 -103 -17 -135 -18 l-58 -1 -1 -65 c-1 -62 -1 -64 -14 -35 -7 16 -10 35
-8 42 3 7 1 19 -5 26 -5 6 -10 19 -10 27 0 8 -4 32 -8 53 -5 26 -3 37 5 37 7
0 10 3 8 8 -3 4 1 30 8 57 l13 50 7 -39 c7 -34 10 -37 20 -23 7 9 15 14 18 11
3 -3 14 -3 25 0 13 5 18 13 15 29 -5 27 29 107 56 131 11 10 19 21 17 25 -2 3
7 7 21 8 17 1 27 -5 30 -18 3 -10 9 -17 13 -14 5 3 12 1 15 -5 4 -6 18 -1 37
15 36 30 48 31 55 5 7 -25 12 -25 29 -2 12 15 13 14 8 -8 -4 -19 0 -16 16 13
21 38 29 43 46 29 5 -4 8 -5 7 -3 -3 5 29 30 39 31 4 0 12 -9 18 -20z m-829
-2 c1 -7 0 -19 -1 -27 -2 -14 17 -31 35 -31 6 0 3 5 -5 10 -12 8 -11 10 7 10
12 0 24 4 28 10 8 14 33 1 40 -21 5 -15 10 -17 24 -10 14 8 17 6 17 -11 -1
-13 6 -22 19 -24 23 -3 55 -39 55 -62 0 -8 3 -12 7 -8 4 4 13 -12 20 -36 6
-23 11 -44 9 -46 -2 -1 -25 10 -51 27 l-47 30 -45 -34 c-38 -29 -48 -32 -70
-24 -21 8 -31 4 -62 -22 -20 -18 -40 -42 -44 -55 -8 -22 -52 -44 -88 -44 -10
0 -24 9 -32 20 l-14 20 -84 -20 c-46 -11 -110 -20 -141 -20 l-58 0 0 -57 c-1
-73 -13 -53 -29 47 -12 68 -11 82 8 150 l20 75 1 -65 2 -65 15 48 c13 44 33
64 33 33 0 -8 4 -18 10 -21 6 -3 7 1 4 9 -3 9 -1 16 5 16 6 0 11 9 11 20 0 12
12 44 27 73 15 29 26 55 26 58 -1 3 3 6 10 7 7 0 22 4 34 7 17 5 25 2 30 -11
5 -11 14 -20 22 -22 18 -4 42 18 34 31 -3 6 -1 7 5 3 7 -4 12 -4 12 1 0 4 11
8 24 8 17 0 23 -5 21 -18 -3 -14 -1 -15 17 -6 18 10 20 9 15 -5 -4 -10 -3 -15
3 -11 6 3 10 11 10 16 0 20 30 40 49 34 12 -3 21 0 25 10 7 18 36 20 37 3z
m1089 -74 c0 -8 -19 -13 -24 -6 -3 5 1 9 9 9 8 0 15 -2 15 -3z m7278 -93 c-1
-27 0 -47 5 -44 4 2 7 11 7 18 0 8 10 19 21 26 17 8 20 8 14 -1 -5 -9 -1 -10
16 -5 13 4 28 11 34 16 13 12 42 11 51 -2 3 -6 -6 -23 -20 -38 -14 -15 -26
-34 -26 -42 0 -8 8 -3 18 12 24 37 49 59 56 52 3 -4 6 -1 6 6 0 9 5 9 20 1 14
-8 20 -8 20 0 0 6 5 8 12 4 7 -4 33 -6 58 -5 69 5 139 8 336 16 l182 8 12 -37
c14 -43 2 -66 -34 -65 -29 1 -384 -19 -471 -27 -72 -6 -115 -24 -115 -48 0 -8
7 -16 15 -20 9 -3 15 -18 15 -38 0 -26 3 -30 11 -18 8 12 10 8 7 -16 -5 -41 8
-51 78 -58 32 -3 65 -6 72 -7 17 -3 7 -33 -30 -92 -32 -50 -68 -68 -93 -47 -8
6 -29 10 -47 8 -26 -2 -33 1 -32 14 1 14 -2 15 -17 7 -11 -5 -19 -14 -19 -20
0 -6 -5 -7 -11 -4 -6 5 -4 12 8 21 10 7 13 14 7 14 -7 0 -9 11 -6 25 6 31 -11
33 -26 3 -11 -23 -11 -23 -11 4 -1 14 -7 29 -13 32 -7 3 3 3 22 0 28 -5 33 -4
23 7 -13 13 -61 20 -77 11 -4 -2 -2 -8 5 -13 9 -6 -3 -8 -33 -7 -39 1 -49 5
-55 22 -9 29 -10 106 -1 106 5 0 8 -9 8 -20 0 -11 5 -20 11 -20 6 0 8 -11 4
-29 -5 -23 -2 -29 14 -34 12 -3 21 -1 21 5 0 6 7 8 15 4 9 -3 25 4 37 16 l21
21 24 -28 24 -27 -3 58 -3 59 -37 -1 c-37 -1 -49 8 -28 21 6 3 10 15 10 25 0
19 13 25 70 34 14 2 24 9 22 16 -1 7 1 17 6 24 5 6 12 20 15 31 6 19 6 19 -6
1 -28 -43 -45 -59 -63 -61 -27 -2 -66 -24 -59 -34 2 -5 -2 -14 -10 -21 -8 -7
-15 -19 -15 -26 0 -10 -15 -13 -60 -12 -56 1 -60 3 -55 22 6 21 6 21 -10 1 -9
-12 -12 -21 -5 -23 6 -2 2 -16 -10 -32 -22 -31 -26 -45 -10 -35 6 3 10 0 10
-8 0 -8 -10 -13 -22 -13 -14 1 -24 -6 -26 -16 -2 -13 3 -18 20 -19 13 0 17 -3
11 -6 -7 -2 -13 -10 -13 -17 0 -18 24 -66 33 -66 5 0 5 6 1 13 -5 7 0 6 11 -3
16 -13 16 -15 2 -18 -20 -4 -87 61 -87 83 0 10 -5 13 -12 9 -8 -5 -9 -2 -5 9
3 10 2 17 -2 17 -15 0 1 41 25 66 13 12 24 28 24 34 0 6 -11 -1 -23 -16 -17
-19 -29 -25 -42 -20 -15 5 -17 14 -12 59 17 142 17 150 -4 62 -16 -71 -18 -99
-11 -134 12 -53 7 -71 -19 -71 -31 0 -43 45 -30 113 7 32 14 64 18 72 3 8 0
15 -6 15 -11 0 -25 -45 -38 -125 -6 -37 -13 -51 -27 -53 -20 -4 -20 1 0 112 6
31 4 38 -7 34 -8 -2 -18 -26 -22 -54 -14 -86 -27 -124 -42 -124 -24 0 -26 17
-10 85 18 77 19 125 4 125 -5 0 -7 5 -3 11 4 7 1 10 -7 7 -8 -2 -22 -31 -32
-64 -23 -74 -29 -86 -42 -82 -11 3 -12 37 -1 89 l7 35 -62 -4 c-70 -4 -79 2
-79 59 0 43 12 49 103 49 39 0 57 4 57 13 0 7 3 8 8 2 6 -9 22 -11 47 -5 6 1
15 1 20 0 38 -8 45 -8 45 -1 0 4 6 8 13 9 6 1 23 3 37 5 14 2 31 -1 38 -6 7
-6 12 -6 12 0 0 5 19 8 43 7 31 -2 48 3 65 19 l23 22 19 -25 18 -25 8 30 c9
40 13 45 31 45 12 0 14 -10 11 -49z m-4788 -86 c0 -9 -7 -29 -15 -45 -15 -29
-15 -29 7 -21 52 19 64 -16 22 -60 -14 -15 -23 -32 -19 -39 10 -17 32 5 45 45
13 38 62 85 90 85 20 0 34 -40 25 -71 -7 -22 -2 -23 26 -9 15 9 19 7 19 -5 0
-19 -60 -57 -79 -50 -8 3 -22 -2 -32 -11 -10 -9 -27 -14 -38 -11 -11 3 -25 -1
-32 -9 -16 -19 -49 -18 -64 2 -10 14 -13 13 -24 -15 -13 -30 -31 -42 -31 -20
0 6 -12 1 -27 -11 -17 -14 -35 -19 -50 -16 -13 4 -25 1 -30 -7 -10 -18 -49
-38 -57 -30 -22 22 10 143 38 143 18 0 21 -23 6 -51 -15 -27 6 -25 24 4 9 12
20 45 26 73 13 60 44 114 65 114 22 0 18 -27 -10 -88 -26 -56 -32 -92 -15 -92
12 0 33 41 55 110 9 30 24 65 31 78 16 25 44 30 44 7z m-418 -87 c5 -36 57
-31 94 9 34 36 74 44 74 16 0 -10 -12 -54 -26 -98 -18 -57 -24 -96 -22 -140 3
-58 2 -60 -22 -60 -40 0 -49 55 -21 135 11 35 18 66 15 69 -11 11 -33 -32 -45
-88 -15 -76 -26 -101 -44 -101 -19 0 -19 31 0 94 8 27 13 52 10 54 -11 12 -27
-18 -41 -77 -17 -75 -30 -101 -49 -101 -21 0 -19 42 5 118 25 78 26 122 4 122
-14 0 -29 -28 -73 -133 -6 -16 -17 -27 -24 -24 -19 7 -12 60 18 118 56 113
136 160 147 87z m4446 16 c21 -6 14 -44 -9 -44 -11 0 -30 -5 -42 -12 -12 -6
-42 -13 -67 -15 -68 -4 -120 -14 -120 -23 0 -10 -67 -21 -85 -14 -22 9 5 31
31 26 12 -2 25 1 28 7 4 6 17 11 29 11 13 0 37 14 55 30 18 17 42 30 53 30 10
0 19 4 19 10 0 9 73 5 108 -6z m-4215 -37 c3 -8 2 -18 -1 -24 -10 -15 -52 3
-52 22 0 19 46 21 53 2z m4337 -9 c0 -10 -6 -18 -12 -18 -9 0 -8 -3 2 -10 12
-7 12 -12 2 -22 -9 -9 -12 -9 -13 3 -1 7 -2 26 -3 40 -2 16 2 26 11 26 7 0 13
-9 13 -19z m777 -45 c2 -5 -16 -18 -39 -28 -62 -25 -73 -25 -73 2 0 13 5 21
11 19 6 -2 17 1 23 7 8 8 11 8 11 -2 0 -9 4 -8 15 2 16 17 47 16 52 0z m-9517
-45 c0 -11 -13 -33 -30 -48 -36 -34 -37 -40 -5 -40 16 0 25 -6 25 -15 0 -12
-17 -15 -95 -15 -78 0 -95 3 -95 15 0 11 12 15 51 15 l51 0 -26 31 c-39 45
-30 72 9 29 10 -11 23 -20 30 -20 14 0 50 38 58 63 9 23 27 13 27 -15z m820 0
c0 -12 -14 -37 -32 -55 l-32 -33 27 0 c20 0 27 -5 27 -20 0 -19 -7 -20 -95
-20 -88 0 -95 1 -95 20 0 17 7 20 52 20 l51 0 -21 23 c-12 13 -22 32 -22 42 0
16 4 15 30 -10 l30 -29 25 24 c14 13 25 32 25 42 0 10 7 18 15 18 9 0 15 -9
15 -22z m827 5 c2 -6 -10 -27 -26 -46 -37 -42 -38 -47 -6 -47 26 0 35 -24 12
-33 -10 -4 -158 -3 -179 2 -5 0 -8 8 -8 16 0 12 13 15 57 15 l57 0 -27 28
c-15 15 -27 37 -27 47 0 16 3 15 28 -8 15 -15 32 -27 37 -27 14 0 55 42 55 58
0 15 22 12 27 -5z m7097 -18 c3 -8 1 -15 -4 -15 -6 0 -10 7 -10 15 0 8 2 15 4
15 2 0 6 -7 10 -15z m608 -33 c5 -27 -3 -72 -14 -72 -5 0 -7 9 -3 19 3 11 -1
25 -10 34 -9 10 -11 18 -5 22 6 4 8 11 5 16 -3 5 1 6 9 3 8 -3 16 -13 18 -22z
m-8832 -26 c0 -2 -7 -7 -16 -10 -8 -3 -12 -2 -9 4 6 10 25 14 25 6z m2369 -36
c0 -10 -3 -8 -9 5 -12 27 -12 43 0 25 5 -8 9 -22 9 -30z m6491 5 c0 -8 -4 -15
-10 -15 -5 0 -7 7 -4 15 4 8 8 15 10 15 2 0 4 -7 4 -15z m737 -2 c1 -10 4 -27
5 -38 2 -11 0 -20 -4 -20 -4 0 -13 -9 -21 -19 -14 -19 -14 -19 -35 2 -28 28
-28 32 3 32 17 0 25 5 25 18 0 10 5 23 12 30 15 15 13 15 15 -5z m-9607 -3 c0
-5 -2 -10 -4 -10 -3 0 -8 5 -11 10 -3 6 -1 10 4 10 6 0 11 -4 11 -10z m2106
-100 c-19 -58 -39 -130 -45 -160 -19 -94 -20 -97 -16 -25 3 39 14 103 25 144
20 71 57 157 65 149 3 -2 -11 -51 -29 -108z m-2096 76 c0 -2 -7 -7 -16 -10 -8
-3 -12 -2 -9 4 6 10 25 14 25 6z m820 0 c0 -3 -4 -8 -10 -11 -5 -3 -10 -1 -10
4 0 6 5 11 10 11 6 0 10 -2 10 -4z m8167 -11 c0 -8 -4 -12 -9 -9 -5 3 -6 10
-3 15 9 13 12 11 12 -6z m-9517 -10 c0 -11 -12 -15 -47 -16 -27 -1 -69 -3 -95
-5 -43 -3 -48 -2 -48 16 0 19 7 20 95 20 78 0 95 -3 95 -15z m820 -5 c0 -19
-7 -20 -95 -20 -73 0 -95 3 -95 13 0 24 12 27 102 27 81 0 88 -2 88 -20z m828
4 c-2 -13 -20 -17 -95 -19 -51 -2 -96 1 -99 6 -13 22 13 29 102 29 82 0 95 -2
92 -16z m5477 -4 c3 -5 1 -10 -4 -10 -6 0 -11 5 -11 10 0 6 2 10 4 10 3 0 8
-4 11 -10z m115 0 c0 -5 -5 -10 -11 -10 -5 0 -7 5 -4 10 3 6 8 10 11 10 2 0 4
-4 4 -10z m2194 2 c3 -5 -1 -9 -9 -9 -8 0 -12 4 -9 9 3 4 7 8 9 8 2 0 6 -4 9
-8z m40 -4 c-3 -4 -9 -8 -15 -8 -5 0 -9 4 -9 8 0 5 7 9 15 9 8 0 12 -4 9 -9z
m-9767 -45 c2 -6 -3 -13 -12 -16 -10 -5 -15 0 -15 14 0 21 21 22 27 2z m138
-3 c0 -22 -29 -18 -33 3 -3 14 1 18 15 15 10 -2 18 -10 18 -18z m155 6 c0 -18
-116 -34 -132 -18 -20 20 4 32 68 32 48 0 64 -3 64 -14z m518 -22 c-14 -14
-15 -14 -10 11 3 19 8 23 15 16 8 -8 7 -16 -5 -27z m150 13 c2 -12 -3 -17 -17
-17 -12 0 -21 6 -21 13 0 31 32 34 38 4z m152 3 c0 -18 -7 -20 -65 -20 -58 0
-65 2 -65 20 0 18 7 20 65 20 58 0 65 -2 65 -20z m530 5 c0 -8 -4 -15 -10 -15
-5 0 -10 7 -10 15 0 8 5 15 10 15 6 0 10 -7 10 -15z m140 -5 c0 -11 -7 -20
-15 -20 -8 0 -15 9 -15 20 0 11 7 20 15 20 8 0 15 -9 15 -20z m155 0 c0 -12
-14 -15 -65 -15 -54 0 -65 3 -68 18 -3 16 3 18 65 15 52 -2 68 -6 68 -18z
m8200 -23 c14 3 25 12 25 19 0 10 14 7 57 -12 58 -25 97 -53 88 -62 -3 -3 -14
3 -25 13 -31 28 -112 32 -155 6 l-35 -21 -40 21 c-50 26 -88 19 -132 -25 -18
-18 -52 -38 -76 -45 -74 -21 -105 -114 -67 -204 18 -44 26 -46 265 -76 41 -5
83 -13 93 -16 17 -7 17 -8 0 -20 -10 -8 -18 -19 -18 -26 0 -7 -6 -14 -14 -17
-8 -3 -11 0 -7 6 12 19 -29 18 -45 -2 -9 -11 -21 -16 -27 -12 -19 12 -14 26
11 26 20 0 20 1 -7 15 -39 20 -63 19 -78 -5 -15 -24 -28 -25 -54 -5 -19 15
-18 16 3 13 12 -2 23 2 25 7 2 6 -12 11 -30 13 -20 2 -30 7 -26 14 4 6 1 8 -7
6 -8 -3 -13 -11 -11 -17 1 -7 -2 -10 -7 -6 -6 3 -19 0 -29 -6 -12 -7 -27 -9
-38 -4 -23 10 -30 12 -46 14 -9 1 -9 4 2 12 11 8 3 9 -33 6 -26 -3 -49 -1 -52
3 -2 3 -19 5 -37 3 l-33 -4 35 30 c29 26 42 31 87 31 l53 0 -11 27 c-13 34 -2
102 22 142 18 30 93 91 111 91 5 0 23 14 40 30 16 17 36 30 44 30 8 0 25 7 38
16 16 10 26 12 31 5 10 -17 35 -13 35 5 0 13 4 12 25 -4 15 -12 34 -18 50 -15z
m-9845 -26 c0 -17 -8 -20 -52 -23 -49 -3 -53 -5 -53 -28 0 -22 5 -25 40 -28
36 -3 46 2 82 36 23 22 52 42 66 46 34 8 78 -9 84 -34 7 -25 15 -25 39 1 21
24 57 22 153 -6 l54 -17 -27 -26 c-20 -21 -29 -24 -35 -14 -5 9 -17 11 -36 6
-18 -4 -26 -3 -22 3 10 16 -36 24 -51 9 -16 -16 -110 -4 -125 16 -6 9 -7 8 -3
-5 4 -11 -1 -20 -12 -24 -9 -4 -37 -19 -61 -35 -51 -32 -71 -35 -71 -12 0 12
-9 14 -37 12 -33 -3 -38 -6 -38 -28 0 -22 5 -25 45 -28 24 -2 50 -8 57 -14 23
-19 15 -59 -18 -89 l-31 -29 26 0 c19 0 26 -5 26 -19 0 -17 -11 -20 -91 -26
-58 -5 -94 -4 -101 3 -18 18 2 32 48 32 49 0 54 8 24 35 -20 18 -28 55 -12 55
5 0 19 -11 32 -25 l23 -24 28 20 c16 11 29 25 29 30 0 5 -26 9 -58 9 l-59 0
-1 52 c0 29 4 58 10 66 8 9 8 16 0 24 -7 7 -12 24 -12 39 0 38 33 59 92 59 41
0 48 -3 48 -19z m823 5 c8 -21 -1 -26 -48 -26 -45 0 -71 -19 -62 -44 4 -10 24
-16 59 -18 39 -2 53 -7 53 -18 0 -11 -13 -16 -47 -18 -50 -3 -72 -20 -62 -46
4 -11 19 -16 48 -16 23 0 47 -5 54 -12 20 -20 14 -63 -13 -88 -14 -13 -25 -27
-25 -32 0 -4 11 -8 25 -8 31 0 33 -25 3 -34 -13 -3 -58 -6 -100 -6 -71 0 -78
2 -78 20 0 17 7 20 51 20 l51 0 -26 31 c-14 17 -26 34 -26 38 0 21 16 19 42
-6 l28 -27 25 24 c14 13 25 27 25 32 0 4 -25 8 -56 8 -47 0 -55 3 -53 18 1 9
-1 29 -5 44 -5 15 -3 35 3 47 9 15 8 25 0 39 -18 28 -3 69 28 79 46 16 100 15
106 -1z m827 -1 c0 -11 5 -12 24 -6 22 9 68 3 109 -14 9 -4 20 -18 23 -32 l7
-24 32 31 c30 29 37 31 74 25 37 -6 40 -9 29 -23 -12 -13 -11 -14 8 -2 31 19
144 -16 144 -45 0 -22 -29 -69 -30 -48 0 7 -7 10 -15 7 -20 -8 -19 3 1 23 13
14 17 14 25 2 7 -11 9 -9 9 9 0 28 -8 28 -37 0 -23 -22 -33 -12 -11 10 7 7 9
12 6 12 -4 0 -14 -8 -24 -17 -13 -13 -19 -14 -22 -5 -3 9 -15 11 -40 7 -21 -4
-32 -3 -25 2 8 6 1 12 -22 19 -24 8 -33 8 -32 0 1 -6 -17 -12 -40 -14 -36 -3
-44 -7 -49 -28 -7 -26 -12 -28 -33 -15 -12 8 -11 13 10 31 l24 21 -25 -12
c-28 -14 -60 -47 -60 -63 -1 -6 -12 2 -25 18 -21 27 -26 29 -50 18 -14 -7 -39
-12 -54 -12 -16 0 -34 -7 -41 -15 -20 -24 5 -45 54 -45 23 0 47 -5 54 -12 21
-21 13 -59 -19 -89 l-31 -29 26 0 c19 0 26 -5 26 -20 0 -15 -7 -20 -27 -21
-28 -1 -86 -9 -89 -12 -1 -1 2 -12 7 -24 7 -20 16 -23 60 -23 50 0 51 -1 47
-25 -3 -14 -2 -28 2 -30 11 -7 21 22 14 40 -4 10 0 15 11 15 12 0 15 -6 10
-22 -5 -18 -4 -20 4 -8 6 8 11 23 11 34 0 15 3 16 14 7 11 -9 15 -9 19 1 4 10
7 10 14 1 5 -7 14 -9 23 -3 9 6 18 3 28 -8 7 -9 11 -11 7 -4 -4 8 5 12 34 12
26 0 41 -5 42 -12 0 -7 4 -4 9 7 8 18 9 17 9 -7 1 -14 -4 -29 -9 -31 -6 -3 -5
-4 2 -3 7 2 21 -1 31 -6 14 -7 17 -4 17 22 0 19 4 29 10 25 6 -4 8 -12 4 -18
-3 -7 1 -4 9 6 16 19 47 23 47 6 0 -5 4 -8 8 -5 19 11 67 15 78 5 19 -16 27 6
34 100 5 59 8 -3 9 -191 1 -188 4 -278 12 -278 19 0 -2 -20 -54 -51 -29 -17
-44 -28 -34 -25 11 4 16 2 12 -5 -4 -6 -13 -8 -21 -5 -8 3 -21 3 -30 -1 -13
-5 -13 -7 -2 -14 9 -6 5 -9 -14 -9 -35 0 -28 24 13 46 36 18 36 22 2 18 -79
-9 -317 -24 -462 -29 -90 -3 -169 -7 -175 -8 -14 -3 -23 106 -25 308 0 89 -5
165 -10 170 -9 10 4 373 14 383 3 3 6 -79 6 -181 1 -103 3 -191 4 -197 1 -5 3
-19 4 -31 1 -18 6 -20 41 -16 23 2 40 0 40 -6 0 -5 7 -4 15 3 12 10 15 9 15
-5 0 -10 3 -15 7 -12 3 4 6 21 5 39 0 18 5 36 11 40 7 4 -5 8 -25 8 -31 0 -38
4 -38 20 0 15 7 20 30 21 17 1 36 2 43 3 13 2 11 29 -4 34 -9 4 -13 52 -4 52
3 0 16 -12 29 -27 l23 -26 26 19 c47 34 42 44 -23 44 -67 0 -61 -8 -60 83 0
50 0 82 -1 106 -1 35 26 51 88 51 40 0 53 -4 53 -15z m2078 -182 l-3 -198 -23
-3 c-13 -2 -29 1 -36 7 -9 8 -22 7 -45 -5 -90 -45 -191 29 -191 141 0 83 49
144 124 152 32 4 53 1 70 -11 14 -9 28 -16 31 -16 3 0 5 29 5 65 l0 65 35 0
35 0 -2 -197z m602 95 l0 -102 48 47 c37 36 55 47 79 47 18 0 34 -4 37 -8 3
-5 -17 -31 -44 -57 -28 -27 -50 -55 -50 -63 0 -22 71 -102 91 -102 17 0 19 11
21 113 l3 112 29 3 c16 2 32 -2 36 -9 6 -9 13 -8 31 5 32 22 81 20 112 -4 l26
-20 33 20 c51 31 94 26 134 -14 l35 -35 -3 -113 -3 -113 -30 0 -30 0 -5 100
c-3 55 -9 106 -13 113 -12 17 -62 15 -78 -4 -9 -11 -16 -53 -19 -113 l-5 -96
-30 0 -30 0 -5 96 c-6 106 -16 129 -61 129 -36 0 -49 -24 -49 -92 0 -69 -16
-125 -40 -138 -10 -5 -38 -10 -61 -10 -39 0 -48 5 -94 55 -29 30 -54 55 -58
55 -3 0 -7 -21 -9 -47 -3 -46 -4 -48 -33 -48 l-30 0 -3 198 -2 197 35 0 35 0
0 -102z m710 88 c28 -35 -11 -93 -47 -70 -36 22 -23 84 17 84 10 0 23 -7 30
-14z m98 -183 l-3 -198 -30 0 -30 0 -3 185 c-1 101 0 190 2 197 3 7 19 13 36
13 l30 0 -2 -197z m102 94 l5 -98 45 46 c35 35 51 45 77 45 19 0 33 -5 33 -12
0 -7 -23 -36 -51 -64 l-52 -52 37 -50 c38 -52 56 -65 80 -56 17 7 40 -31 32
-52 -3 -9 -21 -14 -49 -14 -46 0 -69 18 -136 100 l-20 25 -1 -42 c0 -23 -3
-48 -6 -57 -8 -20 -60 -21 -67 -3 -8 21 -9 331 -1 362 5 22 11 26 38 23 l31
-3 5 -98z m2008 63 c4 -39 -16 -60 -57 -59 -14 0 -21 3 -15 5 6 2 8 18 6 34
-5 36 14 62 42 58 16 -2 22 -11 24 -38z m-6250 17 c16 -18 -55 -66 -87 -58
-24 6 -23 8 19 39 49 36 53 37 68 19z m172 -33 c30 -7 56 -18 58 -24 2 -5 8
-7 14 -4 15 10 -8 -30 -26 -46 -9 -7 -16 -17 -16 -23 0 -5 9 -2 20 8 19 17 19
17 7 -8 -15 -31 -41 -24 -33 9 5 17 2 24 -9 24 -8 0 -15 3 -15 8 0 4 -19 6
-42 5 -33 -2 -37 -1 -18 6 25 7 24 8 -7 12 -18 3 -30 2 -27 -2 2 -4 -18 -9
-45 -11 -54 -3 -54 2 -1 48 27 24 37 24 140 -2z m7485 -24 c-4 -6 -60 -10
-133 -11 -134 0 -257 -10 -268 -22 -17 -17 14 -19 138 -7 73 6 153 10 178 8
43 -4 44 -4 20 -15 -14 -7 -19 -12 -11 -12 11 -1 10 -6 -3 -26 -9 -13 -16 -33
-16 -44 0 -11 -5 -23 -10 -26 -6 -4 -8 -11 -5 -16 4 -5 1 -9 -6 -9 -7 0 -6 -9
5 -27 l17 -28 -23 25 c-13 14 -32 37 -43 51 -29 36 -66 59 -94 59 -13 0 -53
-16 -88 -36 -72 -40 -86 -39 -143 12 -34 31 -42 34 -86 30 -27 -2 -138 -11
-247 -20 -110 -9 -202 -18 -207 -21 -10 -6 -88 -13 -230 -20 -252 -12 -307
-16 -335 -23 -20 -6 -37 -5 -50 4 -21 13 -43 17 -87 15 -28 -1 -78 -39 -78
-59 0 -6 -7 -9 -15 -6 -9 4 -15 11 -14 18 3 17 -12 66 -20 66 -4 0 -18 15 -31
33 -21 28 -21 30 -2 14 11 -11 25 -16 31 -13 5 3 22 1 37 -4 21 -8 31 -7 44 5
11 10 27 13 46 10 52 -10 114 -12 114 -3 0 4 7 5 15 2 8 -3 34 -7 57 -8 24 -2
77 -6 118 -10 50 -4 68 -3 55 3 -14 7 -15 10 -5 11 8 0 58 3 110 6 52 2 110 6
128 9 19 2 30 0 27 -6 -4 -5 -18 -9 -33 -10 -15 0 -21 -3 -14 -6 21 -8 88 7
72 17 -22 14 112 23 233 16 69 -4 118 -2 127 4 11 7 1 9 -35 5 -44 -4 -42 -3
15 9 56 10 68 10 83 -2 15 -13 17 -13 17 1 0 13 9 17 39 17 21 0 53 3 70 6 27
6 31 4 25 -12 -4 -13 -3 -15 3 -6 16 22 123 42 268 51 208 12 247 12 240 1z
m1073 -20 c4 -13 3 -13 -11 -2 -13 11 -17 10 -26 -7 -14 -26 -5 -49 22 -54 21
-3 21 -4 3 -12 -42 -18 -69 28 -41 71 17 27 45 29 53 4z m54 -20 c16 0 19 -5
14 -22 -3 -13 -6 -29 -6 -35 0 -7 -5 -13 -10 -13 -6 0 -8 13 -5 30 3 17 1 30
-5 30 -5 0 -10 -13 -10 -30 0 -16 -4 -30 -10 -30 -5 0 -10 22 -10 48 0 50 13
80 18 43 2 -13 11 -21 24 -21z m-10059 -280 c2 -168 1 -316 -4 -330 -4 -14 -7
125 -8 309 -1 184 1 332 4 330 2 -3 6 -142 8 -309z m423 275 c-1 -17 -6 -23
-14 -20 -8 3 -18 5 -24 5 -6 0 -3 9 7 20 24 27 33 25 31 -5z m3802 9 c18 -12
26 -13 37 -4 8 6 24 10 37 8 23 -3 23 -4 23 -143 0 -139 0 -140 -23 -143 -13
-2 -29 1 -36 7 -10 8 -21 7 -42 -4 -92 -48 -194 25 -194 140 0 65 39 129 90
148 30 11 86 7 108 -9z m297 -3 c9 -30 -5 -51 -35 -51 -53 0 -66 -33 -73 -170
-2 -54 -3 -55 -32 -55 l-30 0 0 140 c0 139 0 140 23 143 13 2 29 -2 37 -8 11
-9 19 -8 37 4 30 22 65 20 73 -3z m-3281 -15 c-7 -17 -34 -23 -34 -6 0 9 32
31 38 26 1 -2 0 -11 -4 -20z m4081 2 c3 -13 4 -77 3 -143 l-3 -120 -29 -3
c-16 -2 -32 2 -37 10 -10 15 -12 238 -3 262 4 10 18 16 35 16 21 0 30 -6 34
-22z m4821 5 c8 -11 13 -13 14 -5 0 14 40 17 40 2 0 -5 -7 -7 -15 -4 -11 4
-15 0 -15 -16 0 -16 4 -20 16 -16 10 4 14 1 12 -6 -8 -23 -38 -21 -46 3 -7 19
-10 20 -15 6 -4 -10 -16 -17 -27 -17 -15 0 -20 7 -20 28 0 16 3 32 7 35 12 12
36 7 49 -10z m119 -12 c0 -29 -29 -51 -46 -34 -7 7 -9 23 -5 38 9 35 51 32 51
-4z m755 19 c0 -6 -11 -10 -25 -10 -14 0 -25 4 -25 8 0 4 11 9 25 10 14 1 25
-3 25 -8z m-10290 -4 c0 -3 -4 -8 -10 -11 -5 -3 -10 -1 -10 4 0 6 5 11 10 11
6 0 10 -2 10 -4z m1586 -44 c-10 -10 -29 15 -21 28 6 9 10 8 17 -4 6 -10 7
-20 4 -24z m-1651 19 c3 -5 1 -12 -5 -16 -5 -3 -10 1 -10 9 0 18 6 21 15 7z
m6352 -7 c-3 -3 -12 -4 -19 -1 -8 3 -5 6 6 6 11 1 17 -2 13 -5z m4400 0 c-3
-3 -12 -4 -19 -1 -8 3 -5 6 6 6 11 1 17 -2 13 -5z m-10996 -17 c-1 -12 -15 -9
-19 4 -3 6 1 10 8 8 6 -3 11 -8 11 -12z m11544 -12 c154 -9 289 -18 300 -20
19 -4 20 -11 17 -162 -2 -87 -7 -182 -10 -212 l-7 -54 -57 79 c-31 44 -68 90
-82 103 -24 23 -29 24 -59 13 -19 -7 -41 -12 -50 -12 -9 0 -42 37 -74 82 -32
45 -65 83 -73 86 -8 2 -1 -11 16 -29 16 -19 36 -42 43 -52 15 -19 23 -66 15
-79 -9 -15 -46 42 -56 85 -5 23 -17 50 -26 60 -9 11 -15 22 -12 26 13 16 -58
10 -110 -9 -44 -16 -63 -19 -77 -11 -24 12 -87 81 -103 111 -12 22 -12 22 57
16 37 -3 194 -13 348 -21z m-9894 -3 c-7 -2 -18 1 -23 6 -8 8 -4 9 13 5 13 -4
18 -8 10 -11z m7813 12 c18 -7 21 -39 5 -50 -8 -5 -8 -9 1 -14 7 -4 9 -16 5
-29 -5 -17 -14 -21 -46 -21 l-40 0 6 48 c4 26 8 53 10 60 5 13 33 16 59 6z
m2410 -1 c53 -5 64 -8 47 -14 -22 -9 -198 5 -209 16 -7 7 78 6 162 -2z
m-11624 -29 c0 -8 -4 -14 -10 -14 -5 0 -10 5 -10 11 0 5 -4 7 -10 4 -5 -3 -10
-2 -10 4 0 11 21 20 33 14 4 -2 7 -11 7 -19z m156 -11 c-11 -11 -17 4 -9 23 7
18 8 18 11 1 2 -10 1 -21 -2 -24z m644 17 c-8 -6 -22 -10 -30 -10 -8 0 -4 6
10 13 27 15 44 12 20 -3z m654 5 c3 -8 1 -15 -4 -15 -6 0 -10 7 -10 15 0 8 2
15 4 15 2 0 6 -7 10 -15z m196 3 c0 -8 -14 -14 -33 -15 -30 -2 -31 -1 -13 12
24 18 46 19 46 3z m-1790 -18 c0 -5 -2 -10 -4 -10 -3 0 -8 5 -11 10 -3 6 -1
10 4 10 6 0 11 -4 11 -10z m7808 -16 c67 -28 132 -111 131 -169 0 -14 -4 -10
-14 13 -26 60 -57 94 -109 118 -123 57 -263 6 -325 -118 -17 -34 -31 -55 -31
-47 0 32 54 121 92 154 72 61 178 82 256 49z m1632 1 c0 -9 -6 -12 -15 -9 -10
4 -15 0 -15 -14 0 -27 -10 -52 -21 -52 -10 0 -12 34 -3 68 7 25 54 32 54 7z
m315 5 c3 -5 1 -10 -4 -10 -6 0 -11 5 -11 10 0 6 2 10 4 10 3 0 8 -4 11 -10z
m-240 -20 c14 -45 -18 -80 -56 -60 -21 12 -24 32 -9 61 14 26 57 25 65 -1z
m35 -6 l0 -26 20 23 19 24 1 -29 0 -28 20 23 c25 31 25 13 0 -29 -20 -33 -40
-35 -40 -4 -1 16 -1 16 -11 0 -17 -31 -29 -20 -29 27 0 25 5 45 10 45 6 0 10
-12 10 -26z m-9478 4 c-9 -9 -15 -9 -24 0 -9 9 -7 12 12 12 19 0 21 -3 12 -12z
m226 -265 c-1 -240 -2 -260 -9 -148 -13 237 -10 425 7 425 2 0 3 -125 2 -277z
m8559 255 c27 -22 44 -76 37 -116 -6 -30 -8 -33 -14 -17 -6 18 -8 17 -23 -11
-11 -21 -13 -34 -6 -41 7 -7 2 -9 -15 -6 -14 3 -26 1 -26 -4 0 -5 -13 -8 -30
-5 -29 4 -42 -11 -17 -21 6 -3 1 -6 -11 -6 -15 -1 -38 13 -58 33 -28 28 -34
42 -34 76 0 45 16 84 30 75 13 -8 52 19 43 29 -4 4 0 4 10 0 13 -5 17 -1 17
16 0 21 4 22 40 17 23 -3 48 -11 57 -19z m853 -18 c0 -29 -4 -40 -15 -40 -13
0 -15 7 -9 36 5 29 4 36 -7 32 -8 -2 -15 -19 -17 -36 -5 -46 -22 -39 -22 8 0
39 1 40 35 40 34 0 35 -1 35 -40z m553 34 c3 -4 -1 -23 -9 -43 -10 -24 -11
-32 -3 -23 35 34 55 -13 22 -51 -14 -16 -15 -19 -3 -15 8 2 20 20 26 38 14 41
52 76 68 60 7 -7 1 -19 -17 -38 -28 -29 -33 -42 -19 -42 5 0 14 11 20 25 6 14
17 25 23 25 7 0 9 -9 5 -25 -7 -29 0 -32 26 -8 25 22 23 2 -3 -31 -12 -15 -29
-26 -38 -25 -24 3 -105 -30 -96 -39 2 -3 11 1 19 7 8 7 37 13 64 14 30 1 48 6
44 12 -3 6 -1 6 3 2 5 -4 10 -15 11 -25 2 -9 8 -18 13 -20 6 -2 11 -15 11 -28
0 -14 3 -23 8 -21 4 3 7 -6 7 -19 0 -13 -4 -24 -8 -24 -4 0 -3 -9 3 -20 9 -16
7 -24 -5 -37 -12 -11 -13 -18 -5 -23 8 -5 3 -17 -17 -37 -34 -35 -110 -58
-146 -44 -34 13 -97 72 -97 92 0 9 -3 19 -7 23 -17 17 -10 36 13 36 13 0 24 5
24 11 0 8 4 8 14 0 9 -7 13 -24 11 -43 -6 -42 -15 -48 -15 -10 0 25 -4 32 -20
32 -25 0 -25 -11 1 -43 24 -32 79 -50 134 -45 33 2 41 7 43 26 4 26 -14 30
-21 5 -4 -15 -5 -14 -6 2 -1 15 -12 24 -41 32 -40 10 -41 10 -55 -21 -9 -20
-14 -25 -14 -13 -1 10 4 27 9 37 7 13 7 21 0 25 -5 3 -10 26 -10 51 0 24 -4
44 -10 44 -5 0 -10 10 -10 23 0 18 -2 19 -10 7 -5 -8 -10 -26 -10 -39 0 -18
-4 -22 -17 -17 -16 6 -16 6 -1 -11 15 -17 15 -18 -7 -19 -24 -2 -25 1 -9 55
l7 24 -23 -23 -24 -24 -8 26 c-11 31 3 90 21 96 11 4 12 -3 7 -29 -5 -24 -3
-30 5 -22 6 6 13 30 16 54 6 52 22 99 34 99 12 0 11 -41 -2 -79 -12 -34 -4
-56 11 -31 5 7 11 29 15 48 13 68 29 94 48 76z m-3963 -10 c0 -8 -19 -13 -24
-6 -3 5 1 9 9 9 8 0 15 -2 15 -3z m3445 -48 c-7 -34 -25 -51 -25 -22 0 35 13
77 22 68 5 -5 6 -26 3 -46z m80 44 c3 -5 -6 -15 -21 -23 -18 -9 -23 -16 -15
-21 7 -4 18 -2 26 4 18 15 20 -1 3 -18 -33 -33 -78 17 -48 53 14 17 46 20 55
5z m1047 -4 c15 -8 36 -12 48 -9 32 9 76 -16 106 -58 15 -21 33 -39 40 -39 8
0 14 -4 14 -9 0 -17 -35 -6 -51 17 -9 13 -19 23 -23 23 -20 -3 -26 0 -20 11 5
8 2 9 -11 4 -16 -6 -16 -4 -4 11 8 9 9 14 2 10 -6 -4 -14 -3 -18 3 -9 14 -48
13 -63 -2 -10 -10 -14 -8 -19 10 -7 28 -46 39 -80 23 -23 -11 -25 -10 -13 3
16 20 56 20 92 2z m965 0 c0 -7 -15 -18 -34 -24 -29 -9 -33 -8 -33 8 0 18 15
26 51 29 9 0 16 -5 16 -13z m-1832 -44 c7 -35 38 -37 61 -4 16 24 60 31 51 9
-16 -42 -28 -137 -23 -179 5 -38 4 -48 -8 -48 -22 0 -29 34 -22 109 5 63 5 64
-9 36 -8 -16 -14 -44 -15 -62 0 -41 -10 -68 -20 -53 -4 6 -4 31 0 56 4 24 3
47 -2 50 -12 7 -13 6 -26 -31 -10 -28 -10 -27 -11 23 -1 29 -6 61 -13 71 -6
10 -8 26 -5 35 10 26 35 19 42 -12z m861 -9 c3 -10 11 -29 17 -43 6 -14 13
-29 15 -35 3 -5 -1 -5 -8 2 -10 9 -18 9 -34 1 -33 -19 -58 -20 -75 -3 -9 8
-31 15 -49 17 -53 4 -41 31 23 53 25 9 34 8 49 -6 17 -17 17 -17 -1 -21 -14
-3 -15 -5 -3 -9 8 -3 26 6 40 20 17 16 19 22 8 18 -12 -4 -15 -2 -11 9 7 19
22 18 29 -3z m-716 -8 c0 -8 -7 -15 -15 -15 -16 0 -20 12 -8 23 11 12 23 8 23
-8z m-2980 -31 c0 -8 -7 -29 -16 -45 -15 -29 -15 -30 5 -20 49 27 66 3 31 -42
-24 -30 -25 -37 -6 -37 8 0 21 21 31 50 16 48 54 90 81 90 24 0 15 -25 -16
-48 -16 -13 -30 -29 -30 -37 0 -25 19 -17 35 15 19 37 39 40 33 5 -6 -31 8
-32 33 -2 16 20 18 20 19 4 0 -24 -57 -80 -74 -74 -8 3 -20 -1 -26 -9 -7 -8
-19 -14 -27 -14 -7 0 -13 -6 -11 -12 5 -26 -33 -68 -62 -68 -32 0 -40 13 -34
56 l4 29 -14 -30 c-8 -16 -10 -32 -5 -33 14 -5 0 -22 -17 -22 -11 0 -14 6 -9
23 6 21 6 21 -9 3 -9 -11 -12 -22 -7 -26 5 -3 2 -16 -8 -28 -22 -30 -50 -21
-43 14 4 25 4 25 -27 -6 -17 -17 -35 -29 -41 -25 -26 16 -2 145 27 145 12 0
14 -8 10 -35 -3 -19 -2 -35 3 -35 11 0 30 65 30 103 0 40 26 97 44 97 20 0 20
-16 1 -70 -18 -52 -19 -83 -2 -78 6 3 20 35 29 72 10 38 24 79 33 93 16 24 35
23 35 -3z m-7147 -12 c-6 -14 -4 -15 9 -4 13 10 18 10 24 1 4 -8 2 -15 -5 -17
-11 -4 -11 -6 -1 -12 7 -4 -2 -7 -21 -5 -19 2 -40 3 -47 4 -7 1 -10 6 -7 11 3
6 1 10 -4 10 -6 0 -11 -7 -11 -15 0 -8 -9 -15 -20 -15 -13 0 -20 7 -20 20 0
17 7 20 40 20 27 0 43 5 46 15 4 8 10 13 15 10 4 -3 5 -13 2 -23z m54 -19 c-3
-10 -5 -2 -5 17 0 19 2 27 5 18 2 -10 2 -26 0 -35z m862 17 c4 0 8 -6 8 -13 0
-16 -87 -18 -88 -2 0 6 -4 1 -9 -10 -7 -17 -9 -17 -9 -2 -1 21 -21 23 -21 1 0
-8 -4 -13 -10 -9 -5 3 -6 13 -3 21 4 12 17 14 54 11 41 -3 49 -1 54 17 6 19 8
19 12 4 2 -10 8 -18 12 -18z m541 15 c-16 -19 -6 -47 15 -39 8 3 12 10 9 15
-3 5 0 9 5 9 12 0 15 -33 4 -43 -3 -4 -17 0 -30 8 -13 9 -23 11 -23 5 0 -5 -4
-10 -10 -10 -5 0 -10 14 -10 31 0 23 4 30 15 26 8 -4 17 -2 20 3 4 6 9 10 12
10 3 0 0 -7 -7 -15z m220 -22 c0 -28 -3 -34 -10 -23 -8 12 -13 13 -30 2 -17
-10 -20 -10 -20 5 0 15 -2 14 -15 -3 -14 -19 -14 -19 -15 1 -1 19 -1 19 -14 3
-14 -19 -52 -26 -41 -8 4 6 11 7 17 4 7 -4 8 -2 4 4 -11 18 -34 14 -39 -5 -4
-14 -5 -12 -6 5 -1 20 3 22 58 22 33 0 68 3 78 6 15 5 15 4 3 -5 -12 -8 -12
-11 -2 -11 8 0 16 9 19 20 8 31 13 24 13 -17z m-1860 5 c5 -13 9 -17 9 -10 1
7 14 12 31 12 25 0 30 -4 29 -22 0 -22 -1 -22 -9 -3 l-9 20 -1 -20 c-2 -17 -3
-17 -7 -2 -5 20 -23 23 -23 4 0 -8 -13 -13 -34 -13 -27 0 -32 3 -28 18 2 10 9
18 14 18 5 0 6 -4 3 -10 -3 -5 -1 -10 4 -10 14 0 14 13 -1 28 -9 9 -9 12 0 12
7 0 17 -10 22 -22z m831 -22 c1 -6 5 3 9 19 l8 30 1 -31 c1 -29 -1 -30 -34
-30 -19 1 -35 2 -35 3 0 1 5 14 12 28 11 25 13 26 25 9 7 -10 14 -23 14 -28z
m10436 -8 c-6 -4 -8 -10 -5 -13 10 -11 28 4 28 23 1 16 1 16 11 0 5 -10 19
-18 29 -18 11 0 20 -5 20 -11 0 -5 4 -8 9 -4 13 8 22 -10 15 -29 -5 -12 -10
-14 -19 -6 -7 6 -32 14 -56 18 -42 7 -44 9 -46 45 -1 34 0 36 12 20 10 -13 10
-20 2 -25z m-10375 21 c15 -8 19 -8 14 0 -4 6 -2 11 3 11 6 0 11 -9 11 -20 0
-25 -25 -26 -40 -2 -8 11 -10 12 -7 2 2 -8 1 -24 -4 -35 -6 -15 -8 -11 -8 18
-1 41 1 42 31 26z m62 3 c-6 -4 -14 -14 -17 -22 -4 -10 -6 -8 -6 8 -1 15 5 22
17 22 10 0 13 -3 6 -8z m6996 -22 c0 -5 -5 -10 -11 -10 -5 0 -7 -5 -3 -12 4
-7 3 -8 -4 -4 -6 4 -9 13 -5 21 6 17 23 20 23 5z m1233 -16 c-4 -12 -8 -12
-21 -2 -11 9 -13 9 -9 1 4 -6 3 -14 -3 -18 -5 -3 -10 3 -10 14 0 11 8 21 18
24 24 5 32 -1 25 -19z m-9380 -4 c4 -17 14 -20 56 -20 50 0 51 -1 49 -28 -1
-15 1 -33 5 -39 4 -6 3 -14 -3 -18 -7 -4 -7 -12 0 -25 28 -53 -13 -110 -79
-110 -49 0 -78 33 -67 78 4 15 7 39 6 55 0 26 1 27 57 29 l58 2 -58 3 c-55 4
-57 5 -56 31 1 15 -2 35 -6 45 -5 13 -2 17 13 17 11 0 22 -8 25 -20z m822 -2
c8 -19 19 -24 63 -26 44 -3 53 -6 50 -20 -3 -14 -17 -18 -71 -20 -37 -2 -67 1
-68 5 0 4 -2 25 -5 46 -5 42 15 52 31 15z m10565 5 c0 -3 -9 -16 -19 -29 -17
-21 -20 -22 -25 -7 -6 15 -8 15 -17 3 -8 -13 -10 -13 -18 -1 -13 19 9 43 27
29 9 -8 11 -7 7 4 -5 12 0 14 19 11 14 -3 26 -7 26 -10z m-4065 -2 c3 -5 -4
-45 -16 -88 -17 -60 -20 -93 -15 -144 5 -56 3 -68 -10 -73 -9 -4 -23 -1 -30 5
-17 14 -19 93 -3 137 6 17 9 39 7 49 -7 32 -28 -20 -41 -100 -9 -55 -16 -73
-29 -75 -21 -4 -24 31 -7 91 6 22 8 42 5 45 -13 12 -27 -17 -36 -72 -13 -83
-19 -96 -41 -96 -23 0 -23 14 -4 95 38 156 -6 185 -50 33 -11 -39 -22 -58 -32
-58 -12 0 -15 8 -10 39 6 48 51 148 79 178 38 41 78 26 78 -28 0 -17 3 -18 20
-7 17 11 22 10 29 -1 7 -11 10 -9 15 7 7 22 60 72 76 72 5 0 11 -4 15 -9z
m772 -6 c0 -8 -4 -15 -9 -15 -10 0 -11 14 -1 23 9 10 10 9 10 -8z m348 5 c-3
-5 -1 -10 4 -10 6 0 10 -10 10 -22 -1 -21 -2 -21 -7 -3 l-5 20 -8 -20 c-6 -16
-8 -14 -8 13 -1 17 4 32 10 32 5 0 7 -4 4 -10z m1059 -2 c-6 -10 -74 -7 -74 3
0 4 18 7 39 6 22 0 37 -5 35 -9z m596 -7 c57 -16 62 -19 40 -26 -14 -4 -33
-14 -43 -23 -22 -20 -57 -23 -57 -5 0 7 7 13 15 13 8 0 15 4 15 10 0 5 -7 7
-15 4 -8 -4 -15 -1 -15 5 0 6 -7 11 -16 11 -10 0 -14 -5 -10 -16 3 -8 2 -12
-4 -9 -5 3 -20 8 -31 10 -32 6 -35 13 -13 30 25 19 56 19 134 -4z m-8063 -21
c2 -11 -2 -20 -7 -20 -6 0 -10 12 -10 27 0 29 12 24 17 -7z m6369 21 c-17 -7
-17 -8 -2 -24 15 -14 15 -17 2 -17 -8 0 -18 5 -21 10 -11 17 3 40 22 39 17 0
16 -1 -1 -8z m100 -5 c3 -8 13 -12 22 -9 13 4 14 3 3 -5 -7 -5 -10 -16 -7 -23
5 -9 2 -8 -6 1 -7 9 -21 14 -30 12 -11 -2 -18 2 -18 11 0 28 27 37 36 13z
m814 4 c0 -5 -2 -10 -4 -10 -3 0 -8 5 -11 10 -3 6 -1 10 4 10 6 0 11 -4 11
-10z m257 -17 c-2 -2 -18 0 -36 3 -21 4 -28 10 -20 14 11 7 64 -9 56 -17z
m-2207 -18 c-7 -8 -16 -15 -21 -15 -13 0 -11 24 3 38 18 18 35 -3 18 -23z
m1947 0 c-8 -9 -18 -10 -29 -4 -34 18 -18 43 17 27 18 -8 21 -13 12 -23z
m-8897 4 c0 -5 -15 -9 -32 -9 -31 1 -32 2 -15 15 19 14 47 10 47 -6z m55 1
c-6 -10 -45 -1 -45 10 0 4 11 5 25 2 14 -2 23 -8 20 -12z m7565 16 c0 -3 -4
-8 -10 -11 -5 -3 -10 -1 -10 4 0 6 5 11 10 11 6 0 10 -2 10 -4z m535 -26 c-5
-8 -11 -8 -17 -2 -6 6 -7 16 -3 22 5 8 11 8 17 2 6 -6 7 -16 3 -22z m1133 15
c28 -9 29 -25 0 -17 -14 3 -19 2 -14 -6 4 -7 2 -12 -4 -12 -6 0 -13 7 -16 15
-4 8 -14 15 -23 15 -9 0 -23 5 -31 11 -17 11 48 7 88 -6z m-9460 -10 c-11 -8
-88 -14 -88 -6 0 11 36 18 68 12 13 -2 22 -5 20 -6z m82 5 c3 -1 -4 -5 -15 -9
-22 -9 -55 -3 -55 10 0 7 43 6 70 -1z m788 -8 c2 -7 -2 -10 -12 -6 -9 3 -16
11 -16 16 0 13 23 5 28 -10z m117 8 c4 -6 -15 -9 -52 -9 -56 2 -56 2 -18 9 60
11 63 11 70 0z m65 -2 c0 -5 -11 -8 -25 -8 -14 0 -25 4 -25 9 0 5 11 8 25 7
14 0 25 -4 25 -8z m30 8 c0 -3 -4 -8 -10 -11 -5 -3 -10 -1 -10 4 0 6 5 11 10
11 6 0 10 -2 10 -4z m6619 -18 c0 -16 -2 -18 -6 -8 -3 8 -11 18 -17 22 -7 5
-4 8 7 8 11 0 17 -7 16 -22z m1575 0 c8 -12 13 -25 10 -30 -3 -4 5 -8 17 -8
32 0 18 -9 -20 -14 -17 -2 -34 1 -37 5 -3 5 -9 7 -14 4 -5 -3 -12 0 -16 6 -4
7 -3 10 2 7 5 -3 17 3 27 14 9 10 13 18 7 18 -5 0 -10 5 -10 10 0 17 18 11 34
-12z m1763 7 c-4 -8 -2 -17 3 -20 5 -3 7 -12 4 -20 -4 -11 -11 -12 -24 -5 -14
8 -19 5 -23 -11 -3 -12 -10 -18 -17 -14 -6 3 -10 3 -9 -2 4 -26 -2 -45 -15
-40 -10 4 -12 0 -8 -15 4 -18 1 -20 -21 -16 -25 5 -44 -13 -38 -36 4 -18 -10
-57 -18 -52 -5 3 -11 17 -13 31 -3 13 -2 22 2 20 5 -3 10 2 14 10 3 8 1 17 -4
20 -6 4 -10 14 -10 23 1 13 4 11 13 -6 l13 -23 12 26 c7 14 17 23 22 20 6 -4
9 -1 8 7 -2 8 4 12 16 10 11 -2 15 1 11 8 -9 14 14 42 28 33 6 -3 7 -1 3 5 -4
7 5 23 21 37 33 29 37 30 30 10z m346 1 c10 -8 17 -18 16 -22 -4 -22 2 -35 14
-28 6 4 4 -2 -6 -12 -17 -18 -18 -18 -42 8 -25 27 -31 48 -18 61 9 10 15 8 36
-7z m-10617 -9 c4 -4 -2 -7 -14 -7 -12 0 -22 4 -22 9 0 10 26 9 36 -2z m54 3
c0 -13 -11 -13 -30 0 -12 8 -11 10 8 10 12 0 22 -4 22 -10z m1677 -22 c-3 -7
-5 -2 -5 12 0 14 2 19 5 13 2 -7 2 -19 0 -25z m5070 -20 c-2 -13 -4 -5 -4 17
-1 22 1 32 4 23 2 -10 2 -28 0 -40z m790 20 c-3 -7 -5 -2 -5 12 0 14 2 19 5
13 2 -7 2 -19 0 -25z m683 2 c0 -5 -7 -7 -15 -4 -8 4 -12 10 -9 15 6 11 24 2
24 -11z m2287 -37 c29 -32 50 -59 48 -61 -2 -3 -12 4 -22 13 -9 10 -31 24 -48
31 -16 7 -24 13 -17 14 6 0 12 5 12 10 0 11 -39 29 -80 37 -41 7 -36 13 11 13
41 0 48 -4 96 -57z m-1780 31 c13 -4 21 -10 18 -14 -3 -5 6 -18 21 -29 20 -16
38 -20 85 -18 32 1 59 1 59 -1 0 -1 -11 -7 -24 -12 -21 -8 -61 -5 -205 16 -43
7 -31 18 17 17 20 -1 30 1 21 3 -10 3 -19 14 -22 25 -6 21 -3 22 30 13z m209
-19 c-1 -28 -4 -29 -26 -15 -11 7 -11 10 -2 10 7 0 10 5 6 12 -4 7 -3 8 4 4 7
-4 12 -2 12 3 0 6 2 11 4 11 2 0 3 -11 2 -25z m-9796 3 c0 -5 -9 -8 -19 -8
-11 0 -22 3 -24 8 -3 4 6 7 19 7 13 0 24 -3 24 -7z m50 8 c0 -3 -4 -8 -10 -11
-5 -3 -10 -1 -10 4 0 6 5 11 10 11 6 0 10 -2 10 -4z m35 -6 c3 -5 1 -10 -4
-10 -6 0 -11 5 -11 10 0 6 2 10 4 10 3 0 8 -4 11 -10z m85 -1 c0 -5 -16 -9
-36 -9 -19 0 -33 4 -30 8 7 12 66 13 66 1z m558 -49 c1 -48 -2 -64 -18 -80
-25 -25 -86 -27 -112 -3 -20 18 -25 78 -8 88 8 5 7 11 0 20 -21 25 0 35 69 35
l67 0 2 -60z m178 48 c5 -8 2 -9 -10 -5 -10 4 -26 2 -37 -3 -11 -7 -19 -7 -19
-1 0 20 55 28 66 9z m90 -1 c4 -4 -9 -7 -29 -7 -20 0 -38 4 -41 8 -6 10 60 10
70 -1z m-183 -8 c-8 -8 -16 -8 -30 0 -16 9 -14 10 12 11 21 0 26 -3 18 -11z
m9034 5 c-3 -3 -12 -4 -19 -1 -8 3 -5 6 6 6 11 1 17 -2 13 -5z m1035 -18 c18
-25 14 -27 -29 -12 -19 6 -20 10 -10 21 16 19 19 18 39 -9z m1094 -4 c-4 -10
-18 -24 -32 -30 -32 -15 -34 -15 -34 2 0 7 14 19 30 26 17 7 30 17 30 23 0 6
3 8 6 4 3 -3 3 -14 0 -25z m-9429 -4 c-3 -8 -6 -5 -6 6 -1 11 2 17 5 13 3 -3
4 -12 1 -19z m6880 16 c-3 -3 -12 -4 -19 -1 -8 3 -5 6 6 6 11 1 17 -2 13 -5z
m-1953 -49 c44 -40 48 -76 10 -94 -25 -11 -26 -11 -20 15 12 46 -1 64 -46 64
-35 0 -39 2 -28 15 7 8 10 21 7 28 -9 25 39 7 77 -28z m2016 35 c0 -5 -2 -10
-4 -10 -3 0 -8 5 -11 10 -3 6 -1 10 4 10 6 0 11 -4 11 -10z m1171 -31 c-12
-19 -21 -30 -21 -26 0 12 33 67 38 63 1 -2 -6 -19 -17 -37z m533 33 c2 -4 1
-14 -5 -22 -7 -13 -9 -12 -9 2 0 9 -6 19 -12 21 -8 3 -7 6 4 6 9 1 19 -3 22
-7z m279 -6 c7 -19 -1 -26 -31 -26 -24 0 -25 1 -7 20 21 24 31 25 38 6z
m-5033 -12 c6 -6 16 -30 23 -55 9 -27 19 -43 27 -41 10 2 11 0 2 -11 -7 -8 -9
-17 -5 -20 3 -4 0 -14 -7 -23 -12 -13 -11 -17 1 -25 8 -5 9 -9 3 -9 -7 0 -12
-15 -12 -35 0 -23 4 -33 12 -29 6 3 4 0 -5 -8 -9 -7 -16 -27 -17 -43 0 -17 -8
-62 -17 -100 -15 -65 -15 -71 1 -82 9 -7 20 -14 24 -15 5 -2 10 -16 12 -33 2
-24 -1 -30 -22 -36 -21 -6 -22 -7 -4 -8 22 -1 44 -19 44 -36 0 -22 -65 -47
-104 -39 -21 3 -113 8 -204 9 -209 4 -352 15 -352 27 0 5 8 8 18 7 9 -2 34 5
54 15 21 10 44 16 53 13 16 -7 31 8 17 17 -5 3 -39 6 -75 7 l-67 2 0 262 0
262 28 12 c18 9 106 15 267 18 132 3 241 6 242 7 7 6 55 -2 63 -10z m1223 -60
c9 -18 30 -43 47 -58 38 -31 24 -35 -15 -4 -30 23 -65 91 -64 123 1 16 2 15 8
-5 5 -14 15 -39 24 -56z m-7328 56 c4 -6 7 -59 7 -117 0 -115 -8 -133 -58
-133 -52 0 -54 4 -54 124 0 74 4 116 12 124 15 15 84 16 93 2z m819 4 c13 -5
16 -25 16 -118 0 -124 -5 -136 -56 -136 -63 0 -64 1 -64 126 0 97 2 114 18
123 19 12 62 14 86 5z m6857 -21 c-13 -8 -29 -30 -37 -47 -11 -26 -13 -27 -14
-9 0 22 58 89 68 78 3 -3 -5 -13 -17 -22z m2824 17 c-3 -5 -16 -10 -28 -10
-18 0 -19 2 -7 10 20 13 43 13 35 0z m825 -22 c12 4 11 1 -2 -20 -15 -23 -15
-26 0 -42 16 -16 15 -16 -17 -3 -42 18 -56 40 -36 57 8 7 15 20 15 29 1 12 3
11 13 -5 7 -12 18 -19 27 -16z m-3394 -6 c-17 -16 -18 -16 -5 5 7 12 15 20 18
17 3 -2 -3 -12 -13 -22z m-36 -7 c-7 -9 -15 -13 -17 -11 -7 7 7 26 19 26 6 0
6 -6 -2 -15z m480 -113 c0 -22 -4 -20 -52 23 -29 26 -53 55 -54 65 -1 9 -5 24
-10 31 -4 8 20 -11 54 -41 42 -37 62 -62 62 -78z m2807 108 c4 -12 3 -13 -5
-1 -5 7 -15 10 -21 6 -9 -5 -9 -10 0 -21 6 -7 16 -11 22 -7 6 4 8 -2 5 -15 -5
-16 -2 -22 10 -22 15 -1 15 -2 -1 -11 -15 -9 -16 -13 -6 -25 9 -11 9 -18 1
-26 -15 -15 -32 0 -28 25 2 12 -3 38 -11 56 -7 19 -11 41 -8 49 6 17 37 12 42
-8z m-7987 3 c0 -5 -12 -26 -25 -48 -31 -50 -31 -53 3 -58 22 -3 20 -4 -10 -6
-21 0 -38 2 -38 7 0 4 12 25 25 47 31 50 31 53 -2 58 -23 3 -21 4 10 6 20 0
37 -2 37 -6z m483 -113 c-2 -3 -9 3 -14 13 -13 22 -65 23 -73 1 -4 -9 -9 -15
-12 -12 -3 3 7 32 22 64 l26 59 28 -60 c16 -33 26 -62 23 -65z m24 28 c-2 -18
-4 -4 -4 32 0 36 2 50 4 33 2 -18 2 -48 0 -65z m463 26 c0 -30 -4 -54 -10 -54
-6 0 -10 27 -10 61 0 37 4 58 10 54 6 -3 10 -31 10 -61z m46 3 c10 4 12 0 8
-11 -3 -9 0 -24 7 -34 11 -14 9 -13 -9 2 -22 19 -22 19 -24 0 0 -10 -4 1 -7
26 -4 25 -4 54 -1 65 3 13 6 8 8 -17 2 -27 7 -36 18 -31z m3534 53 c0 -5 -2
-10 -4 -10 -3 0 -8 5 -11 10 -3 6 -1 10 4 10 6 0 11 -4 11 -10z m73 -14 c-10
-13 -19 -23 -21 -21 -5 5 22 45 31 45 4 0 0 -11 -10 -24z m1597 20 c0 -3 -4
-8 -10 -11 -5 -3 -10 -1 -10 4 0 6 5 11 10 11 6 0 10 -2 10 -4z m-6037 -48
c17 -2 22 -10 24 -38 1 -33 1 -33 -5 -6 -10 41 -29 43 -41 4 -8 -30 -9 -27 -9
27 1 33 3 50 5 38 3 -13 13 -23 26 -25z m957 24 c0 -9 10 -22 23 -27 23 -10
38 -65 18 -65 -6 0 -11 14 -11 31 0 38 -24 35 -28 -4 -6 -49 -22 -28 -22 28 0
30 5 55 10 55 6 0 10 -8 10 -18z m297 -64 c-2 -18 -4 -6 -4 27 0 33 2 48 4 33
2 -15 2 -42 0 -60z m143 27 c0 -52 -2 -55 -24 -55 -16 0 -27 7 -31 20 -7 23
10 50 31 50 8 0 14 9 14 20 0 11 2 20 5 20 3 0 5 -25 5 -55z m2180 35 c0 -11
5 -20 10 -20 6 0 9 -12 8 -27 -3 -26 -1 -28 32 -25 19 1 44 12 55 22 21 20 21
20 45 -5 12 -13 27 -22 33 -18 6 4 8 -2 5 -15 -4 -12 -2 -20 3 -16 16 9 9 -10
-12 -36 -12 -14 -19 -18 -16 -9 3 9 1 22 -3 30 -7 10 -11 7 -19 -14 -13 -33
-24 -36 -15 -3 5 22 2 24 -48 28 -67 7 -78 2 -78 -32 0 -16 -5 -32 -11 -36 -8
-4 -9 3 -3 27 4 19 7 41 6 49 -1 8 -3 39 -6 68 -3 29 -1 52 5 52 5 0 9 -9 9
-20z m125 6 c7 3 16 1 19 -4 3 -5 -15 -18 -39 -28 -25 -10 -45 -21 -45 -24 0
-3 -8 -6 -18 -6 -12 0 -17 8 -16 26 1 22 5 25 37 25 19 0 35 2 35 5 -1 15 4
23 8 13 3 -7 11 -10 19 -7z m615 0 c0 -2 -8 -10 -17 -17 -16 -13 -17 -12 -4 4
13 16 21 21 21 13z m78 -16 c-7 -10 -14 -17 -17 -15 -4 4 18 35 25 35 2 0 -1
-9 -8 -20z m3033 8 c0 -10 2 -10 6 0 5 14 83 17 83 3 0 -17 30 -20 57 -6 35
19 67 20 57 3 -5 -8 0 -7 11 2 20 16 21 16 49 -8 11 -9 16 -11 12 -4 -4 6 -2
12 4 12 15 0 40 -62 40 -97 0 -17 -9 -36 -21 -47 -23 -19 -89 -50 -89 -41 0 2
-11 0 -25 -5 -15 -6 -26 -6 -30 1 -4 5 -10 7 -15 4 -5 -3 -11 -1 -15 5 -4 7
-12 7 -24 0 -10 -5 -20 -8 -22 -5 -2 2 -24 6 -48 9 -24 2 -48 11 -52 18 -5 7
-9 9 -9 5 0 -4 -8 -3 -19 2 -25 14 -35 67 -17 93 8 11 12 27 9 35 -3 8 0 19 8
24 21 13 49 11 50 -3z m-3077 -23 c-9 -14 -18 -25 -20 -25 -2 0 2 11 8 25 6
14 15 25 20 25 5 0 1 -11 -8 -25z m-4274 5 c10 -6 11 -10 3 -10 -7 0 -13 -11
-13 -24 0 -13 6 -27 13 -30 6 -3 3 -5 -8 -3 -15 2 -21 11 -23 40 -3 38 2 44
28 27z m-1166 -6 c25 -10 19 -31 -11 -38 -26 -7 -43 5 -43 32 0 13 28 16 54 6z
m964 -32 c3 -26 0 -32 -17 -32 -25 0 -37 18 -22 33 9 9 11 8 6 -5 -5 -12 -2
-18 8 -18 20 0 19 48 -2 54 -10 3 -9 4 4 3 15 -2 21 -11 23 -35z m72 29 c0 -5
-8 -8 -17 -7 -12 1 -19 -7 -21 -23 -3 -21 -1 -23 23 -19 17 4 23 2 17 -4 -6
-6 -18 -8 -28 -6 -23 4 -31 47 -12 59 17 11 38 11 38 0z m208 -14 c3 -13 -3
-17 -24 -17 -30 0 -23 -14 11 -23 12 -3 8 -5 -10 -4 -33 2 -45 28 -24 53 16
19 43 14 47 -9z m248 -1 c7 -31 -1 -46 -26 -46 -13 0 -20 -9 -23 -27 -2 -16
-5 -3 -6 28 0 31 2 59 6 62 15 16 43 6 49 -17z m72 1 c2 -12 -3 -17 -17 -17
-28 0 -27 -17 2 -23 15 -4 12 -5 -8 -4 -33 2 -45 28 -24 53 16 19 43 14 47 -9z
m79 -17 c0 -19 -1 -25 -4 -13 -2 12 -11 27 -18 33 -16 13 -18 9 -28 -35 -3
-11 -5 -3 -6 18 -1 36 1 38 27 35 23 -3 27 -8 29 -38z m120 0 c1 -33 1 -34 -5
-6 -8 36 -26 36 -30 1 -4 -33 -20 -32 -24 3 -4 36 -21 35 -29 -3 l-7 -30 -1
31 c-1 40 4 44 53 41 39 -2 41 -3 43 -37z m71 28 c18 -18 14 -26 -15 -30 l-28
-4 25 -12 25 -12 -25 3 c-15 1 -26 9 -28 20 -8 40 20 61 46 35z m172 1 c0 -5
-4 -8 -9 -5 -5 3 -14 -1 -21 -10 -15 -17 -6 -29 25 -37 12 -3 8 -5 -10 -4 -33
2 -45 28 -25 52 14 17 40 20 40 4z m160 -10 c13 -24 -2 -49 -31 -49 -22 0 -35
36 -19 55 17 21 37 19 50 -6z m70 12 c0 -5 -8 -8 -17 -7 -25 2 -30 -41 -6 -47
15 -3 14 -4 -2 -3 -24 1 -34 44 -13 57 17 11 38 11 38 0z m68 0 c8 -4 12 -19
10 -32 -2 -18 -9 -24 -28 -24 -19 0 -26 6 -28 24 -3 20 11 41 28 41 3 0 11 -4
18 -9z m106 -7 c13 -35 7 -54 -19 -54 -18 0 -25 5 -25 20 0 11 4 20 10 20 5 0
7 -7 4 -15 -4 -8 -1 -15 5 -15 15 0 14 47 -1 53 -8 4 -7 6 3 6 9 1 20 -6 23
-15z m144 4 c18 -18 14 -26 -15 -30 l-28 -4 25 -12 25 -12 -25 3 c-28 2 -38
30 -20 52 15 18 22 19 38 3z m2759 -10 c-3 -8 -6 -5 -6 6 -1 11 2 17 5 13 3
-3 4 -12 1 -19z m-724 -1 c4 3 7 -1 7 -10 0 -9 -4 -17 -10 -17 -5 0 -10 5 -10
11 0 6 -7 9 -14 6 -10 -4 -13 -1 -9 9 4 10 9 12 18 4 6 -5 15 -7 18 -3z m3536
-29 c22 -24 38 -44 37 -46 -2 -1 -24 9 -49 24 -31 17 -47 32 -47 45 0 29 16
23 59 -23z m-10838 22 c20 -11 25 -35 10 -44 -5 -4 -7 3 -4 14 3 11 1 20 -5
20 -6 0 -9 -20 -6 -53 4 -47 2 -55 -21 -77 -70 -65 -180 14 -122 88 8 10 2 12
-24 10 -28 -3 -34 0 -34 17 0 18 9 21 90 26 50 3 91 6 93 7 2 1 12 -3 23 -8z
m265 -2 c4 -5 14 -8 23 -7 12 0 11 3 -4 10 -19 8 -19 9 -1 6 11 -1 20 -10 22
-20 1 -11 -2 -15 -9 -10 -9 5 -9 3 -1 -8 11 -14 11 -30 0 -75 -6 -22 -22 -32
-61 -40 -25 -4 -70 25 -70 46 0 8 -7 14 -15 12 -12 -3 -12 0 1 15 9 10 14 24
12 31 -3 6 0 12 5 12 6 0 13 8 16 18 5 14 16 18 40 18 19 -1 38 -4 42 -8z
m555 -10 c-4 -13 -6 -41 -4 -63 4 -29 0 -47 -14 -63 -57 -69 -166 -2 -123 78
9 16 6 18 -30 13 -31 -4 -40 -2 -40 9 0 28 24 36 115 37 49 1 91 4 94 7 9 9
10 3 2 -18z m-668 -13 c-7 -21 -12 -19 -10 4 0 11 5 18 9 15 4 -3 5 -11 1 -19z
m949 12 c23 -18 29 -71 11 -97 -22 -31 -59 -43 -86 -27 -31 17 -37 27 -37 64
0 58 67 94 112 60z m1903 -7 c32 -6 63 -14 68 -19 5 -5 -13 -5 -40 0 -26 5
-69 11 -95 14 -27 4 -48 10 -48 15 0 5 12 7 28 5 15 -3 54 -9 87 -15z m5375 1
c10 -1 11 -4 3 -9 -6 -4 -61 -7 -122 -7 -61 0 -112 -3 -113 -6 -2 -4 -19 -9
-38 -13 l-35 -6 38 19 c26 12 64 19 115 20 42 1 77 3 79 4 2 3 36 2 73 -2z
m-8615 -11 c-3 -5 -2 -10 3 -10 6 0 13 -8 16 -17 6 -15 5 -15 -13 1 -18 16
-20 36 -5 36 3 0 2 -4 -1 -10z m7585 -46 c0 -25 -5 -44 -11 -44 -6 0 -8 8 -5
18 9 27 -9 45 -38 40 -14 -3 -26 -1 -26 3 0 5 9 9 20 9 11 0 23 6 26 14 12 31
34 4 34 -40z m-4633 40 c-3 -3 -12 -4 -19 -1 -8 3 -5 6 6 6 11 1 17 -2 13 -5z
m-2673 -49 c-5 -11 -9 -12 -19 -2 -7 7 -9 14 -4 15 5 2 6 9 2 15 -4 7 0 7 9
-1 9 -8 14 -20 12 -27z m8221 27 c-5 -5 -42 -12 -81 -16 -39 -3 -80 -9 -90
-12 -11 -4 -16 -3 -11 2 11 12 90 29 147 32 28 2 41 0 35 -6z m95 -2 c11 -7 1
-9 -32 -8 -27 0 -48 4 -48 9 0 12 61 11 80 -1z m825 -19 c61 -16 104 -30 97
-30 -16 -1 -214 47 -220 54 -9 9 12 5 123 -24z m942 21 c8 -5 10 -21 6 -46 -6
-40 -23 -32 -23 12 0 15 -6 22 -19 22 -13 0 -19 -6 -19 -17 1 -10 -2 -30 -5
-46 -7 -27 -6 -27 28 -24 l36 4 -3 -61 c-3 -56 -5 -61 -31 -70 -17 -6 -31 -6
-37 0 -5 5 3 10 22 11 39 3 42 6 34 38 -9 34 -39 33 -53 -2 -9 -23 -11 -12
-12 69 -1 83 2 99 17 107 21 12 43 13 59 3z m1478 -23 c11 -16 1 -19 -13 -3
-7 8 -8 14 -3 14 5 0 13 -5 16 -11z m33 -14 c-3 -3 -9 2 -12 12 -6 14 -5 15 5
6 7 -7 10 -15 7 -18z m-3814 6 c3 -4 -6 -6 -19 -3 -14 2 -25 6 -25 8 0 8 39 4
44 -5z m485 5 c-2 -3 -47 -9 -99 -15 -52 -5 -104 -12 -115 -16 -20 -6 -20 -6
0 6 25 16 229 39 214 25z m36 -6 c-3 -5 -10 -10 -16 -10 -5 0 -9 5 -9 10 0 6
7 10 16 10 8 0 12 -4 9 -10z m-5075 -7 c0 -5 -5 -15 -10 -23 -8 -12 -10 -11
-10 8 0 12 5 22 10 22 6 0 10 -3 10 -7z m882 -80 c-3 -15 1 -29 9 -34 11 -7
11 -9 -2 -9 -17 0 -34 64 -22 83 9 15 20 -12 15 -40z m232 35 c10 -10 11 -17
2 -31 -8 -14 -8 -20 4 -27 18 -11 6 -25 -15 -17 -8 4 -15 18 -15 33 0 16 -5
24 -12 21 -7 -2 -12 -15 -11 -28 3 -20 -2 -24 -27 -25 -26 -1 -28 1 -19 18 7
13 7 23 -1 33 -9 10 -3 13 27 13 20 0 39 5 41 11 5 14 10 14 26 -1z m3831 3
c7 -12 -12 -24 -25 -16 -11 7 -4 25 10 25 5 0 11 -4 15 -9z m3686 -1 c16 -9
19 -22 19 -80 0 -66 -1 -70 -22 -69 -13 0 -17 3 -10 6 16 6 6 23 -14 23 -8 0
-12 -4 -9 -10 3 -5 2 -10 -3 -10 -5 0 -9 -7 -9 -15 0 -14 13 -19 46 -18 9 1
10 -2 2 -10 -7 -7 -18 -7 -36 1 -24 11 -25 15 -25 97 0 55 4 84 10 80 6 -3 10
-1 10 4 0 14 16 14 41 1z m-8622 -12 c-1 -7 -5 -24 -9 -38 -7 -22 -8 -21 -9
13 -1 20 4 37 9 37 6 0 10 -6 9 -12z m758 -38 c1 -34 1 -34 -5 -5 -4 17 -14
30 -22 30 -8 0 -18 -13 -21 -30 l-7 -30 -1 33 c-1 40 -31 46 -31 6 0 -14 -4
-22 -10 -19 -8 5 -8 23 -1 53 1 2 22 2 49 0 46 -3 47 -4 49 -38z m76 26 c6
-15 -1 -26 -16 -26 -5 0 -7 7 -3 15 3 9 0 15 -9 15 -10 0 -14 -8 -11 -22 2
-14 10 -22 20 -22 9 1 16 -2 16 -7 0 -14 -36 -10 -50 6 -18 21 -3 55 25 55 12
0 25 -6 28 -14z m160 0 c7 -18 -1 -26 -27 -27 -18 -1 -18 -2 4 -9 22 -6 23 -8
7 -15 -30 -13 -64 35 -40 58 12 12 51 7 56 -7z m175 0 c-10 -7 -18 -23 -18
-35 0 -11 -4 -21 -10 -21 -5 0 -10 16 -10 35 0 32 3 35 28 35 24 -1 25 -2 10
-14z m70 -23 c3 -29 0 -33 -22 -33 -31 0 -39 12 -30 45 10 40 48 31 52 -12z
m102 27 c0 -5 -9 -10 -21 -10 -12 0 -19 -5 -16 -12 2 -7 12 -12 21 -12 9 1 15
-3 13 -10 -5 -16 -38 -13 -50 5 -15 24 -1 49 28 49 14 0 25 -4 25 -10z m65 -7
c6 -17 7 -17 16 0 11 18 49 24 49 7 0 -5 -7 -10 -15 -10 -8 0 -15 -7 -15 -15
0 -22 28 -18 58 7 15 12 19 18 10 15 -10 -4 -18 -2 -18 3 0 6 11 10 25 10 22
0 25 -4 25 -33 l0 -33 -55 -1 c-40 -1 -57 3 -63 14 -8 13 -10 13 -15 -1 -7
-17 -42 -22 -52 -6 -3 5 -3 21 1 35 7 29 38 34 49 8z m210 -3 c7 -23 -10 -50
-30 -50 -20 0 -37 27 -30 50 4 13 15 20 30 20 15 0 26 -7 30 -20z m3390 0 c-3
-5 -10 -10 -16 -10 -5 0 -9 5 -9 10 0 6 7 10 16 10 8 0 12 -4 9 -10z m-3355
-35 c0 -8 -4 -15 -10 -15 -5 0 -10 7 -10 15 0 8 5 15 10 15 6 0 10 -7 10 -15z
m2082 -9 c52 -22 62 -38 37 -64 -45 -49 -122 -9 -100 52 12 30 17 31 63 12z
m1719 -23 c13 -16 12 -17 -3 -4 -10 7 -18 15 -18 17 0 8 8 3 21 -13z m-1851
-18 c-10 -12 -10 -15 3 -15 8 0 17 -3 20 -7 2 -5 2 -2 1 5 -2 6 3 12 11 12 15
0 22 -39 8 -41 -40 -6 -58 -2 -61 14 -3 16 13 47 25 47 3 0 0 -7 -7 -15z
m1858 -38 c12 -13 20 -26 17 -29 -3 -3 8 -20 25 -38 55 -59 33 -68 -25 -10
-35 34 -55 63 -55 77 0 29 11 29 38 0z m3562 14 c42 -6 39 -7 -56 -19 -81 -10
-107 -10 -129 0 -24 11 -25 13 -8 19 23 10 134 10 193 0z m-3123 -41 c5 -54 5
-71 1 -75 -3 -3 -32 -8 -66 -11 -68 -7 -63 -13 -66 61 -1 28 2 30 39 36 78 12
91 10 92 -11z m-152 -51 c-4 -60 -15 -60 -15 0 0 29 4 50 9 47 5 -4 8 -24 6
-47z m-2172 14 c-7 -2 -21 -2 -30 0 -10 3 -4 5 12 5 17 0 24 -2 18 -5z m2080
-20 c-19 -7 -16 -16 8 -32 19 -11 21 -11 16 3 -4 9 -1 16 6 16 7 0 13 -9 14
-19 1 -13 -4 -18 -15 -16 -9 1 -22 -2 -29 -7 -16 -13 -33 -2 -33 21 0 19 19
41 35 40 5 0 4 -3 -2 -6z m-5421 -168 c128 -89 113 -281 -27 -346 -38 -18 -86
-19 -928 -19 -961 0 -926 -2 -986 53 -56 52 -76 151 -46 225 21 49 52 81 100
103 38 18 82 19 942 16 l901 -2 44 -30z m6711 19 c77 -39 117 -103 117 -187 0
-71 -44 -141 -110 -174 l-44 -23 -891 0 c-844 0 -892 1 -930 19 -46 21 -74 50
-104 106 -16 31 -29 41 -53 46 l-33 6 38 2 c22 0 37 6 37 14 0 9 -23 11 -87
10 -55 -2 -80 1 -68 6 30 12 -98 13 -131 1 -18 -7 -31 -7 -40 1 -14 11 -34 5
-34 -12 0 -5 7 -9 15 -9 8 0 15 -3 15 -7 0 -10 -118 -8 -145 2 -16 6 -17 5 -5
-5 13 -9 12 -11 -5 -9 -39 3 -55 -1 -55 -14 0 -15 -58 -39 -65 -27 -6 10 -57
10 -71 -1 -13 -11 -76 0 -69 12 3 4 -16 1 -42 -8 -33 -12 -48 -13 -51 -5 -2 6
-20 14 -40 17 -20 4 -48 8 -60 11 -15 3 -21 1 -17 -6 9 -15 -256 -10 -272 6
-19 18 15 25 157 30 69 3 132 7 140 11 8 3 38 6 65 6 37 -1 45 2 30 8 -16 7
-13 8 15 8 65 -2 93 1 86 8 -3 4 -28 6 -54 6 -46 -2 -46 -1 -12 7 19 5 54 5
78 0 30 -5 47 -4 55 5 14 14 74 26 125 26 17 0 32 5 32 11 0 7 5 7 14 -1 7 -6
42 -13 77 -15 83 -5 79 -4 74 -18 -4 -9 10 -14 45 -16 27 -1 50 2 50 7 0 5
-12 9 -27 9 -48 -1 -55 1 -46 15 4 6 8 18 9 25 4 22 7 22 100 26 49 2 89 5 89
6 0 1 37 3 82 4 69 2 86 6 105 23 59 56 8 53 981 53 807 0 901 -2 930 -16z
m-3670 -34 l21 0 -22 -20 c-15 -14 -35 -20 -69 -20 -31 0 -43 3 -34 9 7 5 11
13 7 19 -7 11 38 22 62 15 8 -1 23 -3 35 -3z m-593 -30 c0 -5 -7 -10 -15 -10
-8 0 -15 5 -15 10 0 6 7 10 15 10 8 0 15 -4 15 -10z m30 0 c0 -5 -5 -10 -11
-10 -5 0 -7 5 -4 10 3 6 8 10 11 10 2 0 4 -4 4 -10z m150 0 c11 -7 -3 -9 -45
-9 -45 1 -54 3 -35 9 35 11 63 11 80 0z m50 0 c0 -5 -4 -10 -10 -10 -5 0 -10
5 -10 10 0 6 5 10 10 10 6 0 10 -4 10 -10z m180 0 c0 -5 -17 -10 -37 -9 -31 0
-34 2 -18 9 28 12 55 12 55 0z m-133 -6 c-3 -3 -12 -4 -19 -1 -8 3 -5 6 6 6
11 1 17 -2 13 -5z m283 -79 c0 -7 6 -16 13 -18 7 -3 4 -6 -7 -6 -12 -1 -16 -6
-12 -16 6 -17 4 -18 -19 -9 -13 5 -14 8 -3 15 10 7 9 9 -4 9 -10 0 -18 -7 -18
-16 0 -11 -5 -14 -16 -10 -9 3 -24 6 -34 6 -29 0 -11 53 21 60 35 8 79 0 79
-15z m-309 -5 c10 0 19 -4 19 -10 0 -5 -13 -10 -30 -10 -18 0 -30 5 -30 13 0
18 14 31 18 18 2 -6 12 -11 23 -11z m1826 -26 c-3 -3 -12 -4 -19 -1 -8 3 -5 6
6 6 11 1 17 -2 13 -5z m-7 -26 c0 -4 -15 -8 -34 -8 -19 0 -37 -6 -39 -12 -4
-8 -6 -7 -6 4 -1 9 7 19 17 21 26 7 62 4 62 -5z m140 -9 c0 -5 -17 -10 -37
-10 -24 -1 -29 -3 -15 -6 12 -2 22 -9 22 -15 0 -7 -18 -9 -52 -4 -29 3 -63 6
-75 6 -13 0 -23 4 -23 9 0 5 20 6 45 3 38 -4 44 -2 40 10 -5 12 4 15 44 15 28
0 51 -4 51 -8z m-1286 -36 c-7 -7 -22 -13 -33 -13 -18 0 -20 3 -9 19 7 11 16
17 20 15 4 -3 8 0 8 6 0 7 5 6 13 -2 11 -10 12 -15 1 -25z m91 27 c-3 -6 4
-10 17 -11 22 0 22 -1 3 -9 -12 -5 -14 -9 -6 -9 8 -1 12 -4 8 -7 -8 -8 -41 17
-44 34 -2 6 4 12 13 12 8 0 12 -4 9 -10z m819 -9 c15 -6 12 -9 -18 -18 -20 -6
-34 -7 -30 -2 3 5 13 9 22 10 11 1 8 4 -8 9 -20 6 -21 8 -5 8 11 0 28 -3 39
-7z m143 -7 c-3 -3 -12 -4 -19 -1 -8 3 -5 6 6 6 11 1 17 -2 13 -5z m297 -2 c3
-5 -14 -9 -37 -9 l-42 -1 35 8 c19 4 36 8 37 9 1 0 4 -3 7 -7z m-377 -8 c-3
-3 -12 -4 -19 -1 -8 3 -5 6 6 6 11 1 17 -2 13 -5z m-914 -11 c-7 -2 -19 -2
-25 0 -7 3 -2 5 12 5 14 0 19 -2 13 -5z m190 0 c-13 -2 -35 -2 -50 0 -16 2 -5
4 22 4 28 0 40 -2 28 -4z m214 1 c-3 -3 -12 -4 -19 -1 -8 3 -5 6 6 6 11 1 17
-2 13 -5z m3130 0 c-3 -3 -12 -4 -19 -1 -8 3 -5 6 6 6 11 1 17 -2 13 -5z"/>
<path d="M1374 6112 c-27 -22 -47 -59 -35 -66 10 -7 22 7 45 52 19 37 18 38
-10 14z"/>
<path d="M1179 6089 c-11 -11 -18 -23 -16 -26 9 -9 47 17 47 32 0 20 -6 19
-31 -6z"/>
<path d="M1241 6056 c-18 -19 -30 -39 -26 -45 3 -6 11 -9 16 -5 9 5 52 84 46
84 -2 0 -18 -15 -36 -34z"/>
<path d="M12406 6095 c-32 -30 -34 -72 -5 -109 36 -45 106 -33 129 24 10 24
10 36 0 60 -23 55 -79 66 -124 25z"/>
<path d="M12912 6075 c-11 -24 -10 -25 18 -25 31 0 39 17 18 38 -17 17 -23 15
-36 -13z"/>
<path d="M12860 6065 c-7 -9 -8 -15 -2 -15 5 0 12 7 16 15 3 8 4 15 2 15 -2 0
-9 -7 -16 -15z"/>
<path d="M12990 6072 c0 -12 19 -26 26 -19 2 2 -2 10 -11 17 -9 8 -15 8 -15 2z"/>
<path d="M12830 5990 c0 -22 5 -30 18 -30 15 0 18 6 14 30 -2 17 -10 30 -18
30 -9 0 -14 -11 -14 -30z"/>
<path d="M12900 5990 c0 -28 3 -30 35 -30 32 0 35 2 35 30 0 28 -3 30 -35 30
-32 0 -35 -2 -35 -30z"/>
<path d="M13000 5989 c0 -24 4 -30 18 -27 10 2 18 14 20 31 3 22 -1 27 -17 27
-17 0 -21 -6 -21 -31z"/>
<path d="M12850 5931 c0 -5 6 -14 14 -20 12 -10 13 -8 9 8 -5 21 -23 30 -23
12z"/>
<path d="M12912 5915 c13 -28 33 -33 42 -9 11 28 7 34 -24 34 -28 0 -29 -1
-18 -25z"/>
<path d="M12996 5925 c-3 -8 -1 -15 3 -15 5 0 11 7 15 15 3 8 1 15 -3 15 -5 0
-11 -7 -15 -15z"/>
<path d="M7071 6021 c-12 -12 -21 -25 -21 -31 0 -5 9 -19 21 -31 18 -18 23
-19 42 -6 12 8 22 25 22 37 0 12 -10 29 -22 37 -19 13 -24 12 -42 -6z"/>
<path d="M9427 6022 c-22 -24 -21 -45 2 -66 15 -14 24 -15 40 -6 26 13 27 51
3 73 -23 21 -25 21 -45 -1z"/>
<path d="M6830 6015 c0 -9 5 -15 11 -13 6 2 11 8 11 13 0 5 -5 11 -11 13 -6 2
-11 -4 -11 -13z"/>
<path d="M6940 6015 c0 -9 5 -15 11 -13 6 2 11 8 11 13 0 5 -5 11 -11 13 -6 2
-11 -4 -11 -13z"/>
<path d="M7230 5990 c0 -28 4 -40 14 -40 18 0 30 33 21 60 -12 37 -35 23 -35
-20z"/>
<path d="M9820 6015 c0 -8 5 -15 10 -15 6 0 10 7 10 15 0 8 -4 15 -10 15 -5 0
-10 -7 -10 -15z"/>
<path d="M11240 5990 c0 -28 4 -40 15 -40 22 0 38 36 25 60 -19 35 -40 24 -40
-20z"/>
<path d="M1730 4340 c0 -5 4 -10 9 -10 6 0 13 5 16 10 3 6 -1 10 -9 10 -9 0
-16 -4 -16 -10z"/>
<path d="M7385 4750 c3 -5 10 -10 16 -10 5 0 9 5 9 10 0 6 -7 10 -16 10 -8 0
-12 -4 -9 -10z"/>
<path d="M7270 4721 c0 -7 -4 -10 -9 -7 -12 8 -23 -41 -16 -65 4 -11 11 -17
16 -14 5 4 9 0 9 -8 0 -25 73 -74 121 -81 42 -6 46 -5 57 19 7 14 12 30 12 34
0 5 -31 19 -69 31 -60 19 -70 26 -73 47 -3 26 -48 67 -48 44z"/>
<path d="M8911 4550 c-1 -21 35 -74 43 -62 3 5 -1 16 -10 23 -9 7 -20 22 -24
34 -6 13 -9 15 -9 5z"/>
<path d="M8577 4514 c-6 -7 18 -81 33 -99 5 -7 7 -15 3 -19 -4 -4 0 -4 9 -1
14 6 13 11 -9 43 -14 22 -23 46 -20 59 4 22 -3 30 -16 17z"/>
<path d="M8509 4488 c-1 -5 -2 -14 -3 -20 -1 -7 -9 -12 -18 -12 -11 1 -15 -5
-12 -19 4 -23 10 -30 28 -33 9 -1 12 5 9 20 -4 20 -4 20 16 -3 l21 -23 0 25
c0 23 -37 82 -41 65z"/>
<path d="M8247 4378 c6 -7 9 -21 8 -31 -3 -14 -1 -16 11 -7 15 13 2 50 -18 50
-7 0 -7 -4 -1 -12z"/>
<path d="M8157 4363 c-9 -8 -9 -48 -1 -56 4 -3 15 -2 25 4 23 12 25 45 3 53
-19 7 -19 7 -27 -1z"/>
<path d="M8505 4335 c50 -18 50 -18 35 0 -7 8 -27 15 -44 15 -31 -1 -31 -1 9
-15z"/>
<path d="M8200 4300 l-35 -18 28 -7 c30 -8 49 3 53 30 3 19 -3 18 -46 -5z"/>
<path d="M8179 3729 c-20 -16 -22 -20 -9 -29 8 -5 18 -10 23 -10 4 0 10 -1 14
-2 3 -2 7 6 9 16 1 10 8 22 14 26 8 5 5 9 -8 12 -10 3 -30 -3 -43 -13z"/>
<path d="M8255 3740 c3 -5 8 -10 11 -10 2 0 4 5 4 10 0 6 -5 10 -11 10 -5 0
-7 -4 -4 -10z"/>
<path d="M8267 3707 c-10 -15 -21 -27 -26 -27 -5 0 -25 -16 -45 -36 -31 -31
-34 -38 -23 -55 15 -25 35 -24 58 2 9 11 37 30 61 42 47 24 55 47 21 62 -12 5
-24 16 -25 24 -2 10 -9 7 -21 -12z"/>
<path d="M8020 3690 c0 -5 5 -10 10 -10 6 0 10 5 10 10 0 6 -4 10 -10 10 -5 0
-10 -4 -10 -10z"/>
<path d="M7600 3555 c0 -8 7 -15 16 -15 14 0 14 3 4 15 -7 8 -14 15 -16 15 -2
0 -4 -7 -4 -15z"/>
<path d="M7549 3486 c-1 0 -3 -17 -4 -36 -1 -31 3 -38 46 -67 26 -17 50 -29
53 -26 12 13 5 36 -19 65 -14 16 -25 38 -25 48 0 12 -8 18 -25 18 -14 0 -26
-1 -26 -2z"/>
<path d="M10691 4727 c-21 -26 -24 -75 -7 -102 32 -48 66 -21 66 52 0 55 -32
82 -59 50z"/>
<path d="M10867 4693 c-4 -3 -7 -14 -7 -23 0 -13 6 -16 24 -13 17 4 24 11 23
24 -2 24 -6 24 -24 2 -14 -17 -14 -17 -9 0 6 18 4 21 -7 10z"/>
<path d="M10795 4639 c-4 -6 -4 -25 -1 -42 5 -25 11 -32 30 -33 l24 -2 -24 35
c-13 20 -21 39 -18 44 3 5 3 9 0 9 -3 0 -8 -5 -11 -11z"/>
<path d="M10898 4633 c-43 -5 -49 -19 -15 -32 26 -10 50 0 53 23 1 9 2 15 1
14 -1 -1 -19 -3 -39 -5z"/>
<path d="M13032 5057 c-25 -26 -29 -47 -9 -47 7 0 21 16 30 35 19 40 10 45
-21 12z"/>
<path d="M12895 5044 c-9 -9 -14 -18 -11 -21 7 -7 46 16 46 27 0 15 -17 12
-35 -6z"/>
<path d="M11400 4581 c-31 -58 10 -142 51 -105 39 35 27 124 -17 124 -13 0
-28 -9 -34 -19z"/>
<path d="M11726 4488 c-20 -29 -20 -82 0 -102 20 -20 27 -20 46 2 25 28 31 71
13 98 -19 30 -39 31 -59 2z"/>
<path d="M11967 4403 c-37 -42 -28 -113 14 -113 28 0 65 81 49 110 -13 25 -42
26 -63 3z"/>
<path d="M12144 4343 c-48 -34 -39 -139 10 -120 22 9 48 64 44 95 -3 28 -31
40 -54 25z"/>
<path d="M12294 4259 c-16 -17 -16 -22 -4 -29 21 -14 58 -12 63 3 6 17 -11 47
-27 47 -7 0 -21 -9 -32 -21z"/>
<path d="M678 3945 c-4 -4 -4 -14 -1 -23 5 -11 3 -13 -7 -7 -9 6 -11 4 -5 -4
10 -17 28 1 23 24 -1 9 -6 14 -10 10z"/>
<path d="M2326 3942 c-3 -5 -10 -20 -15 -34 -7 -19 -6 -25 4 -25 8 0 17 13 21
29 6 30 1 47 -10 30z"/>
<path d="M1497 3933 c-12 -12 -7 -23 11 -23 13 0 14 2 3 9 -11 7 -11 9 0 14 8
3 9 6 3 6 -6 1 -14 -2 -17 -6z"/>
<path d="M1496 3887 c3 -10 9 -15 12 -12 3 3 0 11 -7 18 -10 9 -11 8 -5 -6z"/>
<path d="M10133 3825 c-3 -9 -3 -18 -1 -21 3 -3 8 4 11 16 6 23 -1 27 -10 5z"/>
<path d="M10363 3815 c-3 -9 -3 -18 -1 -21 3 -3 8 4 11 16 6 23 -1 27 -10 5z"/>
<path d="M10242 3780 c-18 -29 -15 -38 4 -12 9 13 14 25 12 27 -2 2 -9 -5 -16
-15z"/>
<path d="M10062 3774 c-7 -8 -8 -14 -3 -14 10 0 25 19 20 25 -2 1 -10 -3 -17
-11z"/>
<path d="M10122 3770 c0 -14 2 -19 5 -12 2 6 2 18 0 25 -3 6 -5 1 -5 -13z"/>
<path d="M10067 3734 c-4 -4 -7 -17 -7 -28 1 -19 1 -20 11 -3 11 19 8 43 -4
31z"/>
<path d="M10181 3698 c-10 -30 -9 -31 4 -14 8 11 15 26 15 33 0 22 -8 14 -19
-19z"/>
<path d="M10251 3709 c-16 -13 -18 -19 -8 -19 15 0 43 27 36 34 -2 3 -15 -4
-28 -15z"/>
<path d="M10330 3679 c0 -5 5 -7 10 -4 6 3 10 8 10 11 0 2 -4 4 -10 4 -5 0
-10 -5 -10 -11z"/>
<path d="M10397 3575 c-15 -10 -17 -21 -12 -44 4 -20 3 -31 -4 -31 -6 0 -11
-10 -11 -22 0 -19 2 -20 14 -8 20 22 48 102 39 111 -4 4 -16 2 -26 -6z"/>
<path d="M5496 3678 c-18 -26 -20 -38 -6 -38 5 0 16 14 25 30 18 35 4 41 -19
8z"/>
<path d="M5375 3669 c-12 -19 5 -23 22 -6 16 16 16 17 1 17 -9 0 -20 -5 -23
-11z"/>
<path d="M10286 2971 c-4 -5 3 -7 14 -4 23 6 26 13 6 13 -8 0 -17 -4 -20 -9z"/>
<path d="M10428 2963 c6 -2 18 -2 25 0 6 3 1 5 -13 5 -14 0 -19 -2 -12 -5z"/>
<path d="M10549 2929 c-10 -6 -4 -9 19 -9 17 0 32 2 32 4 0 9 -39 13 -51 5z"/>
<path d="M2350 3285 c-20 -25 5 -45 56 -45 42 0 44 1 44 30 0 29 -2 30 -44 30
-26 0 -48 -6 -56 -15z"/>
<path d="M2660 2880 c-9 -6 -10 -10 -3 -10 6 0 15 5 18 10 8 12 4 12 -15 0z"/>
<path d="M2871 2871 c-8 -6 -9 -11 -3 -15 6 -3 14 -1 17 5 9 14 2 20 -14 10z"/>
<path d="M2534 2858 c-4 -7 -3 -8 5 -4 6 4 18 2 26 -4 9 -7 15 -8 15 -2 0 5
-7 13 -16 16 -21 8 -22 8 -30 -6z"/>
<path d="M2627 2853 c3 -8 14 -11 31 -6 17 4 23 2 18 -6 -5 -7 2 -11 21 -11
26 0 26 1 8 14 -29 19 -84 26 -78 9z"/>
<path d="M2818 2863 c7 -3 16 -2 19 1 4 3 -2 6 -13 5 -11 0 -14 -3 -6 -6z"/>
<path d="M2495 2850 c-3 -6 1 -7 9 -4 18 7 21 14 7 14 -6 0 -13 -4 -16 -10z"/>
<path d="M2597 2843 c-4 -3 -7 -11 -7 -17 0 -6 5 -5 12 2 6 6 9 14 7 17 -3 3
-9 2 -12 -2z"/>
<path d="M2764 2839 c-3 -5 6 -9 20 -9 31 0 34 6 6 13 -11 3 -23 1 -26 -4z"/>
<path d="M2455 2820 c-3 -5 -1 -10 4 -10 6 0 11 5 11 10 0 6 -2 10 -4 10 -3 0
-8 -4 -11 -10z"/>
<path d="M2513 2823 c15 -2 37 -2 50 0 12 2 0 4 -28 4 -27 0 -38 -2 -22 -4z"/>
<path d="M2634 2822 c5 -8 -2 -12 -18 -12 -18 0 -24 -4 -20 -15 6 -15 34 -21
34 -7 0 4 13 7 30 8 17 1 27 -3 23 -9 -3 -6 -1 -7 5 -3 24 15 12 29 -18 22
-18 -3 -29 -2 -25 3 3 5 0 13 -6 17 -8 4 -9 3 -5 -4z"/>
<path d="M2355 2799 c-11 -17 1 -21 15 -4 8 9 8 15 2 15 -6 0 -14 -5 -17 -11z"/>
<path d="M2548 2803 c24 -9 12 -22 -18 -18 -18 3 -28 0 -25 -6 8 -12 74 -8 82
5 3 5 1 6 -4 3 -6 -4 -13 0 -17 8 -3 8 -11 15 -18 14 -10 0 -10 -2 0 -6z"/>
<path d="M2833 2803 c9 -2 25 -2 35 0 9 3 1 5 -18 5 -19 0 -27 -2 -17 -5z"/>
<path d="M2850 2771 c0 -12 5 -21 10 -21 6 0 10 6 10 14 0 8 -4 18 -10 21 -5
3 -10 -3 -10 -14z"/>
<path d="M2471 2764 c0 -11 3 -14 6 -6 3 7 2 16 -1 19 -3 4 -6 -2 -5 -13z"/>
<path d="M2444 2708 l-19 -23 23 19 c21 18 27 26 19 26 -2 0 -12 -10 -23 -22z"/>
<path d="M2359 2623 c-12 -16 -12 -17 1 -7 8 7 24 14 35 17 19 4 19 5 -1 6
-12 0 -28 -7 -35 -16z"/>
<path d="M2830 2620 c0 -13 11 -13 30 0 12 8 11 10 -7 10 -13 0 -23 -4 -23
-10z"/>
<path d="M2448 2538 c-10 -10 -14 -18 -9 -18 10 0 36 29 30 34 -2 1 -12 -6
-21 -16z"/>
<path d="M4358 3166 c-48 -24 -62 -96 -27 -140 46 -58 139 -19 139 59 0 62
-61 106 -112 81z"/>
<path d="M2020 3235 c-8 -9 -8 -15 -2 -15 12 0 26 19 19 26 -2 2 -10 -2 -17
-11z"/>
<path d="M9008 3213 c6 -2 18 -2 25 0 6 3 1 5 -13 5 -14 0 -19 -2 -12 -5z"/>
<path d="M8888 3203 c12 -2 30 -2 40 0 9 3 -1 5 -23 4 -22 0 -30 -2 -17 -4z"/>
<path d="M8838 3193 c7 -3 16 -2 19 1 4 3 -2 6 -13 5 -11 0 -14 -3 -6 -6z"/>
<path d="M7700 3150 c-13 -8 -12 -10 5 -11 11 -1 30 -3 42 -4 12 -1 20 1 17 6
-2 4 -11 6 -19 2 -8 -3 -15 0 -15 6 0 13 -10 14 -30 1z"/>
<path d="M7860 3146 c0 -2 7 -7 16 -10 8 -3 12 -2 9 4 -6 10 -25 14 -25 6z"/>
<path d="M7914 3138 c-3 -4 4 -8 15 -8 11 0 22 4 25 8 2 4 -4 8 -15 8 -11 0
-23 -4 -25 -8z"/>
<path d="M7808 3133 c7 -3 16 -2 19 1 4 3 -2 6 -13 5 -11 0 -14 -3 -6 -6z"/>
<path d="M4654 3149 c-12 -14 -19 -36 -19 -64 0 -55 25 -85 72 -85 72 0 109
85 62 144 -27 34 -86 37 -115 5z"/>
<path d="M10640 3195 c1 -26 2 -28 11 -12 8 14 8 22 0 30 -8 8 -11 3 -11 -18z"/>
<path d="M10760 3194 c0 -14 4 -23 10 -19 6 3 10 15 10 26 0 10 -4 19 -10 19
-5 0 -10 -12 -10 -26z"/>
<path d="M10380 3135 c0 -8 5 -15 10 -15 6 0 10 7 10 15 0 8 -4 15 -10 15 -5
0 -10 -7 -10 -15z"/>
<path d="M10370 3085 c0 -8 7 -15 15 -15 8 0 15 7 15 15 0 8 -7 15 -15 15 -8
0 -15 -7 -15 -15z"/>
<path d="M10537 3103 c-11 -10 -8 -53 3 -53 6 0 10 14 10 30 0 31 -2 35 -13
23z"/>
<path d="M9830 3090 c0 -4 12 -10 28 -12 15 -3 36 -8 47 -12 16 -6 15 -4 -4
11 -24 18 -71 26 -71 13z"/>
<path d="M9814 3060 c-48 -19 -69 -85 -39 -124 14 -19 15 -18 15 10 0 34 15
62 27 50 4 -5 2 -11 -5 -13 -6 -3 -10 -9 -7 -13 3 -5 16 -5 29 0 30 11 36 5
36 -34 l1 -31 24 28 c25 28 34 67 15 67 -5 0 -10 -5 -10 -11 0 -8 -5 -7 -15 1
-9 7 -13 21 -10 30 4 13 1 17 -12 16 -10 0 -18 4 -18 11 0 18 -8 21 -31 13z"/>
<path d="M9737 2943 c-3 -5 1 -16 8 -26 7 -10 15 -15 18 -10 3 5 -1 16 -8 26
-7 10 -15 15 -18 10z"/>
<path d="M9770 2890 c0 -6 4 -9 9 -6 5 4 12 1 14 -4 3 -6 4 -5 3 2 -3 15 -26
23 -26 8z"/>
<path d="M11287 2929 c-3 -12 3 -36 14 -56 11 -19 17 -39 13 -44 -18 -29 40
-43 73 -17 8 6 22 -1 43 -23 26 -27 33 -31 40 -19 16 25 11 33 -16 27 -19 -3
-24 -1 -20 10 12 30 -5 64 -35 70 -24 5 -27 8 -18 24 6 13 6 19 0 19 -6 0 -15
-9 -21 -20 -21 -39 -75 -16 -63 28 3 12 3 22 0 22 -2 0 -7 -9 -10 -21z m128
-79 c3 -5 -7 -12 -22 -16 -15 -4 -32 -9 -38 -13 -22 -13 -33 -8 -31 15 1 21 6
24 43 24 23 0 45 -4 48 -10z"/>
<path d="M11365 2781 c6 -5 24 -13 40 -17 20 -4 27 -3 20 3 -5 6 -23 14 -40
17 -20 5 -27 4 -20 -3z"/>
<path d="M11440 2719 c0 -5 5 -7 10 -4 6 3 10 8 10 11 0 2 -4 4 -10 4 -5 0
-10 -5 -10 -11z"/>
<path d="M10840 3080 c0 -5 5 -10 10 -10 6 0 10 5 10 10 0 6 -4 10 -10 10 -5
0 -10 -4 -10 -10z"/>
<path d="M8260 2815 c-7 -8 -19 -15 -26 -15 -15 0 -19 -16 -6 -24 9 -5 57 42
50 50 -3 2 -11 -2 -18 -11z"/>
<path d="M1700 2970 c0 -5 5 -10 11 -10 5 0 7 5 4 10 -3 6 -8 10 -11 10 -2 0
-4 -4 -4 -10z"/>
<path d="M730 2812 c-38 -13 -40 -59 -3 -73 22 -8 30 -6 46 9 15 16 17 24 8
40 -12 23 -30 31 -51 24z"/>
<path d="M10200 2850 c0 -5 4 -10 9 -10 6 0 13 5 16 10 3 6 -1 10 -9 10 -9 0
-16 -4 -16 -10z"/>
<path d="M12306 2871 c-4 -5 -2 -12 3 -15 5 -4 12 -2 15 3 4 5 2 12 -3 15 -5
4 -12 2 -15 -3z"/>
<path d="M1528 2784 c-11 -22 -10 -28 7 -40 28 -21 54 -17 67 11 8 19 8 28 -2
40 -20 24 -59 19 -72 -11z"/>
<path d="M8336 2783 c-6 -14 -5 -15 5 -6 7 7 10 15 7 18 -3 3 -9 -2 -12 -12z"/>
<path d="M6980 2220 c0 -5 5 -10 10 -10 6 0 10 5 10 10 0 6 -4 10 -10 10 -5 0
-10 -4 -10 -10z"/>
<path d="M6828 2183 c6 -2 18 -2 25 0 6 3 1 5 -13 5 -14 0 -19 -2 -12 -5z"/>
<path d="M1200 2770 c0 -13 5 -20 13 -17 6 2 12 10 12 17 0 7 -6 15 -12 18 -8
2 -13 -5 -13 -18z"/>
<path d="M1180 2620 c0 -13 11 -13 30 0 12 8 11 10 -7 10 -13 0 -23 -4 -23
-10z"/>
<path d="M2033 2783 c-18 -7 -16 -33 2 -33 8 0 15 9 15 20 0 11 -1 20 -2 19
-2 0 -9 -3 -15 -6z"/>
<path d="M2005 2620 c3 -5 10 -10 16 -10 5 0 9 5 9 10 0 6 -7 10 -16 10 -8 0
-12 -4 -9 -10z"/>
<path d="M4861 2712 c-15 -28 -14 -32 9 -32 21 0 26 16 11 39 -7 11 -11 10
-20 -7z"/>
<path d="M5976 2684 c-8 -20 1 -34 20 -34 8 0 14 10 14 25 0 28 -24 34 -34 9z"/>
<path d="M8286 2653 c-15 -15 -3 -23 34 -23 32 0 38 3 33 16 -5 13 -7 13 -14
2 -7 -10 -12 -10 -28 -1 -10 6 -22 9 -25 6z"/>
<path d="M12028 2689 c-23 -13 -11 -39 17 -39 32 0 39 14 17 33 -12 11 -22 13
-34 6z"/>
<path d="M12267 2693 c-11 -11 -8 -20 9 -27 21 -8 34 1 27 19 -5 16 -25 20
-36 8z"/>
<path d="M12105 2669 c-18 -19 -18 -22 -3 -47 22 -36 91 -53 115 -29 15 14 15
20 3 43 -8 14 -21 28 -30 31 -8 2 -23 9 -32 14 -25 13 -33 11 -53 -12z"/>
<path d="M12240 2595 c0 -18 5 -25 19 -25 27 0 34 27 11 40 -27 14 -30 13 -30
-15z"/>
<path d="M4740 2690 c0 -5 7 -10 16 -10 8 0 12 5 9 10 -3 6 -10 10 -16 10 -5
0 -9 -4 -9 -10z"/>
<path d="M4987 2693 c-13 -12 -7 -43 7 -43 19 0 28 14 20 34 -7 17 -16 20 -27
9z"/>
<path d="M5060 2690 c0 -5 7 -10 16 -10 8 0 12 5 9 10 -3 6 -10 10 -16 10 -5
0 -9 -4 -9 -10z"/>
<path d="M5335 2690 c-3 -5 1 -10 9 -10 9 0 16 5 16 10 0 6 -4 10 -9 10 -6 0
-13 -4 -16 -10z"/>
<path d="M5660 2686 c-13 -17 -6 -36 15 -36 19 0 26 27 11 39 -10 8 -17 7 -26
-3z"/>
<path d="M5807 2694 c-16 -16 -7 -44 14 -44 15 0 20 5 17 22 -3 22 -19 33 -31
22z"/>
<path d="M6055 2690 c-3 -5 3 -10 15 -10 12 0 18 5 15 10 -3 6 -10 10 -15 10
-5 0 -12 -4 -15 -10z"/>
<path d="M712 2628 c-15 -15 -16 -40 0 -56 16 -16 52 -16 42 0 -5 7 -3 8 6 3
15 -9 32 15 20 30 -4 5 -9 15 -9 20 -1 15 -44 18 -59 3z m58 -2 c0 -2 -9 -6
-20 -9 -11 -3 -18 -1 -14 4 5 9 34 13 34 5z"/>
<path d="M1536 2624 c-29 -28 -12 -64 30 -64 33 0 49 25 36 55 -13 29 -43 33
-66 9z"/>
<path d="M12685 2518 c-13 -40 -10 -53 16 -56 18 -2 26 2 26 12 0 9 -4 16 -9
16 -5 0 -6 5 -3 10 3 6 1 10 -5 10 -6 0 -8 5 -5 10 3 6 1 10 -5 10 -6 0 -13
-6 -15 -12z"/>
<path d="M5670 2494 c0 -9 5 -14 12 -12 18 6 21 28 4 28 -9 0 -16 -7 -16 -16z"/>
<path d="M9545 2380 c10 -11 20 -20 23 -20 3 0 -3 9 -13 20 -10 11 -20 20 -23
20 -3 0 3 -9 13 -20z"/>
<path d="M2769 2016 c-48 -23 -30 -106 22 -106 39 0 59 19 59 54 0 49 -39 74
-81 52z m61 -21 c7 -8 10 -25 6 -39 -8 -33 -42 -43 -67 -20 -23 21 -24 37 -3
58 20 20 48 20 64 1z"/>
<path d="M2902 1965 c1 -41 3 -48 5 -22 2 20 6 37 8 37 3 0 20 -17 40 -37 l34
-38 1 58 c0 31 -4 57 -10 57 -5 0 -10 -16 -10 -37 l0 -36 -35 39 -34 39 1 -60z"/>
<path d="M3033 2013 c13 -3 17 -15 17 -54 0 -27 5 -49 10 -49 6 0 10 22 10 49
0 39 4 51 18 54 9 3 -3 5 -28 5 -25 0 -37 -2 -27 -5z"/>
<path d="M3140 1965 c0 -51 2 -55 23 -55 27 0 57 28 57 54 0 34 -20 56 -50 56
-30 0 -30 -1 -30 -55z m48 36 c8 -5 12 -21 10 -37 -2 -21 -9 -30 -25 -32 -21
-3 -23 1 -23 37 0 41 10 50 38 32z"/>
<path d="M3260 1965 l0 -55 36 0 c21 0 33 4 29 10 -3 6 -15 10 -26 10 -10 0
-19 7 -19 15 0 8 9 15 20 15 11 0 20 5 20 10 0 6 -9 10 -20 10 -27 0 -25 28 3
33 16 3 13 5 -10 6 l-33 1 0 -55z"/>
<path d="M3372 1965 c0 -40 2 -51 7 -32 l6 29 24 -26 c14 -14 29 -26 35 -26 5
0 -2 13 -17 28 l-28 29 21 26 c25 32 12 36 -16 6 l-19 -21 -6 24 c-4 14 -7 -1
-7 -37z"/>
<path d="M3551 1965 c-2 -59 16 -77 21 -22 l3 32 16 -29 16 -30 16 30 c13 24
16 25 17 9 0 -11 5 -27 10 -35 7 -11 10 3 10 45 -1 58 -1 59 -18 39 -9 -12
-22 -30 -28 -40 -11 -17 -13 -16 -30 19 -10 20 -21 37 -24 37 -4 0 -8 -25 -9
-55z"/>
<path d="M3710 1965 c0 -54 0 -55 30 -55 17 0 30 5 30 10 0 6 -11 10 -25 10
-16 0 -25 6 -25 15 0 9 10 15 26 15 14 0 23 4 19 10 -3 6 -15 10 -26 10 -30 0
-23 28 9 33 25 4 25 4 -5 6 l-33 1 0 -55z"/>
<path d="M3810 1965 l0 -55 36 0 c21 0 33 4 29 10 -3 6 -15 10 -26 10 -10 0
-19 7 -19 15 0 8 9 15 20 15 11 0 20 5 20 10 0 6 -9 10 -20 10 -27 0 -25 28 3
33 16 3 13 5 -10 6 l-33 1 0 -55z"/>
<path d="M3921 1963 c1 -32 4 -48 6 -35 5 27 19 28 33 2 6 -11 16 -20 22 -20
6 0 5 9 -4 23 -11 16 -12 27 -5 38 15 24 1 49 -28 49 -24 0 -25 -2 -24 -57z
m44 27 c0 -8 -8 -16 -17 -18 -13 -2 -18 3 -18 18 0 15 5 20 18 18 9 -2 17 -10
17 -18z"/>
<path d="M8825 2061 c-64 -6 -62 -21 3 -27 20 -2 39 -9 42 -15 6 -8 9 -8 12 2
4 11 12 11 41 2 31 -9 37 -9 37 3 0 8 -10 14 -24 14 -13 0 -26 7 -30 15 -3 8
-9 14 -13 13 -4 -1 -35 -4 -68 -7z m65 -11 c0 -5 -10 -10 -22 -9 -22 0 -22 1
-3 9 11 5 21 9 23 9 1 1 2 -3 2 -9z"/>
<path d="M9004 2051 c4 -5 -4 -12 -16 -14 -13 -2 -5 -5 19 -6 23 0 43 -7 46
-13 6 -17 14 -9 19 17 2 17 -3 21 -36 23 -23 2 -36 0 -32 -7z"/>
<path d="M9506 2009 c-30 -23 -33 -45 -10 -77 29 -42 104 -18 104 34 0 25 -10
38 -37 53 -28 14 -26 15 -57 -10z m62 -11 c18 -18 14 -56 -7 -68 -26 -14 -50
-3 -57 26 -11 42 34 72 64 42z"/>
<path d="M8678 2013 c6 -2 18 -2 25 0 6 3 1 5 -13 5 -14 0 -19 -2 -12 -5z"/>
<path d="M9640 1965 c0 -30 5 -55 10 -55 6 0 10 17 10 38 l1 37 34 -37 35 -38
-1 58 c-2 52 -2 54 -8 18 l-6 -40 -32 37 c-18 20 -35 37 -38 37 -3 0 -5 -25
-5 -55z"/>
<path d="M9783 2013 c13 -3 17 -16 19 -56 l1 -52 4 45 c2 26 11 50 20 58 14
10 11 12 -23 11 -21 -1 -31 -3 -21 -6z"/>
<path d="M9880 1965 c0 -54 1 -55 29 -55 34 0 54 20 54 55 0 35 -20 55 -54 55
-28 0 -29 -1 -29 -55z m60 31 c18 -23 8 -61 -17 -64 -21 -3 -23 1 -23 37 0 43
17 54 40 27z"/>
<path d="M10010 1965 c0 -54 0 -55 30 -55 17 0 30 5 30 10 0 6 -11 10 -25 10
-16 0 -25 6 -25 15 0 9 9 15 25 15 14 0 25 5 25 10 0 6 -11 10 -25 10 -34 0
-32 28 3 33 25 4 25 4 -5 6 l-33 1 0 -55z"/>
<path d="M10110 1965 c0 -30 5 -55 10 -55 6 0 10 12 10 26 l0 27 21 -27 c29
-36 45 -33 19 5 -21 29 -21 31 -4 50 9 10 14 22 11 25 -4 4 -15 -4 -26 -17
l-20 -24 -1 23 c0 12 -4 22 -10 22 -5 0 -10 -25 -10 -55z"/>
<path d="M10301 1963 c2 -54 2 -55 8 -18 l6 40 19 -34 19 -35 18 35 18 34 1
-37 c0 -21 3 -38 8 -38 4 0 5 26 3 57 l-3 58 -22 -37 c-11 -21 -24 -38 -27
-38 -4 0 -12 14 -19 30 -21 50 -30 44 -29 -17z"/>
<path d="M10450 1965 l0 -55 36 0 c21 0 33 4 29 10 -3 6 -15 10 -26 10 -10 0
-19 7 -19 15 0 8 9 15 20 15 11 0 20 5 20 10 0 6 -9 10 -20 10 -27 0 -25 28 3
33 16 3 13 5 -10 6 l-33 1 0 -55z"/>
<path d="M10560 1965 c0 -54 0 -55 30 -55 17 0 30 5 30 10 0 6 -11 10 -25 10
-16 0 -25 6 -25 15 0 9 10 15 26 15 14 0 23 4 19 10 -3 6 -15 10 -26 10 -30 0
-23 28 9 33 25 4 25 4 -5 6 l-33 1 0 -55z"/>
<path d="M10660 1965 c0 -30 5 -55 10 -55 6 0 10 12 10 26 l0 27 21 -27 c24
-30 37 -29 18 2 -10 16 -10 24 -1 35 19 23 4 47 -29 47 -28 0 -29 -1 -29 -55z
m45 25 c0 -7 -6 -15 -12 -17 -8 -3 -13 4 -13 17 0 13 5 20 13 18 6 -3 12 -11
12 -18z"/>
<path d="M8360 1981 c0 -5 11 -8 25 -8 13 0 22 3 19 8 -3 5 -14 9 -25 9 -10 0
-19 -4 -19 -9z"/>
<path d="M8492 1980 c-77 -11 -78 -23 -3 -17 37 2 67 9 69 15 2 7 0 11 -5 11
-4 -1 -32 -5 -61 -9z"/>
<path d="M8590 1986 c0 -2 9 -6 20 -9 11 -3 20 -1 20 4 0 5 -9 9 -20 9 -11 0
-20 -2 -20 -4z"/>
<path d="M8968 1983 c6 -2 18 -2 25 0 6 3 1 5 -13 5 -14 0 -19 -2 -12 -5z"/>
<path d="M7995 1940 c-19 -8 -19 -9 3 -9 12 -1 22 4 22 9 0 6 -1 10 -2 9 -2 0
-12 -4 -23 -9z"/>
<path d="M7868 1933 c7 -3 16 -2 19 1 4 3 -2 6 -13 5 -11 0 -14 -3 -6 -6z"/>
<path d="M8040 1930 c-11 -7 -5 -8 20 -4 43 8 51 14 19 14 -13 0 -31 -5 -39
-10z"/>
<path d="M8378 1933 c7 -3 16 -2 19 1 4 3 -2 6 -13 5 -11 0 -14 -3 -6 -6z"/>
<path d="M8365 1910 c3 -5 10 -10 16 -10 5 0 9 5 9 10 0 6 -7 10 -16 10 -8 0
-12 -4 -9 -10z"/>
<path d="M13555 6400 c-18 -20 -17 -20 20 -20 37 0 38 0 20 20 -10 11 -19 20
-20 20 -1 0 -10 -9 -20 -20z"/>
<path d="M6178 1040 c9 -27 19 -50 23 -50 9 0 41 91 34 98 -2 2 -10 -11 -18
-29 l-15 -34 -12 33 c-19 52 -30 37 -12 -18z"/>
<path d="M6252 1040 c-12 -27 -17 -50 -13 -50 5 0 11 7 15 15 7 20 43 19 55
-2 5 -10 12 -15 16 -12 7 7 -35 99 -46 99 -3 0 -16 -22 -27 -50z m38 5 c0 -8
-4 -15 -10 -15 -5 0 -10 7 -10 15 0 8 5 15 10 15 6 0 10 -7 10 -15z"/>
<path d="M6352 1040 c0 -47 2 -50 7 -20 l6 35 24 -32 c14 -18 28 -33 33 -33 4
0 8 23 8 50 0 28 -4 50 -10 50 -5 0 -10 -15 -10 -32 l-1 -33 -29 35 -29 35 1
-55z"/>
<path d="M6490 1040 c0 -46 2 -50 23 -50 30 0 47 18 47 50 0 32 -17 50 -47 50
-21 0 -23 -4 -23 -50z m60 0 c0 -11 -9 -24 -20 -30 -18 -10 -20 -8 -20 30 0
38 2 40 20 30 11 -6 20 -19 20 -30z"/>
<path d="M6580 1040 l0 -50 33 1 c23 1 26 3 10 6 -14 3 -23 12 -23 23 0 11 9
20 23 23 l22 4 -22 2 c-27 1 -31 27 -5 34 10 3 6 5 -10 6 -27 1 -28 -1 -28
-49z"/>
<path d="M6701 1038 c1 -44 3 -48 8 -23 l8 30 13 -28 c13 -27 15 -27 27 -11
17 23 17 39 -1 25 -11 -9 -16 -5 -26 19 -20 49 -30 45 -29 -12z"/>
<path d="M6777 1076 c-8 -20 3 -86 14 -86 5 0 9 23 9 50 0 48 -12 66 -23 36z"/>
<path d="M6820 1040 l0 -50 33 1 c23 1 26 3 10 6 -14 3 -23 12 -23 23 0 11 9
20 23 23 l22 4 -22 2 c-13 0 -23 7 -23 15 0 8 10 17 23 19 16 3 13 5 -10 6
l-33 1 0 -50z"/>
<path d="M6902 1043 c-2 -52 -1 -53 26 -52 22 1 23 2 5 6 -18 4 -23 12 -26 51
l-3 47 -2 -52z"/>
<path d="M6972 1040 c0 -35 2 -46 7 -32 l6 24 19 -21 c11 -12 24 -21 29 -21 6
0 0 11 -13 25 -23 24 -23 25 -5 45 10 11 15 23 11 27 -3 4 -14 -4 -23 -17
l-17 -24 -7 24 c-5 17 -7 7 -7 -30z"/>
<path d="M7050 1040 c0 -48 19 -74 21 -27 l0 22 16 -22 c23 -34 37 -28 17 7
-17 28 -17 30 1 50 22 24 9 27 -17 3 -17 -15 -18 -15 -18 0 0 10 -4 17 -10 17
-5 0 -10 -22 -10 -50z"/>
<path d="M7149 1044 c-11 -26 -17 -49 -14 -52 2 -3 7 3 11 12 8 21 50 21 58 0
4 -9 9 -14 12 -11 8 8 -28 97 -39 97 -4 0 -17 -21 -28 -46z m41 -5 c0 -5 -7
-9 -15 -9 -9 0 -12 6 -9 15 6 15 24 11 24 -6z"/>
<path d="M7242 1040 c0 -47 2 -50 7 -20 l6 35 24 -32 c14 -18 28 -33 33 -33 4
0 8 23 8 50 0 28 -4 50 -10 50 -5 0 -10 -14 -10 -32 l0 -32 -30 34 -29 35 1
-55z"/>
<path d="M12941 973 c-43 -8 -100 -54 -121 -97 -59 -122 24 -259 157 -259 141
0 221 163 139 282 -38 55 -112 86 -175 74z m109 -28 c16 -8 42 -32 57 -52 24
-31 28 -46 28 -98 0 -52 -4 -67 -28 -98 -37 -48 -75 -67 -135 -67 -122 0 -198
129 -140 240 31 60 77 90 140 90 27 0 62 -7 78 -15z"/>
<path d="M12940 810 c-18 -23 -30 -43 -27 -46 3 -3 15 10 28 28 12 18 24 35
26 37 2 2 19 -13 39 -35 l36 -39 -33 48 c-18 26 -33 47 -35 47 -1 0 -17 -18
-34 -40z"/>
<path d="M7469 792 c-14 -2 -16 -11 -12 -44 l6 -40 -30 6 c-43 10 -83 -24 -83
-70 0 -51 28 -73 92 -73 l53 1 -3 91 c-4 129 -5 133 -23 129z m-11 -149 c6
-73 -52 -85 -72 -15 -7 24 -5 38 8 57 16 24 19 25 39 12 15 -10 23 -26 25 -54z"/>
<path d="M6460 788 c-1 -2 -2 -51 -3 -111 l-2 -107 25 0 c24 0 25 2 25 62 0
57 2 63 22 66 27 4 37 -26 31 -88 -3 -38 -2 -40 24 -40 25 0 26 2 17 32 -5 18
-9 45 -9 60 0 38 -41 65 -75 50 -25 -11 -25 -11 -25 33 0 33 -4 45 -15 45 -8
0 -15 -1 -15 -2z"/>
<path d="M7129 783 c0 -5 -1 -54 -2 -110 l-2 -103 28 0 c24 0 26 2 17 19 -5
11 -10 60 -10 110 0 74 -3 91 -15 91 -8 0 -15 -3 -16 -7z"/>
<path d="M5875 737 c-4 -10 -17 -23 -29 -27 -16 -7 -17 -9 -4 -9 14 -1 18 -13
20 -63 3 -57 5 -63 26 -66 24 -4 52 13 52 30 0 6 -6 5 -15 -2 -23 -19 -35 -2
-35 50 0 42 3 49 23 53 22 4 22 4 0 6 -14 1 -23 9 -26 24 -3 20 -4 20 -12 4z"/>
<path d="M6155 739 c-6 -9 -19 -21 -30 -27 -17 -10 -17 -11 -3 -12 14 0 18
-12 20 -62 3 -57 5 -63 26 -66 24 -4 52 13 52 30 0 6 -6 5 -15 -2 -23 -19 -35
-2 -35 50 0 42 3 49 23 53 22 4 22 4 0 6 -14 1 -23 9 -25 24 -3 19 -5 20 -13
6z"/>
<path d="M5993 710 c-26 -11 -43 -40 -43 -73 0 -59 101 -93 134 -45 47 66 -17
149 -91 118z m50 -17 c38 -43 28 -117 -16 -111 -33 5 -53 72 -32 104 18 29 27
30 48 7z"/>
<path d="M6326 699 c-33 -26 -36 -79 -6 -109 34 -34 110 -22 110 18 0 10 -3
10 -16 -2 -21 -21 -40 -20 -64 4 -38 38 -13 113 31 90 10 -6 19 -15 19 -20 0
-6 7 -10 15 -10 22 0 18 17 -7 34 -30 21 -50 20 -82 -5z"/>
<path d="M6659 705 c-46 -25 -46 -100 0 -124 51 -28 102 -5 116 51 6 22 1 33
-23 58 -34 33 -54 36 -93 15z m61 -15 c32 -32 25 -110 -11 -110 -39 0 -67 88
-37 118 17 17 25 15 48 -8z"/>
<path d="M6835 708 c-49 -26 -58 -69 -24 -112 24 -30 78 -36 103 -10 22 22 20
41 -2 21 -10 -10 -25 -17 -34 -17 -43 0 -67 89 -29 109 14 8 23 5 41 -15 17
-17 27 -21 34 -13 8 7 4 16 -13 30 -26 21 -47 23 -76 7z"/>
<path d="M6983 708 c-30 -15 -46 -58 -34 -91 20 -53 95 -65 130 -21 12 15 21
33 21 40 0 26 -23 62 -47 73 -29 13 -41 13 -70 -1z m67 -29 c11 -20 13 -60 4
-83 -16 -42 -74 2 -74 56 0 52 47 71 70 27z"/>
<path d="M7218 709 c-18 -10 -25 -39 -10 -39 4 0 16 9 25 21 15 16 21 18 33 9
21 -19 18 -49 -5 -43 -32 8 -61 -14 -61 -47 0 -33 12 -39 87 -38 48 0 52 2 43
18 -6 11 -10 34 -10 52 0 39 -7 51 -37 67 -26 13 -42 14 -65 0z m65 -81 c14
-21 2 -48 -22 -48 -24 0 -37 36 -20 56 14 17 28 14 42 -8z"/>
<path d="M7545 695 c-64 -63 7 -157 86 -115 10 6 19 18 19 27 0 14 -2 14 -20
-2 -17 -15 -24 -16 -45 -7 -35 16 -31 27 16 42 50 17 60 37 30 62 -31 25 -57
23 -86 -7z m65 -22 c0 -17 -41 -34 -54 -22 -5 4 -2 19 8 34 14 21 20 24 32 14
8 -6 14 -18 14 -26z"/>
<path d="M5990 296 l0 -66 35 0 c19 0 35 5 35 10 0 6 -11 10 -25 10 -23 0 -25
3 -25 49 0 28 -4 53 -10 56 -6 4 -10 -18 -10 -59z"/>
<path d="M6120 295 l0 -65 35 0 c19 0 35 5 35 10 0 6 -11 10 -25 10 -18 0 -25
5 -25 20 0 15 7 20 28 21 l27 1 -25 7 c-35 10 -40 41 -6 41 14 0 26 5 26 10 0
6 -16 10 -35 10 l-35 0 0 -65z"/>
<path d="M6260 295 l0 -65 40 0 c22 0 40 5 40 10 0 6 -13 10 -30 10 -23 0 -30
4 -30 20 0 16 7 20 33 21 l32 1 -30 7 c-39 8 -48 41 -11 41 14 0 26 5 26 10 0
6 -16 10 -35 10 l-35 0 0 -65z"/>
<path d="M6412 348 c-19 -19 -15 -31 20 -60 27 -23 30 -30 19 -37 -10 -6 -22
-6 -34 1 -15 8 -18 7 -15 -4 7 -19 59 -16 72 5 9 15 6 23 -22 45 -39 32 -40
42 -6 42 14 0 23 4 19 10 -8 14 -38 13 -53 -2z"/>
<path d="M6634 344 c4 -11 15 -40 23 -66 9 -27 19 -48 23 -48 7 0 50 104 50
121 0 26 -18 3 -31 -38 l-15 -48 -15 44 c-9 25 -21 47 -29 49 -9 3 -11 -1 -6
-14z"/>
<path d="M6790 295 l0 -65 40 0 c22 0 40 5 40 10 0 6 -14 10 -31 10 -42 0 -37
33 6 39 l30 4 -30 6 c-39 8 -48 41 -11 41 14 0 26 5 26 10 0 6 -16 10 -35 10
l-35 0 0 -65z"/>
<path d="M6939 343 c-5 -82 -3 -113 9 -113 6 0 12 12 12 28 l1 27 20 -27 c26
-35 47 -37 25 -3 -13 20 -14 28 -4 45 17 27 0 54 -36 58 -19 3 -26 -1 -27 -15z
m46 -23 c0 -7 -6 -15 -12 -17 -8 -3 -13 4 -13 17 0 13 5 20 13 18 6 -3 12 -11
12 -18z"/>
<path d="M7080 295 l0 -65 30 0 c37 0 70 31 70 65 0 34 -33 65 -70 65 l-30 0
0 -65z m72 19 c14 -31 1 -57 -31 -62 -19 -3 -21 1 -21 42 0 39 3 46 20 46 12
0 25 -10 32 -26z"/>
<path d="M7248 348 c-4 -12 -4 -29 1 -98 1 -16 8 -20 36 -20 19 0 35 5 35 10
0 6 -11 10 -25 10 -37 0 -35 37 3 43 l27 4 -27 2 c-21 1 -28 6 -28 21 0 13 7
20 20 20 11 0 20 5 20 10 0 15 -57 12 -62 -2z"/>
<path d="M7390 295 c0 -37 4 -65 10 -65 6 0 10 12 10 28 l1 27 24 -30 c13 -16
27 -26 31 -22 4 4 -1 16 -11 27 -14 16 -16 23 -7 32 17 17 15 55 -4 62 -46 18
-54 9 -54 -59z m50 25 c0 -11 -7 -20 -15 -20 -8 0 -15 9 -15 20 0 11 7 20 15
20 8 0 15 -9 15 -20z"/>
<path d="M6433 103 c175 -2 459 -2 630 0 172 1 29 2 -318 2 -346 0 -487 -1
-312 -2z"/>
<path d="M13550 15 c7 -8 18 -15 25 -15 7 0 18 7 25 15 11 13 7 15 -25 15 -32
0 -36 -2 -25 -15z"/>
</g>
</svg>
